<svg data-type="punt-pin-links" height="480" viewBox="0 0 144 480" width="144" xmlns="http://www.w3.org/2000/svg">
    <title>punt-pin</title>
    <path d="M0 168h144v144H0z" fill="#d9ebf7"/>
    <path d="M24 312H0m0-144h24m120 144h-24m0-144h24" fill="none" stroke="#9fceea" stroke-miterlimit="10"
          stroke-width="3"/>
    <path d="M24 312h96v12H24z" fill="#d9ebf7"/>
    <path d="M120 312H24v12l89.4-.1L120 312z" fill="#d9ebf7"/>
    <path d="M109 318l-21.8-70.7A9 9 0 1 1 91 240h4l24 78zm-27-81a3 3 0 1 0 3 3 3 3 0 0 0-3-3z" fill="#ffb612"
          stroke="#000" stroke-miterlimit="10"/>
    <path d="M114 324v-6h6v-6" fill="none" stroke="#9fceea" stroke-linecap="square" stroke-linejoin="round"
          stroke-width="3"/>
    <path d="M24 312v12h90" fill="none" stroke="#7d7d7d" stroke-linecap="square" stroke-linejoin="round"
          stroke-width="3"/>
    <circle cx="114" cy="318" r="6" stroke="#474747" stroke-miterlimit="10" stroke-width="3"/>
    <path d="M120 168H24v-12l89.4.1L120 168z" fill="#d9ebf7"/>
    <path d="M109 162l-21.8 70.7A9 9 0 1 0 91 240h4l24-78zm-27 81a3 3 0 1 1 3-3 3 3 0 0 1-3 3z" fill="#ffb612"
          stroke="#000" stroke-miterlimit="10"/>
    <path d="M114 156v6h6v6" fill="none" stroke="#9fceea" stroke-linecap="square" stroke-linejoin="round"
          stroke-width="3"/>
    <path d="M24 168v-12h90" fill="none" stroke="#7d7d7d" stroke-linecap="square" stroke-linejoin="round"
          stroke-width="3"/>
    <circle cx="114" cy="162" r="6" stroke="#474747" stroke-miterlimit="10" stroke-width="3"/>
    <text font-family="sans-serif" font-size="36" text-anchor="middle" x="72" y="420"/>
</svg>