<svg xmlns="http://www.w3.org/2000/svg" width="168" viewBox="0 0 168 480" height="480" data-type="punt-dubbelk-links"><title>punt-dubbelk</title><path d="M168 168H0v144h168z" fill="#d9ebf7"/><path stroke-miterlimit="10" d="M144 312h24m0-144h-24M0 312h48m0-144H0" fill="none" stroke="#9fceea" stroke-width="3"/><path d="M144 312H48v12h96zM48 168h96v-12H54l-6 12z" fill="#d9ebf7"/><path d="M54 156v6h-6v6" fill="none" stroke="#9fceea" stroke-width="3" stroke-linecap="square" stroke-linejoin="round"/><path d="M48 312h96v12H54l-6-12z" fill="#d9ebf7"/><path stroke-miterlimit="10" d="M49 318l24-78h10l-24 78H49z" fill="#ffb612" stroke="#000"/><path d="M54 324v-6h-6v-6" fill="none" stroke="#9fceea" stroke-width="3" stroke-linecap="square" stroke-linejoin="round"/><path d="M144 312v12H54" fill="none" stroke="#7d7d7d" stroke-width="3" stroke-linecap="square" stroke-linejoin="round"/><circle transform="scale(-1)" cx="-54" cy="-318" r="6" stroke-miterlimit="10" stroke="#474747" stroke-width="3"/><path d="M18 318l45-30" fill="#fff"/><path stroke-miterlimit="10" d="M18 318l45-30" fill="none" stroke="#fff" stroke-width="4"/><circle transform="scale(-1 1) rotate(-56.304)" r="3.3" cy="107.4" cx="-274.6" fill="#fff"/><path stroke-miterlimit="10" d="M18 318l45-30" fill="none" stroke="#154573" stroke-width="2"/><circle transform="scale(-1 1) rotate(-56.304)" r="2.3" cy="161.5" cx="-274.6" fill="#154573"/><circle transform="scale(-1 1) rotate(-56.304)" r="2.3" cy="107.4" cx="-274.6" fill="#154573"/><path d="M48 168h96v-12H54l-6 12z" fill="#d9ebf7"/><path stroke-miterlimit="10" d="M49 162l24 78h10l-24-78H49z" fill="#ffb612" stroke="#000"/><path d="M54 156v6h-6v6" fill="none" stroke="#9fceea" stroke-width="3" stroke-linecap="square" stroke-linejoin="round"/><path d="M144 168v-12H54" fill="none" stroke="#7d7d7d" stroke-width="3" stroke-linecap="square" stroke-linejoin="round"/><circle transform="scale(-1 1)" cx="-54" cy="162" r="6" stroke-miterlimit="10" stroke="#474747" stroke-width="3"/><path d="M18 162l45 30" fill="#fff"/><path stroke-miterlimit="10" d="M18 162l45 30" fill="none" stroke="#fff" stroke-width="4"/><circle transform="scale(-1 1) rotate(-33.696)" r="3.3" cy="124.8" cx="-158.9" fill="#fff"/><path stroke-miterlimit="10" d="M18 162l45 30" fill="none" stroke="#154573" stroke-width="2"/><circle transform="scale(-1 1) rotate(-33.696)" r="2.3" cy="124.7" cx="-104.9" fill="#154573"/><circle transform="scale(-1 1) rotate(-33.696)" r="2.3" cy="124.8" cx="-158.9" fill="#154573"/><text y="420" x="84" text-anchor="middle" font-size="36" font-family="sans-serif"/></svg>