<svg id="Layer_1" data-name="Layer 1" xmlns="http://www.w3.org/2000/svg" viewBox="0 0 72 72">
  <title>buoyage-direction-geen</title>
  <g>
    <path d="M21.6,37.7h5.1L26.2,45a16.5,16.5,0,0,1-4.7.5c-4.3,0-7-2.4-7-6.6,0-5.8,3.7-8.7,8.7-8.7a19.4,19.4,0,0,1,3.6.3l-.2,2.4a20.2,20.2,0,0,0-3.6-.3c-3.2,0-5.4,2-5.4,6s1.8,4.5,4.1,4.5h1.8l.2-3.1H21.6Z" fill="#535353"/>
    <path d="M34,33.8c2.4,0,3.5,1.1,3.5,2.7s-2.3,4.8-6.2,4.8c0,1.5.7,2,1.8,2a7.9,7.9,0,0,0,3.4-.8v2.1a8.9,8.9,0,0,1-3.9.9c-2.7,0-4-1.3-4-4.2C28.6,36.1,31,33.8,34,33.8Zm-.4,2c-.8,0-1.9,1.1-2.2,3.7,2.2,0,3.4-1.1,3.4-2.5A1.1,1.1,0,0,0,33.6,35.8Z" fill="#535353"/>
    <path d="M44.1,33.8c2.4,0,3.5,1.1,3.5,2.7s-2.3,4.8-6.2,4.8c0,1.5.7,2,1.8,2a7.9,7.9,0,0,0,3.4-.8v2.1a8.9,8.9,0,0,1-3.9.9c-2.7,0-4-1.3-4-4.2C38.7,36.1,41.1,33.8,44.1,33.8Zm-.4,2c-.8,0-1.9,1.1-2.2,3.7,2.2,0,3.3-1.1,3.3-2.5S44.4,35.8,43.7,35.8Z" fill="#535353"/>
    <path d="M55.8,38c.1-1.2-.2-1.5-1.1-1.5a4,4,0,0,0-2.4,1l-.7,7.8H48.9l1-11.2,2.7-.2-.2,1.5h.1a4.7,4.7,0,0,1,3.4-1.6c1.9,0,2.9,1.1,2.6,3.9l-.7,7.6H55.1Z" fill="#535353"/>
  </g>
</svg>
