<svg id="Layer_1" data-name="Layer 1" xmlns="http://www.w3.org/2000/svg" width="72" height="48" viewBox="0 0 72 48">
  <title>buoyage-direction-w-rood-links</title>
  <g>
    <path d="M61.1,25.4c-3.3,0-3.3-4-6.6-4s-3.4,4-6.7,4-3.3-4-6.6-4-3.4,4-6.7,4-3.3-4-6.7-4-3.3,4-6.6,4" fill="none" stroke="#59a9db" stroke-miterlimit="10" stroke-width="3"/>
    <g>
      <line x1="21.2" y1="25.4" x2="17.3" y2="25.4" fill="none" stroke="#59a9db" stroke-miterlimit="10" stroke-width="3"/>
      <polygon points="18.7 20.9 10.9 25.4 18.7 29.9 18.7 20.9" fill="#59a9db"/>
    </g>
  </g>
  <rect x="31" y="33.8" width="10" height="10" transform="translate(-2.8 74.8) rotate(-90)" fill="#d52b1e"/>
  <polygon points="41.4 15.4 30.6 15.4 30.6 11.3 36 4.6 41.4 11.3 41.4 15.4" fill="#39870c" fill-rule="evenodd"/>
</svg>
