<svg id="Layer_1" data-name="Layer 1" xmlns="http://www.w3.org/2000/svg" width="72" height="48" viewBox="0 0 72 48">
  <title>buoyage-direction-n-rood-rechts</title>
  <g>
    <path d="M60.9,24.8c-3.3,0-3.3-4-6.6-4s-3.4,4-6.7,4-3.3-4-6.6-4-3.4,4-6.7,4-3.3-4-6.7-4-3.3,4-6.6,4" fill="none" stroke="#59a9db" stroke-miterlimit="10" stroke-width="3"/>
    <g>
      <line x1="21" y1="24.8" x2="17.1" y2="24.8" fill="none" stroke="#59a9db" stroke-miterlimit="10" stroke-width="3"/>
      <polygon points="18.4 20.3 10.7 24.8 18.4 29.3 18.4 20.3" fill="#59a9db"/>
    </g>
  </g>
  <rect x="30.8" y="5.4" width="10" height="10" transform="translate(46.2 -25.4) rotate(90)" fill="#d52b1e"/>
  <polygon points="30.4 43.6 41.2 43.6 41.2 39.5 35.8 32.8 30.4 39.5 30.4 43.6" fill="#39870c" fill-rule="evenodd"/>
</svg>
