<svg id="Layer_1" data-name="Layer 1" xmlns="http://www.w3.org/2000/svg" viewBox="0 0 24 24">
  <title>delete-forever-hover</title>
  <path d="M5.1,9.2l1.3,13a.8.8,0,0,0,.8.8h9.6a.9.9,0,0,0,.8-.8l1.3-13Z" fill="#d52b1e"/>
  <rect x="11.3" y="11.6" width="1.4" height="8.92" fill="#fff"/>
  <polygon points="15.2 20.6 13.9 20.6 15.1 11.6 16.5 11.6 15.2 20.6" fill="#fff"/>
  <polygon points="10.2 20.6 8.8 20.6 7.6 11.6 8.9 11.6 10.2 20.6" fill="#fff"/>
  <path d="M19.2,5.8l-3.8-1,.4-1.7A1,1,0,0,0,15,2L11.2,1c-.5-.1-1.2,0-1.4.5L9.4,3.2,5.5,2.4A.9.9,0,0,0,4.4,3h0L4.1,4.4,19.5,8.3l.4-1.4a.9.9,0,0,0-.7-1.1Zm-8.5-3a.9.9,0,0,1,1.1-.5l2,.5c.5.2.8.6.7,1l-.2.8-3.8-1,.2-.8Z" fill="#d52b1e"/>
</svg>
