<svg id="998fbe6d-bb33-4729-83bb-68a38bd371fa" data-name="Layer 1" xmlns="http://www.w3.org/2000/svg" viewBox="0 0 72 72">
  <title>flow-direction-o</title>
  <g>
    <path d="M68.1,36c-3.3,0-3.3-4-6.6-4s-3.4,4-6.7,4-3.3-4-6.6-4-3.4,4-6.7,4-3.3-4-6.7-4-3.3,4-6.6,4" fill="none" stroke="#59a9db" stroke-miterlimit="10" stroke-width="3"/>
    <g>
      <line x1="28.2" y1="36" x2="24.3" y2="36" fill="none" stroke="#59a9db" stroke-miterlimit="10" stroke-width="3"/>
      <polygon points="25.7 31.5 17.9 36 25.7 40.5 25.7 31.5" fill="#59a9db"/>
    </g>
  </g>
  <g style="isolation: isolate">
    <path d="M3.2,35.3a5.8,5.8,0,0,1,1.7-4.6,5.9,5.9,0,0,1,4-1.6,5.3,5.3,0,0,1,3.9,1.5,5.8,5.8,0,0,1,1.7,4.5,5.9,5.9,0,0,1-1.8,4.6,5.8,5.8,0,0,1-4,1.6,5.6,5.6,0,0,1-3.9-1.5A5.8,5.8,0,0,1,3.2,35.3Zm2.4-.2a4.3,4.3,0,0,0,.9,3.1,3,3,0,0,0,2.3,1,3.3,3.3,0,0,0,2.2-.9,4,4,0,0,0,1-3,4.7,4.7,0,0,0-.9-3.2,3.3,3.3,0,0,0-2.3-.9,3.3,3.3,0,0,0-2.2.9A3.8,3.8,0,0,0,5.6,35.1Z" fill="#154273"/>
  </g>
</svg>
