<svg id="Layer_1" data-name="Layer 1" xmlns="http://www.w3.org/2000/svg" width="72" height="48" viewBox="0 0 72 48">
  <title>flow-direction-o</title>
  <g>
    <g>
      <path d="M68.9,24c-3.3,0-3.3-4-6.6-4s-3.4,4-6.7,4-3.3-4-6.6-4-3.4,4-6.7,4-3.3-4-6.7-4-3.3,4-6.6,4" fill="none" stroke="#59a9db" stroke-miterlimit="10" stroke-width="3"/>
      <g>
        <line x1="29" y1="24" x2="25.1" y2="24" fill="none" stroke="#59a9db" stroke-miterlimit="10" stroke-width="3"/>
        <polygon points="26.4 19.5 18.7 24 26.4 28.5 26.4 19.5" fill="#59a9db"/>
      </g>
    </g>
    <g style="isolation: isolate">
      <path d="M3.9,23.3a5.9,5.9,0,0,1,1.8-4.6,5.9,5.9,0,0,1,4-1.6,5.6,5.6,0,0,1,3.9,1.5,5.8,5.8,0,0,1,1.6,4.5,5.8,5.8,0,0,1-1.7,4.6,5.9,5.9,0,0,1-4,1.6,5.6,5.6,0,0,1-3.9-1.5A5.8,5.8,0,0,1,3.9,23.3Zm2.5-.2a4.3,4.3,0,0,0,.9,3.1,3,3,0,0,0,2.3,1,3.3,3.3,0,0,0,2.2-.9,4,4,0,0,0,1-3,4.7,4.7,0,0,0-.9-3.2,3.3,3.3,0,0,0-2.3-.9,3.1,3.1,0,0,0-2.2.9A3.8,3.8,0,0,0,6.4,23.1Z" fill="#154273"/>
    </g>
  </g>
</svg>
