<svg id="Layer_1" data-name="Layer 1" xmlns="http://www.w3.org/2000/svg" viewBox="0 0 72 72">
  <title>network-direction-n</title>
  <text transform="translate(30 18.3)" font-size="18" font-family="RijksoverheidSansWebText-Bold, RijksoverheidSansWebText" font-weight="700" style="isolation: isolate">N</text>
  <g>
    <line x1="36" y1="60" x2="36" y2="33.9" fill="none" stroke="#999" stroke-miterlimit="10" stroke-width="2"/>
    <g>
      <path d="M39.8,59.7A3.8,3.8,0,1,1,36,56,3.8,3.8,0,0,1,39.8,59.7Z" fill="#fff"/>
      <path d="M40.3,59.7A4.3,4.3,0,1,0,36,64a4.3,4.3,0,0,0,4.3-4.3Zm-7.6,0a3.3,3.3,0,0,1,6.6,0,3.3,3.3,0,0,1-6.6,0Z" fill="#999"/>
    </g>
    <polygon points="36 24 41.7 37.9 36 34.6 30.3 37.9 36 24" fill="#999"/>
  </g>
</svg>
