<svg id="Layer_1" data-name="Layer 1" xmlns="http://www.w3.org/2000/svg" viewBox="0 0 72 72">
  <title>network-direction-o</title>
  <text transform="translate(54.4 41.1)" font-size="18" font-family="RijksoverheidSansWebText-Bold, RijksoverheidSansWebText" font-weight="700" style="isolation: isolate">O</text>
  <g>
    <line x1="13" y1="36" x2="39.1" y2="36" fill="none" stroke="#999" stroke-miterlimit="10" stroke-width="2"/>
    <g>
      <path d="M13.3,39.8A3.8,3.8,0,1,1,17,36,3.8,3.8,0,0,1,13.3,39.8Z" fill="#fff"/>
      <path d="M13.3,40.3a4.3,4.3,0,0,0,0-8.6,4.3,4.3,0,0,0,0,8.6Zm0-7.6a3.3,3.3,0,0,1,0,6.6,3.3,3.3,0,0,1,0-6.6Z" fill="#999"/>
    </g>
    <polygon points="49 36 35.1 41.7 38.4 36 35.1 30.3 49 36" fill="#999"/>
  </g>
</svg>
