<svg id="Layer_1" data-name="Layer 1" xmlns="http://www.w3.org/2000/svg" width="72" height="72" viewBox="0 0 72 72">
  <title>network-direction-z</title>
  <g style="isolation: isolate">
    <path d="M32.2,56.1V54.2H40V56l-5.4,8h5.5v2H31.9V64.1l5.4-7.9H32.2Z"/>
  </g>
  <g>
    <line x1="36" y1="12" x2="36" y2="38.1" fill="none" stroke="#999" stroke-miterlimit="10" stroke-width="2"/>
    <g>
      <path d="M32.2,12.3A3.8,3.8,0,1,1,36,16,3.8,3.8,0,0,1,32.2,12.3Z" fill="#fff"/>
      <path d="M31.7,12.3a4.3,4.3,0,0,0,8.6,0,4.3,4.3,0,1,0-8.6,0Zm7.6,0a3.3,3.3,0,0,1-6.6,0,3.3,3.3,0,1,1,6.6,0Z" fill="#999"/>
    </g>
    <polygon points="36 48 30.3 34.1 36 37.4 41.7 34.1 36 48" fill="#999"/>
  </g>
</svg>
