<svg id="Layer_1" data-name="Layer 1" xmlns="http://www.w3.org/2000/svg" width="72" height="72" viewBox="0 0 72 72">
  <title>network-direction-o</title>
  <g style="isolation: isolate">
    <path d="M55.2,35.3A5.7,5.7,0,0,1,61,29.1a5.6,5.6,0,0,1,3.9,1.5,5.8,5.8,0,0,1,1.6,4.5,5.7,5.7,0,0,1-5.7,6.2,5.7,5.7,0,0,1-4-1.5A5.8,5.8,0,0,1,55.2,35.3Zm2.5-.2a4.3,4.3,0,0,0,.9,3.1,2.9,2.9,0,0,0,2.3,1,3,3,0,0,0,2.2-1,4,4,0,0,0,1-2.9,4.7,4.7,0,0,0-1-3.2,3.1,3.1,0,0,0-2.2-.9,3.3,3.3,0,0,0-2.3.9A4.1,4.1,0,0,0,57.7,35.1Z"/>
  </g>
  <path d="M19.1,15.5l4,4v34l-4,3m15-.3-4-2.9V19.4l4-2.9" fill="none" stroke="#673327" stroke-miterlimit="10" stroke-width="2"/>
  <polygon points="21.1 35.5 14.8 35.5 16.6 31.3 4.3 36.5 16.6 41.7 14.8 37.5 21.1 37.5 21.1 35.5" fill="#999"/>
  <rect x="32.1" y="35.5" width="13.2" height="2" fill="#999"/>
  <circle cx="45" cy="36.5" r="3.8" fill="#fff"/>
  <path d="M49.3,36.5h0A4.3,4.3,0,1,1,45,32.2,4.3,4.3,0,0,1,49.3,36.5ZM45,39.8h.1a3.2,3.2,0,0,0,3.2-3.3A3.3,3.3,0,0,0,45,33.2a3.3,3.3,0,0,0,0,6.6Z" fill="#999"/>
</svg>
