<svg id="Layer_1" data-name="Layer 1" xmlns="http://www.w3.org/2000/svg" viewBox="0 0 72 72">
  <title>network-direction-w</title>
  <text transform="translate(3.2 41.1)" font-size="18" font-family="RijksoverheidSansWebText-Bold, RijksoverheidSansWebText" font-weight="700" style="isolation: isolate">W</text>
  <g>
    <line x1="59" y1="36" x2="32.9" y2="36" fill="none" stroke="#999" stroke-miterlimit="10" stroke-width="2"/>
    <g>
      <path d="M58.7,32.2A3.8,3.8,0,1,1,55,36,3.8,3.8,0,0,1,58.7,32.2Z" fill="#fff"/>
      <path d="M58.7,31.7A4.3,4.3,0,1,0,63,36a4.3,4.3,0,0,0-4.3-4.3Zm0,7.6a3.3,3.3,0,0,1,0-6.6,3.3,3.3,0,0,1,0,6.6Z" fill="#999"/>
    </g>
    <polygon points="23 36 36.9 30.3 33.6 36 36.9 41.7 23 36" fill="#999"/>
  </g>
</svg>
