<svg id="42877ad3-49cb-425a-985e-05be6911fe15" data-name="Layer 1" xmlns="http://www.w3.org/2000/svg" viewBox="0 0 72 72">
  <title>network-direction-w</title>
  <g style="isolation: isolate">
    <path d="M6.5,41.1,3.4,29.3H6.1l2.2,9.6h.1l2.3-7.2-.8-2.4h2.5l2.8,9.6h.1l2.2-9.6h2.4l-3,11.8H13.6l-1.9-6.6h0l-2,6.6Z"/>
  </g>
  <path d="M54,56.5l-4-4v-34l4-3m-15,.3,4,2.9V52.6l-4,2.9" fill="none" stroke="#673327" stroke-miterlimit="10" stroke-width="2"/>
  <polygon points="56.5 30.3 58.2 34.5 52 34.5 52 36.5 58.2 36.5 56.5 40.7 68.8 35.5 56.5 30.3" fill="#999"/>
  <rect x="27.8" y="34.5" width="13.2" height="2" fill="#999"/>
  <circle cx="28" cy="35.5" r="3.8" fill="#fff"/>
  <path d="M23.8,35.5h0A4.3,4.3,0,1,1,28,39.8,4.2,4.2,0,0,1,23.8,35.5ZM28,32.2h0a3.2,3.2,0,0,0-3.2,3.3A3.2,3.2,0,0,0,28,38.8a3.3,3.3,0,1,0,0-6.6Z" fill="#999"/>
</svg>
