<svg id="Layer_1" data-name="Layer 1" xmlns="http://www.w3.org/2000/svg" width="72" height="72" viewBox="0 0 72 72">
  <title>network-direction-o</title>
  <g style="isolation: isolate">
    <path d="M55.2,35.3A5.7,5.7,0,0,1,61,29.1a5.6,5.6,0,0,1,3.9,1.5,5.8,5.8,0,0,1,1.6,4.5,5.7,5.7,0,0,1-5.7,6.2,5.7,5.7,0,0,1-4-1.5A5.8,5.8,0,0,1,55.2,35.3Zm2.5-.2a4.3,4.3,0,0,0,.9,3.1,2.9,2.9,0,0,0,2.3,1,3,3,0,0,0,2.2-1,4,4,0,0,0,1-2.9,4.7,4.7,0,0,0-1-3.2,3.1,3.1,0,0,0-2.2-.9,3.3,3.3,0,0,0-2.3.9A4.1,4.1,0,0,0,57.7,35.1Z"/>
  </g>
  <g>
    <line x1="13" y1="36" x2="39.1" y2="36" fill="none" stroke="#999" stroke-miterlimit="10" stroke-width="2"/>
    <g>
      <path d="M13.3,39.8A3.8,3.8,0,1,1,17,36,3.8,3.8,0,0,1,13.3,39.8Z" fill="#fff"/>
      <path d="M13.3,40.3a4.3,4.3,0,0,0,0-8.6,4.3,4.3,0,0,0,0,8.6Zm0-7.6a3.3,3.3,0,0,1,0,6.6,3.3,3.3,0,0,1,0-6.6Z" fill="#999"/>
    </g>
    <polygon points="49 36 35.1 41.7 38.4 36 35.1 30.3 49 36" fill="#999"/>
  </g>
</svg>
