<svg data-type="draaideur-ro" height="480" viewBox="0 0 216 480" width="216" xmlns="http://www.w3.org/2000/svg" xmlns:xlink="http://www.w3.org/1999/xlink"><defs><symbol id="d8ecbb23" viewBox="0 0 15 15"><circle cx="7.5" cy="7.5" r="6" stroke="#474747" stroke-miterlimit="10" stroke-width="3"/></symbol></defs><title>draaideur</title><path d="M0 312V168h12v12h12v-12h192v144" fill="#d9ebf7"/><path d="M0 312h31m185 0h-24" fill="none" stroke="#9fceea" stroke-miterlimit="10" stroke-width="3"/><path d="M192 324H33l-.1-8.1L26 317v-6.5h166z" fill="#d9ebf7"/><path d="M192 312v12H33.6" fill="none" stroke="#7d7d7d" stroke-linecap="square" stroke-miterlimit="10" stroke-width="3"/><path d="M26 316h12V170H26z" fill="#ffb612" stroke="#000" stroke-linecap="round" stroke-linejoin="round"/><path d="M0 168h12" fill="none" stroke="#9fceea" stroke-miterlimit="10" stroke-width="3"/><path d="M12 168v12h12v-12m24 0H24" fill="none" stroke="#7d7d7d" stroke-linecap="square" stroke-miterlimit="10" stroke-width="3"/><path d="M216 168H48" fill="none" stroke="#9fceea" stroke-miterlimit="10" stroke-width="3"/><use height="15" transform="matrix(1 0 0 -1 24.5 325.5)" width="15" xlink:href="#d8ecbb23"/><text font-family="sans-serif" font-size="36" text-anchor="middle" x="108" y="420"/><g>
        <path d="M36 72h72v336H36z" fill="#e6e6e6" opacity=".9" style="isolation:isolate"/>
        <path d="M36 72v336m72-336v336" fill="none" stroke="#999" stroke-miterlimit="10" stroke-width="2"/>
        <path d="M15 102l18 18v240l-18 18M129 102l-18 18v240l18 18" fill="none" stroke="#535353" stroke-miterlimit="10" stroke-width="4"/>
    </g></svg>