<svg data-type="draaideur-lb" height="480" viewBox="0 0 216 480" width="216" xmlns="http://www.w3.org/2000/svg" xmlns:xlink="http://www.w3.org/1999/xlink"><defs><symbol id="f5e2407e" viewBox="0 0 15 15"><circle cx="7.5" cy="7.5" r="6" stroke="#474747" stroke-miterlimit="10" stroke-width="3"/></symbol></defs><title>draaideur</title><path d="M216 168v144h-12v-12h-12v12H0V168" fill="#d9ebf7"/><path d="M216 168h-31M0 168h24" fill="none" stroke="#9fceea" stroke-miterlimit="10" stroke-width="3"/><path d="M24 156h159l.1 8.1 6.9-1.1v6.5H24z" fill="#d9ebf7"/><path d="M24 168v-12h158.4" fill="none" stroke="#7d7d7d" stroke-linecap="square" stroke-miterlimit="10" stroke-width="3"/><path d="M190 164h-12v146h12z" fill="#ffb612" stroke="#000" stroke-linecap="round" stroke-linejoin="round"/><path d="M216 312h-12" fill="none" stroke="#9fceea" stroke-miterlimit="10" stroke-width="3"/><path d="M204 312v-12h-12v12m-24 0h24" fill="none" stroke="#7d7d7d" stroke-linecap="square" stroke-miterlimit="10" stroke-width="3"/><path d="M0 312h168" fill="none" stroke="#9fceea" stroke-miterlimit="10" stroke-width="3"/><use height="15" transform="matrix(-1 0 0 1 191.5 154.5)" width="15" xlink:href="#f5e2407e"/><text font-family="sans-serif" font-size="36" text-anchor="middle" x="108" y="420"/><g>
        <path d="M36 72h72v336H36z" fill="#e6e6e6" opacity=".9" style="isolation:isolate"/>
        <path d="M36 72v336m72-336v336" fill="none" stroke="#999" stroke-miterlimit="10" stroke-width="2"/>
        <path d="M15 102l18 18v240l-18 18M129 102l-18 18v240l18 18" fill="none" stroke="#535353" stroke-miterlimit="10" stroke-width="4"/>
    </g></svg>