<svg data-type="rol-storm" height="480" viewBox="0 0 72 480" width="72" xmlns="http://www.w3.org/2000/svg">
    <title>rol</title>
    <path d="M24 6v162H0v144h24v12h24v-12h24V168H48V6z" fill="#d9ebf7"/>
    <path d="M12 168H0" fill="none" stroke="#9fceea" stroke-miterlimit="10" stroke-width="3"/>
    <path d="M60 168H48V6H24v162H12" fill="none" stroke="#7d7d7d" stroke-miterlimit="10" stroke-width="3"/>
    <path d="M72 168H60m0 144h12" fill="none" stroke="#9fceea" stroke-miterlimit="10" stroke-width="3"/>
    <path d="M12 312h12v12h24v-12h12" fill="none" stroke="#7d7d7d" stroke-miterlimit="10" stroke-width="3"/>
    <path d="M0 312h12" fill="none" stroke="#9fceea" stroke-miterlimit="10" stroke-width="3"/>
    <path d="M29 161h14v158H29z" fill="#ca005d" stroke="#000" stroke-miterlimit="10"/>
    <text font-family="sans-serif" font-size="36" text-anchor="middle" x="36" y="420"/>
    <text class="hw" font-family="sans-serif" font-size="26" style="fill: #ca005d; font-weight: bold" text-anchor="middle" x="36" y="420">HW</text>
<g>
        <path d="M36 72h72v336H36z" fill="#e6e6e6" opacity=".9" style="isolation:isolate"/>
        <path d="M36 72v336m72-336v336" fill="none" stroke="#999" stroke-miterlimit="10" stroke-width="2"/>
        <path d="M15 102l18 18v240l-18 18M129 102l-18 18v240l18 18" fill="none" stroke="#535353" stroke-miterlimit="10" stroke-width="4"/>
    </g></svg>