<svg data-type="rol-o" height="480" viewBox="0 0 72 480" width="72" xmlns="http://www.w3.org/2000/svg"><title>rol</title><path d="M24 474V312H0V168h24v-12h24v12h24v144H48v162z" fill="#d9ebf7"/><path d="M12 312H0" fill="none" stroke="#9fceea" stroke-miterlimit="10" stroke-width="3"/><path d="M60 312H48v162H24V312H12" fill="none" stroke="#7d7d7d" stroke-miterlimit="10" stroke-width="3"/><path d="M72 312H60m0-144h12" fill="none" stroke="#9fceea" stroke-miterlimit="10" stroke-width="3"/><path d="M12 168h12v-12h24v12h12" fill="none" stroke="#7d7d7d" stroke-miterlimit="10" stroke-width="3"/><path d="M0 168h12" fill="none" stroke="#9fceea" stroke-miterlimit="10" stroke-width="3"/><path d="M29 319h14V161H29z" fill="#ffb612" stroke="#000" stroke-miterlimit="10"/><text font-family="sans-serif" font-size="36" text-anchor="middle" x="36" y="420"/><g>
        <path d="M36 72h72v336H36z" fill="#e6e6e6" opacity=".9" style="isolation:isolate"/>
        <path d="M36 72v336m72-336v336" fill="none" stroke="#999" stroke-miterlimit="10" stroke-width="2"/>
        <path d="M15 102l18 18v240l-18 18M129 102l-18 18v240l18 18" fill="none" stroke="#535353" stroke-miterlimit="10" stroke-width="4"/>
    </g></svg>