<svg data-type="kamerkolk-kop-q" height="480" viewBox="0 0 72 480" width="72" xmlns="http://www.w3.org/2000/svg"><title>bajonetkolk-kop</title><path d="M0 312V168h72v240H24v-96z" fill="#d9ebf7"/><path d="M72 408H24v-96H0m0-144h72" fill="none" stroke="#9fceea" stroke-miterlimit="10" stroke-width="3"/><text font-family="sans-serif" font-size="36" text-anchor="middle" x="36" y="420"/><g>
        <path d="M36 72h72v336H36z" fill="#e6e6e6" opacity=".9" style="isolation:isolate"/>
        <path d="M36 324v84m72-84v84" fill="none" stroke="#999" stroke-miterlimit="10" stroke-width="2"/>
        <path d="M33 324v36l-18 18" fill="none" stroke="#535353" stroke-miterlimit="10" stroke-width="4"/>
        <path d="M33 174v138" fill="none" stroke="#535353" stroke-dasharray="12,12" stroke-miterlimit="10" stroke-width="4"/>
        <path d="M15 102l18 18v36" fill="none" stroke="#535353" stroke-miterlimit="10" stroke-width="4"/>
        <path d="M36 174v138" fill="none" stroke="#999" stroke-dasharray="12 12" stroke-miterlimit="10" stroke-width="2"/>
        <path d="M36 72v84M108 72v84" fill="none" stroke="#999" stroke-miterlimit="10" stroke-width="2"/>
        <path d="M111 324v36l18 18" fill="none" stroke="#535353" stroke-miterlimit="10" stroke-width="4"/>
        <path d="M111 174v138" fill="none" stroke="#535353" stroke-dasharray="12 12" stroke-miterlimit="10" stroke-width="4"/>
        <path d="M129 102l-18 18v36" fill="none" stroke="#535353" stroke-miterlimit="10" stroke-width="4"/>
        <path d="M108 174v138" fill="none" stroke="#999" stroke-dasharray="12 12" stroke-miterlimit="10" stroke-width="2"/>
    </g></svg>