<svg height="480" viewBox="0 0 216 480" width="216" xmlns="http://www.w3.org/2000/svg">
    <title>draaideur-ro-hwk</title>
    <path d="M0 312V168h12v12h12v-12h192v144" fill="#d9ebf7"/>
    <path d="M0 312h31m185 0h-24" fill="none" stroke="#9fceea" stroke-miterlimit="10" stroke-width="3"/>
    <path d="M192 324H33l-.1-8.1L26 317v-6.5h166z" fill="#d9ebf7"/>
    <path d="M192 312v12H33.6" fill="none" stroke="#7d7d7d" stroke-linecap="square" stroke-miterlimit="10" stroke-width="3"/>
    <path d="M26 316h12V170H26z" fill="#ffb612" stroke="#000" stroke-linecap="round" stroke-linejoin="round"/>
    <path d="M0 168h12" fill="none" stroke="#9fceea" stroke-miterlimit="10" stroke-width="3"/>
    <path d="M12 168v12h12v-12m24 0H24" fill="none" stroke="#7d7d7d" stroke-linecap="square" stroke-miterlimit="10" stroke-width="3"/>
    <path d="M216 168H48" fill="none" stroke="#9fceea" stroke-miterlimit="10" stroke-width="3"/>
    <path d="M32 170.5v143" fill="none" stroke="#ca005d" stroke-width="4"/>
    <circle cx="7.5" cy="7.5" r="6" stroke="#474747" stroke-miterlimit="10" stroke-width="3" transform="matrix(1 0 0 -1 24.5 325.5)"/>
    <text class="hw" fill="#ca005d" font-family="sans-serif" font-size="26" font-weight="700" text-anchor="middle" x="106" y="420">
        HWK
    </text>
    <text font-family="sans-serif" font-size="36" text-anchor="middle" x="108" y="420"/>
</svg>