<svg height="480" id="svg2" version="1.1" viewBox="0 0 120 480" width="120" xmlns="http://www.w3.org/2000/svg" xmlns:cc="http://creativecommons.org/ns#" xmlns:dc="http://purl.org/dc/elements/1.1/" xmlns:rdf="http://www.w3.org/1999/02/22-rdf-syntax-ns#" xmlns:svg="http://www.w3.org/2000/svg">
          <metadata id="metadata18">
                    <rdf:RDF>
                              <cc:Work rdf:about="">
                                        <dc:format>image/svg+xml</dc:format>
                                        <dc:type rdf:resource="http://purl.org/dc/dcmitype/StillImage"/>
                                        <dc:title>
        wegdek-over-sluishoofd
    </dc:title>
                              </cc:Work>
                    </rdf:RDF>
          </metadata>
          <defs id="defs16"/>
          <title id="title4">weg-over-hoofd</title>
          <g class="bridge" id="g6">
                    <path d="m 39,242 l 0,166 l 42,0 l 0,-166 z m 19,23 l 4,0 l 0,24 l -4,0 z m 0,48 l 4,0 l 0,24 l -4,0 z m 0,48 l 4,0 l 0,24 l -4,0 z" id="path8" style="opacity:0.5;isolation:isolate"/>
                    <path d="m 39,72 l 0,165 l 42,0 l 0,-165 z m 19,22.52 l 4,0 l 0,23.98 l -4,0 z m 0,47.98 l 4,0 l 0,24 l -4,0 z m 0,48 l 4,0 l 0,24 l -4,0 z" id="path8-0" style="opacity:0.5;isolation:isolate"/>
                    <path d="m 58,214.5 l 4,0 l 0,-24 l -4,0 z m 0,-48 l 4,0 l 0,-24 l -4,0 z m 0,-48 l 4,0 l 0,-24 l -4,0 z" id="path4175" style="color:#000000;font-style:normal;font-variant:normal;font-weight:normal;font-stretch:normal;font-size:medium;line-height:normal;font-family:sans-serif;text-indent:0;text-align:start;text-decoration:none;text-decoration-line:none;text-decoration-style:solid;text-decoration-color:#000000;letter-spacing:normal;word-spacing:normal;text-transform:none;direction:ltr;block-progression:tb;writing-mode:lr-tb;baseline-shift:baseline;text-anchor:start;white-space:normal;clip-rule:nonzero;display:inline;overflow:visible;visibility:visible;opacity:0.5;isolation:auto;mix-blend-mode:normal;color-interpolation:sRGB;color-interpolation-filters:linearRGB;solid-color:#000000;solid-opacity:1;fill:#ffffff;fill-opacity:1;fill-rule:evenodd;stroke:none;stroke-width:4;stroke-linecap:butt;stroke-linejoin:miter;stroke-miterlimit:4;stroke-dasharray:24, 24;stroke-dashoffset:0;stroke-opacity:1;color-rendering:auto;image-rendering:auto;shape-rendering:auto;text-rendering:auto;enable-background:accumulate"/>
                    <path d="m 58,385 l 4,0 l 0,-24 l -4,0 z m 0,-48 l 4,0 l 0,-24 l -4,0 z m 0,-48 l 4,0 l 0,-24 l -4,0 z" id="path4163" style="color:#000000;font-style:normal;font-variant:normal;font-weight:normal;font-stretch:normal;font-size:medium;line-height:normal;font-family:sans-serif;text-indent:0;text-align:start;text-decoration:none;text-decoration-line:none;text-decoration-style:solid;text-decoration-color:#000000;letter-spacing:normal;word-spacing:normal;text-transform:none;direction:ltr;block-progression:tb;writing-mode:lr-tb;baseline-shift:baseline;text-anchor:start;white-space:normal;clip-rule:nonzero;display:inline;overflow:visible;visibility:visible;opacity:0.5;isolation:auto;mix-blend-mode:normal;color-interpolation:sRGB;color-interpolation-filters:linearRGB;solid-color:#000000;solid-opacity:1;fill:#ffffff;fill-opacity:1;fill-rule:evenodd;stroke:none;stroke-width:4;stroke-linecap:butt;stroke-linejoin:miter;stroke-miterlimit:4;stroke-dasharray:24, 24;stroke-dashoffset:0;stroke-opacity:1;color-rendering:auto;image-rendering:auto;shape-rendering:auto;text-rendering:auto;enable-background:accumulate"/>
          </g>
</svg>