<svg data-type="komkolk-kop-rechts" height="480" viewBox="0 0 72 480" width="72" xmlns="http://www.w3.org/2000/svg"><title>komkolk-kop</title><path d="M12 120c26.51 0 48 21.5 48 48h12v144H60c0 26.5-21.49 48-48 48H0V120z" fill="#d9ebf7"/><path d="M72 312H60c0 26.5-21.49 48-48 48H0m72-191.7H60c0-26.5-21.49-48-48-48H0" fill="none" stroke="#9fceea" stroke-miterlimit="10" stroke-width="3"/><text font-family="sans-serif" font-size="36" text-anchor="middle" x="36" y="420"/><g>
        <path d="M36 72h72v336H36z" fill="#e6e6e6" opacity=".9" style="isolation:isolate"/>
        <path d="M36 72v336m72-336v336" fill="none" stroke="#999" stroke-miterlimit="10" stroke-width="2"/>
        <path d="M15 102l18 18v240l-18 18M129 102l-18 18v240l18 18" fill="none" stroke="#535353" stroke-miterlimit="10" stroke-width="4"/>
    </g></svg>