<svg xmlns="http://www.w3.org/2000/svg" xmlns:xlink="http://www.w3.org/1999/xlink" viewBox="0 0 216 480" height="480" width="216"><defs><symbol viewBox="0 0 15 15" id="a"><circle stroke-width="3" stroke-miterlimit="10" stroke="#474747" r="6" cy="7.5" cx="7.5"/></symbol></defs><title>draaideur</title><path d="M216 168v144h-12v-12h-12v12H0V168" fill="#d9ebf7"/><path stroke-miterlimit="10" d="M216 168h-31M0 168h24" fill="none" stroke="#9fceea" stroke-width="3"/><path d="M24 156h159l.1 8.1 6.9-1.1v6.5H24z" fill="#d9ebf7"/><path stroke-miterlimit="10" d="M24 168v-12h158.4" fill="none" stroke="#7d7d7d" stroke-width="3" stroke-linecap="square"/><path d="M190 164h-12v146h12z" fill="#ffb612" stroke="#000" stroke-linecap="round" stroke-linejoin="round"/><path stroke-miterlimit="10" d="M216 312h-12" fill="none" stroke="#9fceea" stroke-width="3"/><path stroke-miterlimit="10" d="M204 312v-12h-12v12m-24 0h24" fill="none" stroke="#7d7d7d" stroke-width="3" stroke-linecap="square"/><path stroke-miterlimit="10" d="M0 312h168" fill="none" stroke="#9fceea" stroke-width="3"/><use width="15" height="15" transform="matrix(-1 0 0 1 191.5 154.5)" xlink:href="#a"/></svg>