<svg xmlns="http://www.w3.org/2000/svg" xmlns:xlink="http://www.w3.org/1999/xlink" viewBox="0 0 216 480" height="480" width="216"><defs><symbol viewBox="0 0 15 15"  id="a"><circle stroke-width="3" stroke-miterlimit="10" stroke="#474747" r="6" cy="7.5" cx="7.5"/></symbol></defs><title>draaideur</title><path d="M0 312V168h12v12h12v-12h192v144" fill="#d9ebf7"/><path stroke-miterlimit="10" d="M0 312h31m185 0h-24" fill="none" stroke="#9fceea" stroke-width="3"/><path d="M192 324H33l-.1-8.1L26 317v-6.5h166z" fill="#d9ebf7"/><path stroke-miterlimit="10" d="M192 312v12H33.6" fill="none" stroke="#7d7d7d" stroke-width="3" stroke-linecap="square"/><path d="M26 316h12V170H26z" fill="#ffb612" stroke="#000" stroke-linecap="round" stroke-linejoin="round"/><path stroke-miterlimit="10" d="M0 168h12" fill="none" stroke="#9fceea" stroke-width="3"/><path stroke-miterlimit="10" d="M12 168v12h12v-12m24 0H24" fill="none" stroke="#7d7d7d" stroke-width="3" stroke-linecap="square"/><path stroke-miterlimit="10" d="M216 168H48" fill="none" stroke="#9fceea" stroke-width="3"/><use width="15" height="15" transform="matrix(1 0 0 -1 24.5 325.5)" xlink:href="#a"/></svg>