<svg xmlns="http://www.w3.org/2000/svg" width="216" viewBox="0 0 216 480" height="480">
    <title>
        draaideur-rb-hwk
    </title>
    <path fill="#d9ebf7" d="M0 168v144h12v-12h12v12h192V168"/>
    <path stroke-width="3" stroke-miterlimit="10" stroke="#9fceea" fill="none" d="M0 168h31m185 0h-24"/>
    <path fill="#d9ebf7" d="M192 156H33l-.1 8.1L26 163v6.5h166z"/>
    <path stroke-width="3" stroke-miterlimit="10" stroke-linecap="square" stroke="#7d7d7d" fill="none" d="M192 168v-12H33.6"/>
    <path stroke-linejoin="round" stroke-linecap="round" stroke="#000" fill="#ffb612" d="M26 164h12v146H26z"/>
    <path stroke-width="4" stroke="#ca005d" fill="none" d="M32 166.5v143"/>
    <path stroke-width="3" stroke-miterlimit="10" stroke="#9fceea" fill="none" d="M0 312h12"/>
    <path stroke-width="3" stroke-miterlimit="10" stroke-linecap="square" stroke="#7d7d7d" fill="none" d="M12 312v-12h12v12m24 0H24"/>
    <path stroke-width="3" stroke-miterlimit="10" stroke="#9fceea" fill="none" d="M216 312H48"/>
    <circle cx="7.5" cy="7.5" r="6" stroke-miterlimit="10" stroke="#474747" stroke-width="3" transform="translate(24.5 154.5)"/>
    <text y="420" x="106" text-anchor="middle" font-weight="700" font-size="26" font-family="sans-serif" fill="#ca005d" class="hw">
        HWK
    </text>
    <text y="420" x="108" text-anchor="middle" font-size="36" font-family="sans-serif"/>
</svg>
