<svg xmlns="http://www.w3.org/2000/svg" width="216" viewBox="0 0 216 480" height="480">
    <title>
        draaideur-ro
    </title>
    <path fill="#d9ebf7" d="M0 312V168h12v12h12v-12h192v144"/>
    <path stroke-width="3" stroke-miterlimit="10" stroke="#9fceea" fill="none" d="M0 312h31m185 0h-24"/>
    <path fill="#d9ebf7" d="M192 324H33l-.1-8.1L26 317v-6.5h166z"/>
    <path stroke-width="3" stroke-miterlimit="10" stroke-linecap="square" stroke="#7d7d7d" fill="none" d="M192 312v12H33.6"/>
    <path stroke-linejoin="round" stroke-linecap="round" stroke="#000" fill="#ffb612" d="M26 316h12V170H26z"/>
    <path stroke-width="3" stroke-miterlimit="10" stroke="#9fceea" fill="none" d="M0 168h12"/>
    <path stroke-width="3" stroke-miterlimit="10" stroke-linecap="square" stroke="#7d7d7d" fill="none" d="M12 168v12h12v-12m24 0H24"/>
    <path stroke-width="3" stroke-miterlimit="10" stroke="#9fceea" fill="none" d="M216 168H48"/>
    <circle cx="7.5" cy="7.5" r="6" stroke-miterlimit="10" stroke="#474747" stroke-width="3" transform="matrix(1 0 0 -1 24.5 325.5)"/>
    <text y="420" x="108" text-anchor="middle" font-size="36" font-family="sans-serif"/>
</svg>
