<svg xmlns="http://www.w3.org/2000/svg" width="216" viewBox="0 0 216 480" height="480">
    <title>
        draaideur-lo-hwk
    </title>
    <path fill="#d9ebf7" d="M216 312V168h-12v12h-12v-12H0v144"/>
    <path stroke-width="3" stroke-miterlimit="10" stroke="#9fceea" fill="none" d="M216 312h-31M0 312h24"/>
    <path fill="#d9ebf7" d="M24 324h159l.1-8.1 6.9 1.1v-6.5H24z"/>
    <path stroke-width="3" stroke-miterlimit="10" stroke-linecap="square" stroke="#7d7d7d" fill="none" d="M24 312v12h158.4"/>
    <path stroke-linejoin="round" stroke-linecap="round" stroke="#000" fill="#ffb612" d="M190 316h-12V170h12z"/>
    <path stroke-width="3" stroke-miterlimit="10" stroke="#9fceea" fill="none" d="M216 168h-12"/>
    <path stroke-width="3" stroke-miterlimit="10" stroke-linecap="square" stroke="#7d7d7d" fill="none" d="M204 168v12h-12v-12m-24 0h24"/>
    <path stroke-width="3" stroke-miterlimit="10" stroke="#9fceea" fill="none" d="M0 168h168"/>
    <path stroke-width="4" stroke="#ca005d" fill="none" d="M184 170.5v143"/>
    <circle cx="7.5" cy="7.5" r="6" stroke-miterlimit="10" stroke="#474747" stroke-width="3" transform="rotate(180 95.75 162.75)"/>
    <text y="420" x="106" text-anchor="middle" font-weight="700" font-size="26" font-family="sans-serif" fill="#ca005d" class="hw">
        HWK
    </text>
    <text y="420" x="108" text-anchor="middle" font-size="36" font-family="sans-serif"/>
</svg>
