<svg xmlns="http://www.w3.org/2000/svg" width="216" viewBox="0 0 216 480" height="480">
    <title>
        draaideur-lb
    </title>
    <path fill="#d9ebf7" d="M216 168v144h-12v-12h-12v12H0V168"/>
    <path stroke-width="3" stroke-miterlimit="10" stroke="#9fceea" fill="none" d="M216 168h-31M0 168h24"/>
    <path fill="#d9ebf7" d="M24 156h159l.1 8.1 6.9-1.1v6.5H24z"/>
    <path stroke-width="3" stroke-miterlimit="10" stroke-linecap="square" stroke="#7d7d7d" fill="none" d="M24 168v-12h158.4"/>
    <path stroke-linejoin="round" stroke-linecap="round" stroke="#000" fill="#ffb612" d="M190 164h-12v146h12z"/>
    <path stroke-width="3" stroke-miterlimit="10" stroke="#9fceea" fill="none" d="M216 312h-12"/>
    <path stroke-width="3" stroke-miterlimit="10" stroke-linecap="square" stroke="#7d7d7d" fill="none" d="M204 312v-12h-12v12m-24 0h24"/>
    <path stroke-width="3" stroke-miterlimit="10" stroke="#9fceea" fill="none" d="M0 312h168"/>
    <circle cx="7.5" cy="7.5" r="6" stroke-miterlimit="10" stroke="#474747" stroke-width="3" transform="matrix(-1 0 0 1 191.5 154.5)"/>
    <text y="420" x="108" text-anchor="middle" font-size="36" font-family="sans-serif"/>
</svg>
