<svg height="480" viewBox="0 0 216 480" width="216" xmlns="http://www.w3.org/2000/svg">
    <title>
        draaideur-linksonder-hwk
    </title>
    <path d="M0 168v144h12v-12h12v12h192V168" fill="#d9ebf7"/>
    <path d="M0 168h31m185 0h-24" fill="none" stroke="#9fceea" stroke-miterlimit="10" stroke-width="3"/>
    <path d="M192 156H33l-.1 8.1L26 163v6.5h166z" fill="#d9ebf7"/>
    <path d="M192 168v-12H33.6" fill="none" stroke="#7d7d7d" stroke-linecap="square" stroke-miterlimit="10" stroke-width="3"/>
    <path d="M26 164h12v146H26z" fill="#ffb612" stroke="#000" stroke-linecap="round" stroke-linejoin="round"/>
    <path d="M32 166.5v143" fill="none" stroke="#ca005d" stroke-width="4"/>
    <path d="M0 312h12" fill="none" stroke="#9fceea" stroke-miterlimit="10" stroke-width="3"/>
    <path d="M12 312v-12h12v12m24 0H24" fill="none" stroke="#7d7d7d" stroke-linecap="square" stroke-miterlimit="10" stroke-width="3"/>
    <path d="M216 312H48" fill="none" stroke="#9fceea" stroke-miterlimit="10" stroke-width="3"/>
    <circle cx="7.5" cy="7.5" r="6" stroke="#474747" stroke-miterlimit="10" stroke-width="3" transform="translate(24.5 154.5)"/>
    <text font-family="sans-serif" font-size="36" text-anchor="middle" x="108" y="420"></text>
    <text class="hw" fill="#ca005d" font-family="sans-serif" font-size="26" font-weight="700" text-anchor="middle" x="106" y="420">
        HWK
    </text>
</svg>
