<svg height="480" viewBox="0 0 72 480" width="72" xmlns="http://www.w3.org/2000/svg"><title>hangroldeur-boven-hwk</title><path d="M0 312V168h24v-24h24v24h24v144H48v162H24V312z" fill="#d9ebf7"/><path d="M12 312H0" fill="none" stroke="#9fceea" stroke-miterlimit="10" stroke-width="3"/><path d="M60 312H48v162H24V312H12" fill="none" stroke="#7d7d7d" stroke-miterlimit="10" stroke-width="3"/><path d="M72 312H60m0-144h12" fill="none" stroke="#9fceea" stroke-miterlimit="10" stroke-width="3"/><path d="M12 168h12v-24h24v24h12" fill="none" stroke="#7d7d7d" stroke-miterlimit="10" stroke-width="3"/><path d="M0 168h12" fill="none" stroke="#9fceea" stroke-miterlimit="10" stroke-width="3"/><path d="M29 319h14V161H29z" fill="#ffb612" stroke="#154573" stroke-miterlimit="10"/><path d="M36 465.8V144" fill="none" stroke="#fff" stroke-miterlimit="10" stroke-width="5"/><circle cx="36" cy="-240" fill="#ca005d" r="3" stroke="#fff" stroke-miterlimit="10" stroke-width="1.5" transform="scale(1 -1)"/><circle cx="36" cy="-216" fill="#ca005d" r="3" stroke="#fff" stroke-miterlimit="10" stroke-width="1.5" transform="scale(1 -1)"/><circle cx="36" cy="-192" fill="#ca005d" r="3" stroke="#fff" stroke-miterlimit="10" stroke-width="1.5" transform="scale(1 -1)"/><circle cx="36" cy="-168" fill="#ca005d" r="3" stroke="#fff" stroke-miterlimit="10" stroke-width="1.5" transform="scale(1 -1)"/><circle cx="36" cy="-264" fill="#ca005d" r="3" stroke="#fff" stroke-miterlimit="10" stroke-width="1.5" transform="scale(1 -1)"/><circle cx="36" cy="-288" fill="#ca005d" r="3" stroke="#fff" stroke-miterlimit="10" stroke-width="1.5" transform="scale(1 -1)"/><circle cx="36" cy="-312" fill="#ca005d" r="3" stroke="#fff" stroke-miterlimit="10" stroke-width="1.5" transform="scale(1 -1)"/><path d="M36 468V144" fill="#154573" stroke="#ca005d" stroke-miterlimit="10" stroke-width="2"/><path d="M27 156.5h18v-18H27zM27 479h18v-18H27z"/><text class="hw" fill="#ca005d" font-family="sans-serif" font-size="26" font-weight="700" text-anchor="middle" x="35.857" y="436.843">HWK</text></svg>