<svg xmlns="http://www.w3.org/2000/svg" viewBox="0 0 72 480" height="480" width="72"><title>hangrol</title><path d="M0 168v144h24v24h24v-24h24V168H48V6H24v162z" fill="#d9ebf7"/><path stroke-miterlimit="10" fill="none" stroke="#9fceea" stroke-width="3" d="M12 168H0"/><path stroke-miterlimit="10" fill="none" stroke="#7d7d7d" stroke-width="3" d="M60 168H48V6H24v162H12"/><path stroke-miterlimit="10" fill="none" stroke="#9fceea" stroke-width="3" d="M72 168H60m0 144h12"/><path stroke-miterlimit="10" fill="none" stroke="#7d7d7d" stroke-width="3" d="M12 312h12v24h24v-24h12"/><path stroke-miterlimit="10" fill="none" stroke="#9fceea" stroke-width="3" d="M0 312h12"/><path stroke-miterlimit="10" fill="#ffb612" stroke="#154573" d="M29 161h14v158H29z"/><path stroke-miterlimit="10" fill="none" stroke="#fff" stroke-width="5" d="M36 14.2V336"/><circle cx="36" cy="240" r="3" stroke-miterlimit="10" fill="#154573" stroke="#fff" stroke-width="1.5"/><circle cx="36" cy="264" r="3" stroke-miterlimit="10" fill="#154573" stroke="#fff" stroke-width="1.5"/><circle cx="36" cy="288" r="3" stroke-miterlimit="10" fill="#154573" stroke="#fff" stroke-width="1.5"/><circle cx="36" cy="312" r="3" stroke-miterlimit="10" fill="#154573" stroke="#fff" stroke-width="1.5"/><circle cx="36" cy="216" r="3" stroke-miterlimit="10" fill="#154573" stroke="#fff" stroke-width="1.5"/><circle cx="36" cy="192" r="3" stroke-miterlimit="10" fill="#154573" stroke="#fff" stroke-width="1.5"/><circle cx="36" cy="168" r="3" stroke-miterlimit="10" fill="#154573" stroke="#fff" stroke-width="1.5"/><path stroke-miterlimit="10" fill="#154573" stroke="#154573" stroke-width="2" d="M36 12v324"/><path d="M27 323.5h18v18H27zM27 1h18v18H27z"/></svg>