<svg xmlns="http://www.w3.org/2000/svg" xmlns:xlink="http://www.w3.org/1999/xlink" viewBox="0 0 168 480" height="480" width="168"><defs><symbol viewBox="0 0 15 15"  id="a"><circle stroke-width="3" stroke-miterlimit="10" stroke="#474747" r="6" cy="7.5" cx="7.5"/></symbol><symbol viewBox="0 0 99 86"  id="b"><path fill="#d9ebf7" d="M97.5 13.5h-96v-12h90l6 12z"/><path stroke-miterlimit="10" stroke="#000" fill="#ffb612" d="M96.5 7.5l-24 78h-10l24-78h10z"/><path stroke-width="3" stroke-linejoin="round" stroke-linecap="square" stroke="#9fceea" fill="none" d="M91.5 1.5v6h6v6"/><path stroke-width="3" stroke-linejoin="round" stroke-linecap="square" stroke="#7d7d7d" fill="none" d="M1.5 13.5v-12h90"/><use xlink:href="#a" transform="translate(84)" height="15" width="15"/></symbol></defs><title>punt-dubbelk</title><path d="M0 168h168v144H0z" fill="#d9ebf7"/><path stroke-width="3" stroke-miterlimit="10" stroke="#9fceea" fill="none" d="M24 312H0m0-144h24m144 144h-48m0-144h48"/><path fill="#d9ebf7" d="M24 312h96v12H24zm96-144H24v-12h90l6 12z"/><path stroke-width="3" stroke-linejoin="round" stroke-linecap="square" stroke="#9fceea" fill="none" d="M114 156v6h6v6"/><use xlink:href="#b" transform="matrix(1 0 0 -1 22.5 325.5)" height="86" width="99"/><path fill="#fff" d="M150 318l-45-30"/><path stroke-width="4" stroke-miterlimit="10" stroke="#fff" fill="none" d="M150 318l-45-30"/><circle fill="#fff" transform="rotate(-56.3 105.018 288.056)" r="3.3" cy="288" cx="105"/><path stroke-width="2" stroke-miterlimit="10" stroke="#154573" fill="none" d="M150 318l-45-30"/><circle fill="#154573" transform="rotate(-56.3 150.038 318.035)" r="2.3" cy="318" cx="150"/><circle fill="#154573" transform="rotate(-56.3 105.018 288.056)" r="2.3" cy="288" cx="105"/><use xlink:href="#b" transform="translate(22.5 154.5)" height="86" width="99"/><path fill="#fff" d="M150 162l-45 30"/><path stroke-width="4" stroke-miterlimit="10" stroke="#fff" fill="none" d="M150 162l-45 30"/><circle fill="#fff" transform="rotate(-33.7 104.954 192.013)" r="3.3" cy="192" cx="105"/><path stroke-width="2" stroke-miterlimit="10" stroke="#154573" fill="none" d="M150 162l-45 30"/><circle fill="#154573" transform="rotate(-33.7 149.906 162.011)" r="2.3" cy="162" cx="150"/><circle fill="#154573" transform="rotate(-33.7 104.954 192.013)" r="2.3" cy="192" cx="105"/></svg>