<svg data-type="punt-rechts" height="480" version="1.1" viewBox="0 0 144 480" width="144" xmlns="http://www.w3.org/2000/svg" xmlns:cc="http://creativecommons.org/ns#" xmlns:dc="http://purl.org/dc/elements/1.1/" xmlns:rdf="http://www.w3.org/1999/02/22-rdf-syntax-ns#" xmlns:svg="http://www.w3.org/2000/svg" xmlns:xlink="http://www.w3.org/1999/xlink">
    <defs id="defs4">
        <symbol id="103f1c46" viewBox="0 0 15 15">
            <circle cx="7.5" cy="7.5" id="circle7" r="6" stroke="#474747" stroke-miterlimit="10" stroke-width="3"/>
        </symbol>
    </defs>
    <title id="title9">punt</title>
    <path d="M0 168h144v144H0z" fill="#d9ebf7" id="path11"/>
    <path d="M24 312H0m0-144h24m120 144h-24m0-144h24" fill="none" id="path13" stroke="#9fceea" stroke-miterlimit="10" stroke-width="3"/>
    <path d="m 120,312 l -96,0 l 0,12 l 96,0 z" id="path15" style="fill:#d9ebf7"/>
    <path d="m 24,312 l 96,0 l 0,12 l -90,0 l -6,-12 z" id="path17" style="fill:#d9ebf7"/>
    <path d="m 25,318 l 24,-78 l 10,0 l -24,78 l -10,0 z" id="path19" stroke-miterlimit="10" style="fill:#ffb612;stroke:#000000;stroke-miterlimit:10"/>
    <path d="m 30,324 l 0,-6 l -6,0 l 0,-6" id="path21" style="fill:none;stroke:#9fceea;stroke-width:3;stroke-linecap:square;stroke-linejoin:round"/>
    <path d="m 120,312 l 0,12 l -90,0" id="path23" style="fill:none;stroke:#7d7d7d;stroke-width:3;stroke-linecap:square;stroke-linejoin:round"/>
    <use height="15" id="use25" transform="matrix(-1,0,0,-1,37.5,325.5)" width="15" x="0" xlink:href="#103f1c46" y="0"/>
    <path d="m 120,169.2 l 0,-13.2 l -90,0 l -6,13.2 z" id="path27" style="fill:#d9ebf7"/>
    <path d="m 25,162 l 24,78 l 10,0 l -24,-78 l -10,0 z" id="path29" stroke-miterlimit="10" style="fill:#ffb612;stroke:#000000;stroke-miterlimit:10"/>
    <path d="m 30,156 l 0,6 l -6,0 l 0,6" id="path31" style="fill:none;stroke:#9fceea;stroke-width:3;stroke-linecap:square;stroke-linejoin:round"/>
    <path d="m 120,168 l 0,-12 l -90,0" id="path33" style="fill:none;stroke:#7d7d7d;stroke-width:3;stroke-linecap:square;stroke-linejoin:round"/>
    <use height="15" id="use35" transform="matrix(-1,0,0,1,37.5,154.5)" width="15" x="0" xlink:href="#103f1c46" y="0"/>
<text font-family="sans-serif" font-size="36" text-anchor="middle" width="144" x="72" y="420"/></svg>