<svg data-type="punt-links" height="480" viewBox="0 0 144 480" width="144" xmlns="http://www.w3.org/2000/svg" xmlns:xlink="http://www.w3.org/1999/xlink">
    <defs>
        <symbol id="8e71c08b" viewBox="0 0 15 15">
            <circle cx="7.5" cy="7.5" r="6" stroke="#474747" stroke-miterlimit="10" stroke-width="3"/>
        </symbol>
    </defs>
    <title>punt</title>
    <path d="M0 168h144v144H0z" fill="#d9ebf7"/>
    <path d="M24 312H0m0-144h24m120 144h-24m0-144h24" fill="none" stroke="#9fceea" stroke-miterlimit="10" stroke-width="3"/>
    <path d="M24 312h96v12H24z" fill="#d9ebf7"/>
    <path d="M120 312H24v12h90l6-12z" fill="#d9ebf7"/>
    <path d="M119 318l-24-78H85l24 78h10z" fill="#ffb612" stroke="#000" stroke-miterlimit="10"/>
    <path d="M114 324v-6h6v-6" fill="none" stroke="#9fceea" stroke-linecap="square" stroke-linejoin="round" stroke-width="3"/>
    <path d="M24 312v12h90" fill="none" stroke="#7d7d7d" stroke-linecap="square" stroke-linejoin="round" stroke-width="3"/>
    <use height="15" transform="matrix(1 0 0 -1 106.5 325.5)" width="15" xlink:href="#8e71c08b"/>
    <path d="M24 169.218v-13.212h90l6 13.212z" fill="#d9ebf7"/>
    <path d="M119 162l-24 78H85l24-78h10z" fill="#ffb612" stroke="#000" stroke-miterlimit="10"/>
    <path d="M114 156v6h6v6" fill="none" stroke="#9fceea" stroke-linecap="square" stroke-linejoin="round" stroke-width="3"/>
    <path d="M24 168v-12h90" fill="none" stroke="#7d7d7d" stroke-linecap="square" stroke-linejoin="round" stroke-width="3"/>
    <use height="15" transform="translate(106.5 154.5)" width="15" xlink:href="#8e71c08b"/>
<text font-family="sans-serif" font-size="36" text-anchor="middle" width="144" x="72" y="420"/></svg>