<svg height="480" viewBox="0 0 144 480" width="144" xmlns="http://www.w3.org/2000/svg" xmlns:xlink="http://www.w3.org/1999/xlink">
    <defs>
        <symbol id="a" viewBox="0 0 15 15">
            <circle cx="7.5" cy="7.5" r="6" stroke="#474747" stroke-miterlimit="10" stroke-width="3"/>
        </symbol>
    </defs>
    <title>
        puntdeur-rechts-hwk
    </title>
    <path d="M144 168H0v144h144z" fill="#d9ebf7"/>
    <path d="M120 312h24m0-144h-24M0 312h24m0-144H0" fill="none" stroke="#9fceea" stroke-miterlimit="10" stroke-width="3"/>
    <path d="M120 312H24v12h96z" fill="#d9ebf7"/>
    <path d="M24 312h96v12H30l-6-12z" fill="#d9ebf7"/>
    <path color="#000" d="M63.17 242.6l-23.97 78" fill="none" overflow="visible" stroke="#fff" stroke-linecap="round" stroke-width="9" style="isolation:auto;mix-blend-mode:normal"/>
    <path d="M120 169.2V156H30l-6 13.2z" fill="#d9ebf7"/>
    <path color="#000" d="M63.17 238.6l-23.97-78" fill="none" overflow="visible" stroke="#fff" stroke-linecap="round" stroke-width="9" style="isolation:auto;mix-blend-mode:normal"/>
    <path color="#000" d="M61.37 242.6l-23.97 78" fill="none" overflow="visible" stroke="#ca005d" stroke-linecap="round" stroke-width="5" style="isolation:auto;mix-blend-mode:normal"/>
    <path d="M25 318l24-78h10l-24 78H25z" fill="#ffb612" stroke="#000" stroke-miterlimit="10"/>
    <path d="M30 324v-6h-6v-6" fill="none" stroke="#9fceea" stroke-linecap="square" stroke-linejoin="round" stroke-width="3"/>
    <path d="M120 312v12H30" fill="none" stroke="#7d7d7d" stroke-linecap="square" stroke-linejoin="round" stroke-width="3"/>
    <use height="15" transform="rotate(180 18.75 162.75)" width="15" xlink:href="#a"/>
    <path color="#000" d="M61.37 237.5l-23.97-78" fill="none" overflow="visible" stroke="#ca005d" stroke-linecap="round" stroke-width="5" style="isolation:auto;mix-blend-mode:normal"/>
    <path d="M25 162l24 78h10l-24-78H25z" fill="#ffb612" stroke="#000" stroke-miterlimit="10"/>
    <path d="M30 156v6h-6v6" fill="none" stroke="#9fceea" stroke-linecap="square" stroke-linejoin="round" stroke-width="3"/>
    <path d="M120 168v-12H30" fill="none" stroke="#7d7d7d" stroke-linecap="square" stroke-linejoin="round" stroke-width="3"/>
    <use height="15" transform="matrix(-1 0 0 1 37.5 154.5)" width="15" xlink:href="#a"/>
    <text font-family="sans-serif" font-size="36" text-anchor="middle" x="72" y="420"/>
    <text class="hw" fill="#ca005d" font-family="sans-serif" font-size="26" font-weight="700" text-anchor="middle" x="84" y="420">
        HWK
    </text>
</svg>
