<svg xmlns="http://www.w3.org/2000/svg" xmlns:xlink="http://www.w3.org/1999/xlink" width="144" height="480" viewBox="0 0 144 480"><defs><symbol id="a"  viewBox="0 0 15 15"><circle cx="7.5" cy="7.5" r="6" stroke="#474747" stroke-miterlimit="10" stroke-width="3"/></symbol></defs><title>punt</title><path d="M0 168h144v144H0z" fill="#d9ebf7"/><path fill="none" stroke="#9fceea" stroke-miterlimit="10" stroke-width="3" d="M24 312H0m0-144h24m120 144h-24m0-144h24"/><path fill="#d9ebf7" d="M24 312h96v12H24z"/><path fill="#d9ebf7" d="M120 312H24v12h90l6-12z"/><path fill="#ffb612" stroke="#000" stroke-miterlimit="10" d="M119 318l-24-78H85l24 78h10z"/><path fill="none" stroke="#9fceea" stroke-linecap="square" stroke-linejoin="round" stroke-width="3" d="M114 324v-6h6v-6"/><path fill="none" stroke="#7d7d7d" stroke-linecap="square" stroke-linejoin="round" stroke-width="3" d="M24 312v12h90"/><use width="15" height="15" transform="matrix(1 0 0 -1 106.5 325.5)" xlink:href="#a"/><path fill="#d9ebf7" d="M24 169.218v-13.212h90l6 13.212z"/><path fill="#ffb612" stroke="#000" stroke-miterlimit="10" d="M119 162l-24 78H85l24-78h10z"/><path fill="none" stroke="#9fceea" stroke-linecap="square" stroke-linejoin="round" stroke-width="3" d="M114 156v6h6v6"/><path fill="none" stroke="#7d7d7d" stroke-linecap="square" stroke-linejoin="round" stroke-width="3" d="M24 168v-12h90"/><use width="15" height="15" transform="translate(106.5 154.5)" xlink:href="#a"/></svg>