<svg xmlns="http://www.w3.org/2000/svg" height="480" viewBox="0 0 144 480" width="144">
    <title>
        puntdeur-pin-rechts
    </title>
    <path d="M24 312h96v12l-89.4-.1L24 312zM24 168h96v-12l-89.4.1L24 168zM144 168H0v144h144z" fill="#d9ebf7"/>
    <path d="M120 312h24m0-144h-24M0 312h24m0-144H0" fill="none" stroke="#9fceea" stroke-miterlimit="10" stroke-width="3"/>
    <path d="M120 312H24v12h96z" fill="#d9ebf7"/>
    <g color="#000" fill="none" stroke-linecap="round" stroke-linejoin="round">
        <path d="M37.7 160.561l23.97 80-23.97 80" overflow="visible" style="isolation:auto;mix-blend-mode:normal" stroke="#fff" stroke-width="9"/>
        <path d="M35.9 159.461l23.97 80.6-23.97 80.5" overflow="visible" style="isolation:auto;mix-blend-mode:normal" stroke="#ca005d" stroke-width="5"/>
    </g>
    <path d="M35 318l21.8-70.7A9 9 0 1 0 53 240h-4l-24 78zm27-81a3 3 0 1 1-3 3" stroke-miterlimit="10" fill="#ffb612" stroke="#000"/>
    <path d="M30 324v-6h-6v-6" fill="none" stroke="#9fceea" stroke-linecap="square" stroke-linejoin="round" stroke-width="3"/>
    <path d="M120 312v12H30" fill="none" stroke="#7d7d7d" stroke-linecap="square" stroke-linejoin="round" stroke-width="3"/>
    <circle cx="-30" cy="318" r="6" stroke="#474747" stroke-miterlimit="10" stroke-width="3" transform="scale(-1 1)"/>
    <path d="M35 162l21.8 70.7c7.71-5.5 17.54 3.1 13.18 11.5-4.36 8.4-17.03 5.2-16.98-4.2h-4l-24-78zm27 81c2.81 0 4.01-3.2 2.12-5.1-1.89-1.9-5.13-.7-5.12 2.1 0 1.4 1.11 3 3 3z" stroke-miterlimit="10" fill="#ffb612" stroke="#000"/>
    <path d="M30 156v6h-6v6" fill="none" stroke="#9fceea" stroke-linecap="square" stroke-linejoin="round" stroke-width="3"/>
    <path d="M120 168v-12H30" fill="none" stroke="#7d7d7d" stroke-linecap="square" stroke-linejoin="round" stroke-width="3"/>
    <circle cx="-30" cy="162" r="6" stroke="#474747" stroke-miterlimit="10" stroke-width="3" transform="scale(-1 1)"/>
    <text font-family="sans-serif" font-size="36" text-anchor="middle" x="72" y="420"></text>
    <text class="hw" font-size="26" font-weight="700" x="72" y="420" font-family="sans-serif" text-anchor="middle" fill="#ca005d">
        HWK
    </text>
</svg>
