<svg xmlns="http://www.w3.org/2000/svg" width="144" viewBox="0 0 144 480" height="480">
    <title>
        puntdeur-rechts
    </title>
    <path fill="#d9ebf7" d="M24 312h96v12H30l-6-12zM120 169.2V156H30l-6 13.2z"/>
    <path fill="#d9ebf7" d="M0 168h144v144H0z"/>
    <path stroke-width="3" stroke-miterlimit="10" stroke="#9fceea" fill="none" d="M24 312H0m0-144h24m120 144h-24m0-144h24"/>
    <path fill="#d9ebf7" d="M120 312H24v12h96z"/>
    <path stroke-miterlimit="10" stroke="#000" fill="#ffb612" d="M25 318l24-78h10l-24 78H25z"/>
    <path stroke-width="3" stroke-linejoin="round" stroke-linecap="square" stroke="#9fceea" fill="none" d="M30 324v-6h-6v-6"/>
    <path stroke-miterlimit="10" stroke="#000" fill="#ffb612" d="M25 162l24 78h10l-24-78H25z"/>
    <path stroke-width="3" stroke-linejoin="round" stroke-linecap="square" stroke="#9fceea" fill="none" d="M30 156v6h-6v6"/>
    <path stroke-width="3" stroke-linejoin="round" stroke-linecap="square" stroke="#7d7d7d" fill="none" d="M120 312v12H30M120 168v-12H30"/>
    <circle cx="7.5" cy="7.5" r="6" stroke-miterlimit="10" stroke="#474747" stroke-width="3" transform="matrix(-1 0 0 1 37.5 154.5)"/>
    <circle cx="7.5" cy="7.5" r="6" stroke-miterlimit="10" stroke="#474747" stroke-width="3" transform="rotate(180 18.75 162.8)"/>
    <text font-family="sans-serif" font-size="36" text-anchor="middle" x="72" y="420"></text>
</svg>
