<svg xmlns="http://www.w3.org/2000/svg" viewBox="0 0 144 480" height="480" width="144"><title>punt-pin</title><path d="M0 168h144v144H0z" fill="#d9ebf7"/><path stroke-width="3" stroke-miterlimit="10" stroke="#9fceea" fill="none" d="M24 312H0m0-144h24m120 144h-24m0-144h24"/><path fill="#d9ebf7" d="M24 312h96v12H24z"/><path fill="#d9ebf7" d="M120 312H24v12l89.4-.1L120 312z"/><path stroke-miterlimit="10" stroke="#000" fill="#ffb612" d="M109 318l-21.8-70.7A9 9 0 1 1 91 240h4l24 78zm-27-81a3 3 0 1 0 3 3 3 3 0 0 0-3-3z"/><path stroke-width="3" stroke-linejoin="round" stroke-linecap="square" stroke="#9fceea" fill="none" d="M114 324v-6h6v-6"/><path stroke-width="3" stroke-linejoin="round" stroke-linecap="square" stroke="#7d7d7d" fill="none" d="M24 312v12h90"/><circle stroke-width="3" stroke-miterlimit="10" stroke="#474747" r="6" cy="318" cx="114"/><path fill="#d9ebf7" d="M120 168H24v-12l89.4.1L120 168z"/><path stroke-miterlimit="10" stroke="#000" fill="#ffb612" d="M109 162l-21.8 70.7A9 9 0 1 0 91 240h4l24-78zm-27 81a3 3 0 1 1 3-3 3 3 0 0 1-3 3z"/><path stroke-width="3" stroke-linejoin="round" stroke-linecap="square" stroke="#9fceea" fill="none" d="M114 156v6h6v6"/><path stroke-width="3" stroke-linejoin="round" stroke-linecap="square" stroke="#7d7d7d" fill="none" d="M24 168v-12h90"/><circle stroke-width="3" stroke-miterlimit="10" stroke="#474747" r="6" cy="162" cx="114"/></svg>