<svg height="480" viewBox="0 0 168 480" width="168" xmlns="http://www.w3.org/2000/svg">
    <title>
        puntdeur-dubbelk-rechts-hwk
    </title>
    <text font-family="sans-serif" font-size="36" text-anchor="middle" x="84" y="420"/>
    <text class="hw" fill="#ca005d" font-family="sans-serif" font-size="26" font-weight="700" text-anchor="middle" x="84" y="420">
        HWK
    </text>
    <path d="M168 168H0v144h168z" fill="#d9ebf7"/>
    <path d="M144 312h24m0-144h-24M0 312h48m0-144H0" fill="none" stroke="#9fceea" stroke-miterlimit="10" stroke-width="3"/>
    <path d="M144 312H48v12h96zM48 168h96v-12H54l-6 12z" fill="#d9ebf7"/>
    <path d="M54 156v6h-6v6" fill="none" stroke="#9fceea" stroke-linecap="square" stroke-linejoin="round" stroke-width="3"/>
    <path d="M48 312h96v12H54l-6-12z" fill="#d9ebf7"/>
    <path d="M49 318l24-78h10l-24 78H49z" fill="#ffb612" stroke="#000" stroke-miterlimit="10"/>
    <path d="M54 324v-6h-6v-6" fill="none" stroke="#9fceea" stroke-linecap="square" stroke-linejoin="round" stroke-width="3"/>
    <path d="M18 318l45-30" fill="#fff"/>
    <path d="M18 318l45-30" fill="none" stroke="#fff" stroke-miterlimit="10" stroke-width="4"/>
    <circle cx="-274.7" cy="107.3" fill="#fff" r="3.3" transform="scale(-1 1) rotate(-56.304)"/>
    <path d="M18 318l45-30" fill="none" stroke="#154573" stroke-miterlimit="10" stroke-width="2"/>
    <circle cx="-274.7" cy="161.4" fill="#154573" r="2.3" transform="scale(-1 1) rotate(-56.304)"/>
    <path d="M48 168h96v-12H54l-6 12z" fill="#d9ebf7"/>
    <path color="#000" d="M87.17 242.6l-23.97 78m23.97-82l-23.97-78" fill="none" overflow="visible" stroke="#fff" stroke-linecap="round" stroke-width="9" style="isolation:auto;mix-blend-mode:normal"/>
    <path color="#000" d="M85.37 242.6l-23.97 78m23.97-83.1l-23.97-78" fill="none" overflow="visible" stroke="#ca005d" stroke-linecap="round" stroke-width="5" style="isolation:auto;mix-blend-mode:normal"/>
    <path d="M144 312v12H54" fill="none" stroke="#7d7d7d" stroke-linecap="square" stroke-linejoin="round" stroke-width="3"/>
    <circle cx="-54" cy="-318" r="6" stroke="#474747" stroke-miterlimit="10" stroke-width="3" transform="scale(-1)"/>
    <circle cx="-274.7" cy="107.3" fill="#154573" r="2.3" transform="scale(-1 1) rotate(-56.304)"/>
    <path d="M49 162l24 78h10l-24-78H49z" fill="#ffb612" stroke="#000" stroke-miterlimit="10"/>
    <path d="M144 168v-12H54" fill="none" stroke="#7d7d7d" stroke-linecap="square" stroke-linejoin="round" stroke-width="3"/>
    <path d="M54 156v6h-6v6" fill="none" stroke="#9fceea" stroke-linecap="square" stroke-linejoin="round" stroke-width="3"/>
    <circle cx="-54" cy="162" r="6" stroke="#474747" stroke-miterlimit="10" stroke-width="3" transform="scale(-1 1)"/>
    <path d="M18 162l45 30" fill="#fff"/>
    <path d="M18 162l45 30" fill="none" stroke="#fff" stroke-miterlimit="10" stroke-width="4"/>
    <circle cx="-158.9" cy="124.8" fill="#fff" r="3.3" transform="scale(-1 1) rotate(-33.696)"/>
    <path d="M18 162l45 30" fill="none" stroke="#154573" stroke-miterlimit="10" stroke-width="2"/>
    <circle cx="-104.9" cy="124.8" fill="#154573" r="2.3" transform="scale(-1 1) rotate(-33.696)"/>
    <circle cx="-158.9" cy="124.8" fill="#154573" r="2.3" transform="scale(-1 1) rotate(-33.696)"/>
</svg>
