<svg xmlns="http://www.w3.org/2000/svg" height="480" viewBox="0 0 144 480" width="144">
    <title>
        puntdeur-rechts
    </title>
    <path d="M24 312h96v12H30l-6-12zm96-142.8V156H30l-6 13.2z" fill="#d9ebf7"/>
    <path d="M0 168h144v144H0z" fill="#d9ebf7"/>
    <path d="M24 312H0m0-144h24m120 144h-24m0-144h24" fill="none" stroke="#9fceea" stroke-miterlimit="10" stroke-width="3"/>
    <path d="M120 312H24v12h96z" fill="#d9ebf7"/>
    <g stroke-linejoin="round" stroke-linecap="round" fill="none" color="#000">
        <path stroke-width="9" stroke="#fff" d="M37.8 160.561l23.97 80-23.97 80" overflow="visible" style="isolation:auto;mix-blend-mode:normal"/>
        <path stroke-width="5" stroke="#ca005d" d="M36 159.461l23.97 80.6-23.97 80.5" overflow="visible" style="isolation:auto;mix-blend-mode:normal"/>
    </g>
    <path stroke-linejoin="round" d="M25 318l24-78h10l-24 78H25z" fill="#ffb612" stroke="#000" stroke-miterlimit="10"/>
    <path d="M30 324v-6h-6v-6" fill="none" stroke="#9fceea" stroke-linecap="square" stroke-linejoin="round" stroke-width="3"/>
    <path stroke-linejoin="round" d="M25 162l24 78h10l-24-78H25z" fill="#ffb612" stroke="#000" stroke-miterlimit="10"/>
    <path d="M30 156v6h-6v6" fill="none" stroke="#9fceea" stroke-linecap="square" stroke-linejoin="round" stroke-width="3"/>
    <path d="M120 312v12H30m90-156v-12H30" fill="none" stroke="#7d7d7d" stroke-linecap="square" stroke-linejoin="round" stroke-width="3"/>
    <circle transform="matrix(-1 0 0 1 37.5 154.5)" stroke-width="3" stroke="#474747" stroke-miterlimit="10" r="6" cy="7.5" cx="7.5"/>
    <circle transform="rotate(180 18.75 162.8)" stroke-width="3" stroke="#474747" stroke-miterlimit="10" r="6" cy="7.5" cx="7.5"/>
    <text font-family="sans-serif" font-size="36" text-anchor="middle" x="72" y="420"></text>
    <text class="hw" font-size="26" font-weight="700" x="72" y="420" font-family="sans-serif" text-anchor="middle" fill="#ca005d">
        HWK
    </text>
</svg>
