<svg xmlns="http://www.w3.org/2000/svg" xmlns:xlink="http://www.w3.org/1999/xlink" width="144" viewBox="0 0 144 480" height="480">
    <defs>
        <symbol viewBox="0 0 15 15" id="a">
            <circle stroke-width="3" stroke-miterlimit="10" stroke="#474747" r="6" cy="7.5" cx="7.5"/>
        </symbol>
    </defs>
    <title>
        puntdeur-links
    </title>
    <path fill="#d9ebf7" d="M0 168h144v144H0z"/>
    <path stroke-width="3" stroke-miterlimit="10" stroke="#9fceea" fill="none" d="M24 312H0m0-144h24m120 144h-24m0-144h24"/>
    <path fill="#d9ebf7" d="M24 312h96v12H24z"/>
    <path fill="#d9ebf7" d="M120 312H24v12h90l6-12z"/>
    <path stroke-miterlimit="10" stroke="#000" fill="#ffb612" d="M119 318l-24-78H85l24 78h10z"/>
    <path stroke-width="3" stroke-linejoin="round" stroke-linecap="square" stroke="#9fceea" fill="none" d="M114 324v-6h6v-6"/>
    <path stroke-width="3" stroke-linejoin="round" stroke-linecap="square" stroke="#7d7d7d" fill="none" d="M24 312v12h90"/>
    <use xlink:href="#a" width="15" transform="matrix(1 0 0 -1 106.5 325.5)" height="15"/>
    <path fill="#d9ebf7" d="M24 169.218v-13.212h90l6 13.212z"/>
    <path stroke-miterlimit="10" stroke="#000" fill="#ffb612" d="M119 162l-24 78H85l24-78h10z"/>
    <path stroke-width="3" stroke-linejoin="round" stroke-linecap="square" stroke="#9fceea" fill="none" d="M114 156v6h6v6"/>
    <path stroke-width="3" stroke-linejoin="round" stroke-linecap="square" stroke="#7d7d7d" fill="none" d="M24 168v-12h90"/>
    <circle cx="7.5" cy="7.5" r="6" stroke-miterlimit="10" stroke="#474747" stroke-width="3" transform="translate(106.5 154.5)"/>
    <text font-family="sans-serif" font-size="36" text-anchor="middle" x="72" y="420"></text>
</svg>
