<svg height="480" viewBox="0 0 144 480" width="144" xmlns="http://www.w3.org/2000/svg">
    <title>
        puntdeur-pin-rechts-hwk
    </title>
    <path d="M144 168H0v144h144zm-120 0h96v-12l-89.4.1L24 168z" fill="#d9ebf7"/>
    <path d="M120 312h24m0-144h-24M0 312h24m0-144H0" fill="none" stroke="#9fceea" stroke-miterlimit="10" stroke-width="3"/>
    <path d="M120 312H24v12h96z" fill="#d9ebf7"/>
    <path d="M24 312h96v12l-89.4-.1L24 312z" fill="#d9ebf7"/>
    <g color="#000" fill="none" stroke-linecap="round">
        <path d="M62.77 242.6l-23.97 78m23.97-82l-23.97-78" overflow="visible" stroke="#fff" stroke-width="9" style="isolation:auto;mix-blend-mode:normal"/>
        <path d="M60.97 242.6L37 320.6m23.97-83.1L37 159.5" overflow="visible" stroke="#ca005d" stroke-width="5" style="isolation:auto;mix-blend-mode:normal"/>
    </g>
    <path d="M35 318l21.8-70.7A9 9 0 1 0 53 240h-4l-24 78zm27-81a3 3 0 1 1-3 3" fill="#ffb612" stroke="#000" stroke-miterlimit="10"/>
    <path d="M30 324v-6h-6v-6" fill="none" stroke="#9fceea" stroke-linecap="square" stroke-linejoin="round" stroke-width="3"/>
    <path d="M120 312v12H30" fill="none" stroke="#7d7d7d" stroke-linecap="square" stroke-linejoin="round" stroke-width="3"/>
    <circle cx="-30" cy="318" r="6" stroke="#474747" stroke-miterlimit="10" stroke-width="3" transform="scale(-1 1)"/>
    <path d="M35 162l21.8 70.7A9 9 0 1 1 53 240h-4l-24-78zm27 81a3 3 0 1 0-3-3" fill="#ffb612" stroke="#000" stroke-miterlimit="10"/>
    <path d="M30 156v6h-6v6" fill="none" stroke="#9fceea" stroke-linecap="square" stroke-linejoin="round" stroke-width="3"/>
    <path d="M120 168v-12H30" fill="none" stroke="#7d7d7d" stroke-linecap="square" stroke-linejoin="round" stroke-width="3"/>
    <circle cx="-30" cy="162" r="6" stroke="#474747" stroke-miterlimit="10" stroke-width="3" transform="scale(-1 1)"/>
    <text font-family="sans-serif" font-size="36" text-anchor="middle" x="72" y="420"/>
    <text class="hw" fill="#ca005d" font-family="sans-serif" font-size="26" font-weight="700" text-anchor="middle" x="72" y="420">
        HWK
    </text>
    <circle color="#000" cx="-61.9" cy="239.9" fill="#fff" overflow="visible" r="3.5" stroke="#000" stroke-dasharray="50.002,7.50039999999999996" style="isolation:auto;mix-blend-mode:normal" transform="scale(-1 1)"/>
</svg>
