<svg xmlns="http://www.w3.org/2000/svg" width="144" viewBox="0 0 144 480" height="480">
    <title>
        puntdeur-pin-links
    </title>
    <path fill="#d9ebf7" d="M0 168h144v144H0z"/>
    <path stroke-width="3" stroke-miterlimit="10" stroke="#9fceea" fill="none" d="M24 312H0m0-144h24m120 144h-24m0-144h24"/>
    <path fill="#d9ebf7" d="M24 312h96v12H24z"/>
    <path fill="#d9ebf7" d="M120 312H24v12l89.4-.1L120 312z"/>
    <path stroke-width="3" stroke-linejoin="round" stroke-linecap="square" stroke="#9fceea" fill="none" d="M114 324v-6h6v-6"/>
    <path fill="#d9ebf7" d="M120 168H24v-12l89.4.1L120 168z"/>
    <path stroke-width="3" stroke-linejoin="round" stroke-linecap="square" stroke="#9fceea" fill="none" d="M114 156v6h6v6"/>
    <g color="#000" fill="none" stroke-linecap="round" stroke-linejoin="round">
        <path d="M104.8 160.561l-23.97 80 23.97 80" overflow="visible" style="isolation:auto;mix-blend-mode:normal" stroke="#fff" stroke-width="9"/>
        <path d="M106.6 320.561l-23.97-80.5 23.97-80.6" overflow="visible" style="isolation:auto;mix-blend-mode:normal" stroke="#ca005d" stroke-width="5"/>
    </g>
    <path stroke-width="3" stroke-linejoin="round" stroke-linecap="square" stroke="#7d7d7d" fill="none" d="M24 312v12h90M24 168v-12h90"/>
    <path stroke-miterlimit="10" stroke="#000" fill="#ffb612" d="M109 318l-21.8-70.7A9 9 0 1 1 91 240h4l24 78zm-27-81a3 3 0 1 0 3 3 3 3 0 0 0-3-3z"/>
    <circle stroke-width="3" stroke-miterlimit="10" stroke="#474747" r="6" cy="318" cx="114"/>
    <path stroke-miterlimit="10" stroke="#000" fill="#ffb612" d="M109 162l-21.8 70.7A9 9 0 1 0 91 240h4l24-78zm-27 81a3 3 0 1 1 3-3 3 3 0 0 1-3 3z"/>
    <circle stroke-width="3" stroke-miterlimit="10" stroke="#474747" r="6" cy="162" cx="114"/>
    <text font-family="sans-serif" font-size="36" text-anchor="middle" x="72" y="420"></text>
    <text class="hw" font-size="26" font-weight="700" x="72" y="420" font-family="sans-serif" text-anchor="middle" fill="#ca005d">
        HWK
    </text>
</svg>
