<svg data-type="punt-dubbelk-rechts" height="480" version="1.1" viewBox="0 0 168 480" width="168" xmlns="http://www.w3.org/2000/svg" xmlns:cc="http://creativecommons.org/ns#" xmlns:dc="http://purl.org/dc/elements/1.1/" xmlns:rdf="http://www.w3.org/1999/02/22-rdf-syntax-ns#" xmlns:svg="http://www.w3.org/2000/svg" xmlns:xlink="http://www.w3.org/1999/xlink">
    <metadata id="metadata60">
        <rdf:RDF>
            <cc:Work rdf:about="">
                <dc:format>image/svg+xml</dc:format>
                <dc:type rdf:resource="http://purl.org/dc/dcmitype/StillImage"/>
                <dc:title>punt-dubbelk</dc:title>
            </cc:Work>
        </rdf:RDF>
    </metadata>
    <defs id="defs4">
        <symbol id="3a515efa" viewBox="0 0 15 15">
            <circle cx="7.5" cy="7.5" id="circle7" r="6" stroke="#474747" stroke-miterlimit="10" stroke-width="3"/>
        </symbol>
        <symbol id="0405fc26" viewBox="0 0 99 86">
            <path d="M97.5 13.5h-96v-12h90l6 12z" fill="#d9ebf7" id="path10"/>
            <path d="M96.5 7.5l-24 78h-10l24-78h10z" fill="#ffb612" id="path12" stroke="#000" stroke-miterlimit="10"/>
            <path d="M91.5 1.5v6h6v6" fill="none" id="path14" stroke="#9fceea" stroke-linecap="square" stroke-linejoin="round" stroke-width="3"/>
            <path d="M1.5 13.5v-12h90" fill="none" id="path16" stroke="#7d7d7d" stroke-linecap="square" stroke-linejoin="round" stroke-width="3"/>
            <use height="15" id="use18" transform="translate(84)" width="15" xlink:href="#3a515efa"/>
        </symbol>
    </defs>
    <title id="title20">punt-dubbelk</title>
    <path d="m 168,168 l -168,0 l 0,144 l 168,0 z" id="path22" style="fill:#d9ebf7"/>
    <path d="m 144,312 l 24,0 m 0,-144 l -24,0 m -144,144 l 48,0 m 0,-144 l -48,0" id="path24" stroke-miterlimit="10" style="fill:none;stroke:#9fceea;stroke-width:3;stroke-miterlimit:10"/>
    <path d="m 144,312 l -96,0 l 0,12 l 96,0 z m -96,-144 l 96,0 l 0,-12 l -90,0 l -6,12 z" id="path26" style="fill:#d9ebf7"/>
    <path d="m 54,156 l 0,6 l -6,0 l 0,6" id="path28" style="fill:none;stroke:#9fceea;stroke-width:3;stroke-linecap:square;stroke-linejoin:round"/>
    <use height="86" id="use30" transform="matrix(-1,0,0,-1,145.5,325.5)" width="99" x="0" xlink:href="#0405fc26" y="0"/>
    <path d="m 18,318 l 45,-30" id="path32" style="fill:#ffffff"/>
    <path d="m 18,318 l 45,-30" id="path34" stroke-miterlimit="10" style="fill:none;stroke:#ffffff;stroke-width:4;stroke-miterlimit:10"/>
    <circle cx="-274.6" cy="107.4" id="circle36" r="3.3" style="fill:#ffffff" transform="matrix(-0.5548,-0.832,-0.832,0.5548,0,0)"/>
    <path d="m 18,318 l 45,-30" id="path38" stroke-miterlimit="10" style="fill:none;stroke:#154573;stroke-width:2;stroke-miterlimit:10"/>
    <circle cx="-274.6" cy="161.5" id="circle40" r="2.3" style="fill:#154573" transform="matrix(-0.5548,-0.832,-0.832,0.5548,0,0)"/>
    <circle cx="-274.6" cy="107.4" id="circle42" r="2.3" style="fill:#154573" transform="matrix(-0.5548,-0.832,-0.832,0.5548,0,0)"/>
    <use height="86" id="use44" transform="matrix(-1,0,0,1,145.5,154.5)" width="99" x="0" xlink:href="#0405fc26" y="0"/>
    <path d="m 18,162 l 45,30" id="path46" style="fill:#ffffff"/>
    <path d="m 18,162 l 45,30" id="path48" stroke-miterlimit="10" style="fill:none;stroke:#ffffff;stroke-width:4;stroke-miterlimit:10"/>
    <circle cx="-158.9" cy="124.8" id="circle50" r="3.3" style="fill:#ffffff" transform="matrix(-0.832,-0.5548,-0.5548,0.832,0,0)"/>
    <path d="m 18,162 l 45,30" id="path52" stroke-miterlimit="10" style="fill:none;stroke:#154573;stroke-width:2;stroke-miterlimit:10"/>
    <circle cx="-104.9" cy="124.7" id="circle54" r="2.3" style="fill:#154573" transform="matrix(-0.832,-0.5548,-0.5548,0.832,0,0)"/>
    <circle cx="-158.9" cy="124.8" id="circle56" r="2.3" style="fill:#154573" transform="matrix(-0.832,-0.5548,-0.5548,0.832,0,0)"/>
<text font-family="sans-serif" font-size="36" text-anchor="middle" width="168" x="84" y="420"/></svg>