<svg xmlns="http://www.w3.org/2000/svg" width="144" viewBox="0 0 144 480" height="480">
    <title>
        puntdeur-links-hwk
    </title>
    <path fill="#d9ebf7" d="M0 168h144v144H0z"/>
    <path stroke-width="3" stroke-miterlimit="10" stroke="#9fceea" fill="none" d="M24 312H0m0-144h24m120 144h-24m0-144h24"/>
    <path fill="#d9ebf7" d="M24 312h96v12H24z"/>
    <path fill="#d9ebf7" d="M120 312H24v12l89.4-.1L120 312z"/>
    <path stroke-width="3" stroke-linejoin="round" stroke-linecap="square" stroke="#9fceea" fill="none" d="M114 324v-6h6v-6"/>
    <path fill="#d9ebf7" d="M120 168H24v-12l89.4.1L120 168z"/>
    <g color="#000" fill="none" stroke-linecap="round" stroke-linejoin="round">
        <path style="isolation:auto;mix-blend-mode:normal" overflow="visible" d="M104.8 160.6l-23.97 80 23.97 80" stroke="#fff" stroke-width="9"/>
        <path style="isolation:auto;mix-blend-mode:normal" overflow="visible" d="M106.6 320.6l-23.97-80.5 23.97-80.6" stroke="#ca005d" stroke-width="5"/>
    </g>
    <path stroke-miterlimit="10" d="M119 318l-24-78H85l24 78z" fill="#ffb612" stroke="#000" stroke-linejoin="round"/>
    <path stroke-width="3" stroke-linejoin="round" stroke-linecap="square" stroke="#7d7d7d" fill="none" d="M24 312v12h90"/>
    <path stroke-miterlimit="10" d="M119 162l-24 78H85l24-78z" fill="#ffb612" stroke="#000" stroke-linejoin="round"/>
    <circle stroke-width="3" stroke-miterlimit="10" stroke="#474747" r="6" cy="318" cx="114"/>
    <path stroke-width="3" stroke-linejoin="round" stroke-linecap="square" stroke="#9fceea" fill="none" d="M114 156v6h6v6"/>
    <path stroke-width="3" stroke-linejoin="round" stroke-linecap="square" stroke="#7d7d7d" fill="none" d="M24 168v-12h90"/>
    <circle stroke-width="3" stroke-miterlimit="10" stroke="#474747" r="6" cy="162" cx="114"/>
    <text font-family="sans-serif" font-size="36" text-anchor="middle" x="72" y="420"></text>
    <text y="420" x="72" text-anchor="middle" font-weight="700" font-size="26" font-family="sans-serif" fill="#ca005d" class="hw">
        HWK
    </text>
</svg>
