<svg height="480" id="svg2" version="1.1" viewBox="0 0 72 480" width="72" xmlns="http://www.w3.org/2000/svg" xmlns:cc="http://creativecommons.org/ns#" xmlns:dc="http://purl.org/dc/elements/1.1/" xmlns:rdf="http://www.w3.org/1999/02/22-rdf-syntax-ns#" xmlns:svg="http://www.w3.org/2000/svg">
          <metadata id="metadata48">
                    <rdf:RDF>
                              <cc:Work rdf:about="">
                                        <dc:format>image/svg+xml</dc:format>
                                        <dc:type rdf:resource="http://purl.org/dc/dcmitype/StillImage"/>
                                        <dc:title>
        hangrol
    </dc:title>
                              </cc:Work>
                    </rdf:RDF>
          </metadata>
          <defs id="defs46"/>
          <title id="title4">/schot</title>
          <path d="m 0,168 l 0,144 l 24,0 l 0,12 l 24,0 l 0,-12 l 24,0 l 0,-144 l -24,0 l 0,-12 l -24,0 l 0,12 z" id="path6" style="fill:#d9ebf7"/>
          <path d="M12 168H0" fill="none" id="path8" stroke="#9fceea" stroke-miterlimit="10" stroke-width="3"/>
          <path d="M72 168H60m0 144h12" fill="none" id="path12" stroke="#9fceea" stroke-miterlimit="10" stroke-width="3"/>
          <path d="m 12,312 l 12,0 l 0,12 l 24,0 l 0,-12 l 12,0" id="path14" stroke-miterlimit="10" style="fill:none;stroke:#7d7d7d;stroke-width:3;stroke-miterlimit:10"/>
          <path d="M0 312h12" fill="none" id="path16" stroke="#9fceea" stroke-miterlimit="10" stroke-width="3"/>
          <text font-family="sans-serif" font-size="36" id="text40" text-anchor="middle" x="60" y="420"/>
          <path d="m 12,168 l 12,0 l 0,-12 l 24,0 l 0,12 l 12,0" id="path4197" stroke-miterlimit="10" style="fill:none;stroke:#7d7d7d;stroke-width:3;stroke-miterlimit:10"/>
          <path d="m 35.9,338.5 c -5.4,0 -9.7,4.4 -9.7,9.8 l 0,3.3 l -1.2,0 l 0,16 l 22,0 l 0,-16 l -1.3,0 l 0,-3.3 c 0,-5.4 -4.3,-9.8 -9.6,-9.8 l -0.2,0 z m 0,2.4 l 0.2,0 c 4,0 7.2,3.3 7.2,7.4 l 0,3.3 l -14.7,0 l 0,-3.3 c 0,-4.1 3.2,-7.4 7.3,-7.4 z m 0.1,12.9 a 3.163,3.221 0 0 1 3.1,3.2 a 3.163,3.221 0 0 1 -1.5,2.8 l 0,3.7 c 0,0.9 -0.7,1.7 -1.6,1.7 c -0.9,0 -1.6,-0.8 -1.6,-1.7 l 0,-3.7 a 3.163,3.221 0 0 1 -1.6,-2.8 a 3.163,3.221 0 0 1 3.2,-3.2 z" id="rect4236" style="color:#000000;clip-rule:nonzero;display:inline;overflow:visible;visibility:visible;opacity:1;isolation:auto;mix-blend-mode:normal;color-interpolation:sRGB;color-interpolation-filters:linearRGB;solid-color:#000000;solid-opacity:1;fill:#01689b;fill-opacity:1;fill-rule:nonzero;stroke:none;stroke-width:2.0002;stroke-linecap:butt;stroke-linejoin:round;stroke-miterlimit:10;stroke-dasharray:none;stroke-dashoffset:0;stroke-opacity:1;color-rendering:auto;image-rendering:auto;shape-rendering:auto;text-rendering:auto;enable-background:accumulate"/>
          <path d="m 28,320.7 l 16,0 l 0,-16 l -16,0 z m 0,-29.2 l 16,0 l 0,-16 l -16,0 z m 0,-29 l 16,0 l 0,-16 l -16,0 z m 0,-29.1 l 16,0 l 0,-16 l -16,0 z m 0,-29.1 l 16,0 l 0,-16 l -16,0 z m 0,-29.1 l 15.89,0 l 0.11,-16 l -15.89,0 z" id="path4323" style="color:#000000;font-style:normal;font-variant:normal;font-weight:normal;font-stretch:normal;font-size:medium;line-height:normal;font-family:sans-serif;text-indent:0;text-align:start;text-decoration:none;text-decoration-line:none;text-decoration-style:solid;text-decoration-color:#000000;letter-spacing:normal;word-spacing:normal;text-transform:none;direction:ltr;block-progression:tb;writing-mode:lr-tb;baseline-shift:baseline;text-anchor:start;white-space:normal;clip-rule:nonzero;display:inline;overflow:visible;visibility:visible;opacity:1;isolation:auto;mix-blend-mode:normal;color-interpolation:sRGB;color-interpolation-filters:linearRGB;solid-color:#000000;solid-opacity:1;fill:#01689b;fill-opacity:1;fill-rule:nonzero;stroke:none;stroke-width:14;stroke-linecap:butt;stroke-linejoin:miter;stroke-miterlimit:10;stroke-dasharray:14, 14;stroke-dashoffset:23.8;stroke-opacity:1;color-rendering:auto;image-rendering:auto;shape-rendering:auto;text-rendering:auto;enable-background:accumulate"/>
</svg>