<svg height="480" viewBox="0 0 72 480" width="72" xmlns="http://www.w3.org/2000/svg">
    <title>schot</title>
    <path d="M0 168v144h24v12h24v-12h24V168H48v-12H24v12z" fill="#d9ebf7"/>
    <path d="M12 168H0M72 168H60m0 144h12" fill="none" stroke="#9fceea" stroke-miterlimit="10" stroke-width="3"/>
    <path d="M12 312h12v12h24v-12h12" fill="none" stroke="#7d7d7d" stroke-miterlimit="10" stroke-width="3"/>
    <path d="M0 312h12" fill="none" stroke="#9fceea" stroke-miterlimit="10" stroke-width="3"/>
    <text font-family="sans-serif" font-size="36" text-anchor="middle" x="60" y="420"/>
    <path d="M12 168h12v-12h24v12h12" fill="none" stroke="#7d7d7d" stroke-miterlimit="10" stroke-width="3"/>
    <path d="M35.9 338.5c-5.4 0-9.7 4.4-9.7 9.8v3.3H25v16h22v-16h-1.3v-3.3c0-5.4-4.3-9.8-9.6-9.8h-.2zm0 2.4h.2c4 0 7.2 3.3 7.2 7.4v3.3H28.6v-3.3c0-4.1 3.2-7.4 7.3-7.4zm.1 12.9a3.163 3.221 0 0 1 3.1 3.2 3.163 3.221 0 0 1-1.5 2.8v3.7c0 .9-.7 1.7-1.6 1.7-.9 0-1.6-.8-1.6-1.7v-3.7a3.163 3.221 0 0 1-1.6-2.8 3.163 3.221 0 0 1 3.2-3.2z" fill="#ca005d" overflow="visible" style="isolation:auto;mix-blend-mode:normal"/>
    <path d="M28 320.7h16v-16H28zm0-29.2h16v-16H28zm0-29h16v-16H28zm0-29.1h16v-16H28zm0-29.1h16v-16H28zm0-29.1h15.89l.11-16H28.11z" fill="#ca005d" font-family="sans-serif" font-weight="400" overflow="visible" style="line-height:normal;text-indent:0;text-align:start;text-decoration-line:none;text-decoration-style:solid;text-decoration-color:#000;text-transform:none;block-progression:tb;isolation:auto;mix-blend-mode:normal" white-space="normal"/>
    <text class="hw" fill="#ca005d" font-family="sans-serif" font-size="26" font-weight="700" text-anchor="middle" x="36" y="420">
        HWK
    </text>
</svg>