<svg data-type="schut-storm-punt-rechts" height="480" version="1.1" viewBox="0 0 144 480" width="144" xmlns="http://www.w3.org/2000/svg" xmlns:cc="http://creativecommons.org/ns#" xmlns:dc="http://purl.org/dc/elements/1.1/" xmlns:rdf="http://www.w3.org/1999/02/22-rdf-syntax-ns#" xmlns:svg="http://www.w3.org/2000/svg" xmlns:xlink="http://www.w3.org/1999/xlink">
          <metadata id="metadata48">
                    <rdf:RDF>
                              <cc:Work rdf:about="">
                                        <dc:format>image/svg+xml</dc:format>
                                        <dc:type rdf:resource="http://purl.org/dc/dcmitype/StillImage"/>
                                        <dc:title>punt</dc:title>
                              </cc:Work>
                    </rdf:RDF>
          </metadata>
          <defs id="defs3">
                    <symbol id="d67a4990" viewBox="0 0 15 15">
                              <circle cx="7.5" cy="7.5" id="circle6" r="6" stroke="#474747" stroke-miterlimit="10" stroke-width="3"/>
                    </symbol>
          </defs>
          <title id="title8">punt</title>
          <path d="m 144,168 l -144,0 l 0,144 l 144,0 z" id="path10" style="fill:#d9ebf7"/>
          <path d="m 120,312 l 24,0 m 0,-144 l -24,0 m -120,144 l 24,0 m 0,-144 l -24,0" id="path12" stroke-miterlimit="10" style="fill:none;stroke:#9fceea;stroke-width:3;stroke-miterlimit:10"/>
          <path d="m 120,312 l -96,0 l 0,12 l 96,0 z" id="path14" style="fill:#d9ebf7"/>
          <path d="m 24,312 l 96,0 l 0,12 l -90,0 l -6,-12 z" id="path16" style="fill:#d9ebf7"/>
          <path d="m 63.17,242.6 l -23.97,78" id="path18" overflow="visible" style="color:#000000;overflow:visible;isolation:auto;mix-blend-mode:normal;fill:none;stroke:#ffffff;stroke-width:9;stroke-linecap:round"/>
          <path d="m 120,169.2 l 0,-13.2 l -90,0 l -6,13.2 z" id="path20" style="fill:#d9ebf7"/>
          <path d="m 63.17,238.6 l -23.97,-78" id="path22" overflow="visible" style="color:#000000;overflow:visible;isolation:auto;mix-blend-mode:normal;fill:none;stroke:#ffffff;stroke-width:9;stroke-linecap:round"/>
          <path d="m 61.37,242.6 l -23.97,78" id="path24" overflow="visible" style="color:#000000;overflow:visible;isolation:auto;mix-blend-mode:normal;fill:none;stroke:#ca005d;stroke-width:5;stroke-linecap:round"/>
          <path d="m 25,318 l 24,-78 l 10,0 l -24,78 l -10,0 z" id="path26" stroke-miterlimit="10" style="fill:#ffb612;stroke:#000000;stroke-miterlimit:10"/>
          <path d="m 30,324 l 0,-6 l -6,0 l 0,-6" id="path28" style="fill:none;stroke:#9fceea;stroke-width:3;stroke-linecap:square;stroke-linejoin:round"/>
          <path d="m 120,312 l 0,12 l -90,0" id="path30" style="fill:none;stroke:#7d7d7d;stroke-width:3;stroke-linecap:square;stroke-linejoin:round"/>
          <use height="15" id="use32" transform="matrix(-1,0,0,-1,37.5,325.5)" width="15" x="0" xlink:href="#d67a4990" y="0"/>
          <path d="m 61.37,237.5 l -23.97,-78" id="path34" overflow="visible" style="color:#000000;overflow:visible;isolation:auto;mix-blend-mode:normal;fill:none;stroke:#ca005d;stroke-width:5;stroke-linecap:round"/>
          <path d="m 25,162 l 24,78 l 10,0 l -24,-78 l -10,0 z" id="path36" stroke-miterlimit="10" style="fill:#ffb612;stroke:#000000;stroke-miterlimit:10"/>
          <path d="m 30,156 l 0,6 l -6,0 l 0,6" id="path38" style="fill:none;stroke:#9fceea;stroke-width:3;stroke-linecap:square;stroke-linejoin:round"/>
          <path d="m 120,168 l 0,-12 l -90,0" id="path40" style="fill:none;stroke:#7d7d7d;stroke-width:3;stroke-linecap:square;stroke-linejoin:round"/>
          <use height="15" id="use42" transform="matrix(-1,0,0,1,37.5,154.5)" width="15" x="0" xlink:href="#d67a4990" y="0"/>
          <text font-family="sans-serif" font-size="36" id="text44" text-anchor="middle" width="144" x="72" y="420"/>
</svg>