<svg xmlns="http://www.w3.org/2000/svg" height="480" viewBox="0 0 120 480" width="120"><title>stopstreep</title><path d="M27.51 139.5h16.98l-1.32 14.2H28.83l-1.32-14.2" fill="#e17000"/><path d="M28.83 153.7h14.34L42.13 165H29.88l-1.05-11.3" fill="#fff4dc"/><path d="M29.87 165h12.26l-.72 7.7H30.58l-.71-7.7" fill="#e17000"/><path d="M30.59 172.7h10.82l-.62 6.7h-9.58l-.62-6.7" fill="#fff4dc"/><path d="M44.49 340.4H27.51l1.32-14.2h14.34l1.32 14.2" fill="#e17000"/><path d="M43.17 326.2H28.83l1.05-11.3h12.25l1.04 11.3" fill="#fff4dc"/><path d="M42.13 314.9H29.87l.71-7.7h10.83l.72 7.7" fill="#e17000"/><path d="M41.41 307.2H30.59l.62-6.7h9.58l.62 6.7" fill="#fff4dc"/><path class="kolk" d="M120 168H0v144h120z" fill="#d9ebf7"/><path d="M27.51 340.4h16.98l-3.7-39.9h-9.58zm16.98-200.9H27.51l3.7 39.9h9.58z" stroke-miterlimit="10" fill="none" stroke="#999"/><path d="M36 168v144" stroke-miterlimit="6" stroke="#9fceea" stroke-width="2" stroke-dasharray="8,4"/><path class="kolk-border" d="M120 168H0m120 144H0" stroke-miterlimit="10" fill="none" stroke="#9fceea" stroke-width="3"/><path style="line-height:normal;text-indent:0;text-align:start;text-decoration-line:none;text-decoration-style:solid;text-decoration-color:#000;text-transform:none;block-progression:tb;isolation:auto;mix-blend-mode:normal" d="M67 168l-19 19v9.9L76.9 168zm24.02 0L48 211v9.9l52.94-52.9zm24 0L48 235v9.9l72-71.9v-5zm4.97 19.1L48 259v9.9l2.5-2.4L120 197v-9.9zm0 24L48 283v9.9l72-71.9v-9.9zm0 24l-2.47 2.4L48 307v5h5l67-67v-9.9zm-.18 23.5L66.8 311.5l.5.5h9l43.7-43.7v-9.5zm0 24L90.37 312h9.92L120 292.3v-9.5z" color="#000" font-weight="400" font-family="sans-serif" white-space="normal" overflow="visible" fill="#e17000" fill-rule="evenodd"/></svg>