<svg xmlns="http://www.w3.org/2000/svg" height="480" viewBox="0 0 120 480" width="120">
    <title>
        stopstreep
    </title>
    <path d="M92.49 139.5H75.51l1.32 14.2h14.34l1.32-14.2" fill="#e17000"/>
    <path d="M91.17 153.7H76.83l1.04 11.3h12.25l1.05-11.3" fill="#fff4dc"/>
    <path d="M90.13 165H77.87l.72 7.7h10.83l.71-7.7" fill="#e17000"/>
    <path d="M89.41 172.7H78.59l.62 6.7h9.58l.62-6.7" fill="#fff4dc"/>
    <path d="M75.51 340.4h16.98l-1.32-14.2H76.83l-1.32 14.2" fill="#e17000"/>
    <path d="M76.83 326.2h14.34l-1.05-11.3H77.87l-1.04 11.3" fill="#fff4dc"/>
    <path d="M77.87 314.9h12.26l-.71-7.7H78.59l-.72 7.7" fill="#e17000"/>
    <path d="M78.59 307.2h10.82l-.62-6.7h-9.58l-.62 6.7" fill="#fff4dc"/>
    <path class="kolk" d="M0 168h120v144H0z" fill="#d9ebf7"/>
    <path d="M92.49 340.4H75.51l3.7-39.9h9.58zM75.51 139.5h16.98l-3.7 39.9h-9.58z" stroke-miterlimit="10" fill="none" stroke="#999"/>
    <path d="M84 168v144" stroke-miterlimit="6" stroke="#9fceea" stroke-width="2" stroke-dasharray="8,4"/>
    <path class="kolk-border" d="M0 168h120M0 312h120" stroke-miterlimit="10" fill="none" stroke="#9fceea" stroke-width="3"/>
    <path style="line-height:normal;text-indent:0;text-align:start;text-decoration-line:none;text-decoration-style:solid;text-decoration-color:#000;text-transform:none;block-progression:tb;isolation:auto;mix-blend-mode:normal" d="M18.998 168L0 187v9.9L28.898 168zm24.022 0L0 211v9.9L52.94 168zm24 0L0 235v9.9L72 173v-5zm4.97 19.1L0 259v9.9l2.5-2.4L72 197v-9.9zm0 24L0 283v9.9L72 221v-9.9zm0 24l-2.47 2.4L0 307v5h5l67-67v-9.9zm-.18 23.5l-53.012 52.9.5.5h9L72 268.3v-9.5zm0 24L42.37 312h9.92L72 292.3v-9.5z" color="#000" font-weight="400" font-family="sans-serif" white-space="normal" overflow="visible" fill="#e17000" fill-rule="evenodd"/>
</svg>
