<svg xmlns="http://www.w3.org/2000/svg" width="72" viewBox="24 0 72 480" height="480">
    <title>
        stopstreep
    </title>
    <path fill="#d52b1e" d="M68.49 139.5H51.51l1.32 14.2h14.34l1.32-14.2"/>
    <path fill="#fff4dc" d="M67.17 153.7H52.83l1.04 11.3h12.25l1.05-11.3"/>
    <path fill="#d52b1e" d="M66.13 165H53.87l.72 7.7h10.83l.71-7.7"/>
    <path fill="#fff4dc" d="M65.41 172.7H54.59l.62 6.7h9.58l.62-6.7"/>
    <path fill="#d52b1e" d="M51.51 340.4h16.98l-1.32-14.2H52.83l-1.32 14.2"/>
    <path fill="#fff4dc" d="M52.83 326.2h14.34l-1.05-11.3H53.87l-1.04 11.3"/>
    <path fill="#d52b1e" d="M53.87 314.9h12.26l-.71-7.7H54.59l-.72 7.7"/>
    <path fill="#fff4dc" d="M54.59 307.2h10.82l-.62-6.7h-9.58l-.62 6.7"/>
    <path class="kolk" d="M0 168h120v144H0z" fill="#d9ebf7"/>
    <path stroke-miterlimit="10" stroke="#999" fill="none" d="M68.49 340.4H51.51l3.7-39.9h9.58zM51.51 139.5h16.98l-3.7 39.9h-9.58z"/>
    <path stroke-width="2" stroke-miterlimit="6" stroke-dasharray="8,4" stroke="#9fceea" fill="#999" d="M60 168v144"/>
    <path class="kolk-border" stroke-miterlimit="10" d="M0 168h120M0 312h120" fill="none" stroke="#9fceea" stroke-width="3"/>
</svg>
