<svg xmlns="http://www.w3.org/2000/svg" viewBox="0 0 48 480" height="480" width="48">
    <title>
        Stopstreep
    </title>
    <path style="isolation:isolate" d="M32.49 139.5H15.51l1.32 14.2h14.34l1.32-14.2" fill="#d52b1e"/>
    <path style="isolation:isolate" d="M31.17 153.7H16.83l1.04 11.3h12.25l1.05-11.3" fill="#fff4dc"/>
    <path style="isolation:isolate" d="M30.12 165H17.87l.72 7.7h10.82l.71-7.7" fill="#d52b1e"/>
    <path style="isolation:isolate" d="M29.41 172.7H18.59l.62 6.7h9.58l.62-6.7" fill="#fff4dc"/>
    <path d="M19.21 179.37l-3.7-39.84h16.98l-3.7 39.84h-9.58z" fill="none"/>
    <path d="M32.49 139.53H15.51l1.32 14.2h14.34l1.32-14.2" fill="#d52b1e"/>
    <path d="M31.17 153.73H16.83L17.87 165h12.25l1.05-11.27" fill="#fff4dc"/>
    <path d="M30.12 165H17.87l.72 7.72h10.82l.71-7.72" fill="#d52b1e"/>
    <path d="M29.41 172.72H18.59l.62 6.65h9.58l.62-6.65" fill="#fff4dc"/>
    <path d="M28.79 300.53l3.7 39.84H15.51l3.7-39.84h9.58z" fill="none"/>
    <path d="M15.51 340.37h16.98l-1.32-14.2H16.83l-1.32 14.2" fill="#d52b1e"/>
    <path d="M16.83 326.17h14.34l-1.05-11.27H17.87l-1.04 11.27" fill="#fff4dc"/>
    <path d="M17.87 314.9h12.25l-.71-7.72H18.59l-.72 7.72" fill="#d52b1e"/>
    <path d="M18.59 307.18h10.82l-.62-6.65h-9.58l-.62 6.65" fill="#fff4dc"/>
    <path fill="#d9ebf7" d="M0 168h48v144H0z"/>
    <path d="M32.49 340.37H15.51l3.7-39.84h9.58l3.7 39.84zM15.51 139.53h16.98l-3.7 39.84h-9.58l-3.7-39.84z" stroke-miterlimit="10" stroke="#999" fill="none"/>
    <path d="M24 168v144" stroke-dasharray="8,4" stroke="#9fceea" fill="#999" stroke-width="2" stroke-miterlimit="6"/>
    <path stroke-miterlimit="10" d="M0 168h48M0 312h48" fill="none" stroke="#9fceea" stroke-width="3"/>
</svg>
