<svg xmlns="http://www.w3.org/2000/svg" xmlns:xlink="http://www.w3.org/1999/xlink" viewBox="0 0 144 480" height="480" width="144"><defs><symbol viewBox="0 0 15 15"  id="a"><circle stroke-width="3" stroke-miterlimit="10" stroke="#474747" r="6" cy="7.5" cx="7.5"/></symbol></defs><title>stormdeur</title><path d="M0 168h144v144H0z" fill="#d9ebf7"/><path stroke-miterlimit="10" fill="none" stroke="#9fceea" stroke-width="3" d="M24 312H0m0-144h24m120 144h-24m0-144h24"/><path fill="#d9ebf7" d="M24 312h96v12H24z"/><path fill="none" stroke="#9fceea" stroke-width="3" stroke-linecap="square" stroke-linejoin="round" d="M114 324v-6h6v-6"/><path fill="#d9ebf7" d="M24 324h90l6-12H24z"/><path fill="#ca005d" stroke="#000" stroke-linejoin="round" d="M84 240l24 78h13l-24-78z"/><path fill="none" stroke="#7d7d7d" stroke-width="3" stroke-linecap="square" stroke-linejoin="round" d="M24 312v12h90"/><use xlink:href="#a" transform="matrix(1 0 0 -1 106.5 325.5)" height="15" width="15"/><path fill="none" stroke="#9fceea" stroke-width="3" stroke-linecap="square" stroke-linejoin="round" d="M114 156v6h6v6"/><path fill="#d9ebf7" d="M24 156h90l6 12H24z"/><path fill="#ca005d" stroke="#000" stroke-linejoin="round" d="M84 240l24-78h13l-24 78z"/><path fill="none" stroke="#7d7d7d" stroke-width="3" stroke-linecap="square" stroke-linejoin="round" d="M24 168v-12h90"/><use xlink:href="#a" transform="translate(106.5 154.5)" height="15" width="15"/></svg>