<svg data-type="stormdeur-rechts" height="480" viewBox="0 0 144 480" width="144" xmlns="http://www.w3.org/2000/svg" xmlns:xlink="http://www.w3.org/1999/xlink">
    <defs>
        <symbol id="a" viewBox="0 0 15 15">
            <circle cx="7.5" cy="7.5" r="6" stroke="#474747" stroke-miterlimit="10" stroke-width="3"/>
        </symbol>
    </defs>
    <title>
        stormdeur
    </title>
    <path d="M144 168H0v144h144z" fill="#d9ebf7"/>
    <path d="M120 312h24m0-144h-24M0 312h24m0-144H0" fill="none" stroke="#9fceea" stroke-miterlimit="10" stroke-width="3"/>
    <path d="M120 312H24v12h96z" fill="#d9ebf7"/>
    <path d="M30 324v-6h-6v-6" fill="none" stroke="#9fceea" stroke-linecap="square" stroke-linejoin="round" stroke-width="3"/>
    <path d="M120 324H30l-6-12h96z" fill="#d9ebf7"/>
    <path d="M60 240l-24 78H23l24-78z" fill="#ca005d" stroke="#000" stroke-linejoin="round"/>
    <path d="M120 312v12H30" fill="none" stroke="#7d7d7d" stroke-linecap="square" stroke-linejoin="round" stroke-width="3"/>
    <use height="15" transform="rotate(180 18.75 162.75)" width="15" xlink:href="#a"/>
    <path d="M30 156v6h-6v6" fill="none" stroke="#9fceea" stroke-linecap="square" stroke-linejoin="round" stroke-width="3"/>
    <path d="M120 156H30l-6 12h96z" fill="#d9ebf7"/>
    <path d="M60 240l-24-78H23l24 78z" fill="#ca005d" stroke="#000" stroke-linejoin="round"/>
    <path d="M120 168v-12H30" fill="none" stroke="#7d7d7d" stroke-linecap="square" stroke-linejoin="round" stroke-width="3"/>
    <use height="15" transform="matrix(-1 0 0 1 37.5 154.5)" width="15" xlink:href="#a"/>
    <text font-family="sans-serif" font-size="36" text-anchor="middle" x="72" y="420"/>
    <text class="hw" font-family="sans-serif" font-size="26" text-anchor="middle" x="72" y="420" fill="#ca005d" font-weight="700">
        HW
    </text>
</svg>
