<svg data-type="stormdeur-links" height="480" version="1.1" viewBox="0 0 144 480" width="144" xmlns="http://www.w3.org/2000/svg" xmlns:svg="http://www.w3.org/2000/svg" xmlns:xlink="http://www.w3.org/1999/xlink">

          <defs id="defs3">
                    <symbol id="935164dc" viewBox="0 0 15 15">
                              <circle cx="7.5" cy="7.5" id="circle6" r="6" stroke="#474747" stroke-miterlimit="10" stroke-width="3"/>
                    </symbol>
          </defs>
          <title id="title8">stormdeur</title>
          <path d="M0 168h144v144H0z" fill="#d9ebf7" id="path10"/>
          <path d="M24 312H0m0-144h24m120 144h-24m0-144h24" fill="none" id="path12" stroke="#9fceea" stroke-miterlimit="10" stroke-width="3"/>
          <path d="M24 312h96v12H24z" fill="#d9ebf7" id="path14"/>
          <path d="M114 324v-6h6v-6" fill="none" id="path16" stroke="#9fceea" stroke-linecap="square" stroke-linejoin="round" stroke-width="3"/>
          <path d="M24 324h90l6-12H24z" fill="#d9ebf7" id="path18"/>
          <path d="M84 240l24 78h13l-24-78z" fill="#ca005d" id="path20" stroke="#000" stroke-linejoin="round"/>
          <path d="M24 312v12h90" fill="none" id="path22" stroke="#7d7d7d" stroke-linecap="square" stroke-linejoin="round" stroke-width="3"/>
          <use height="15" id="use24" transform="matrix(1 0 0 -1 106.5 325.5)" width="15" xlink:href="#935164dc"/>
          <path d="M114 156v6h6v6" fill="none" id="path26" stroke="#9fceea" stroke-linecap="square" stroke-linejoin="round" stroke-width="3"/>
          <path d="M24 156h90l6 12H24z" fill="#d9ebf7" id="path28"/>
          <path d="M84 240l24-78h13l-24 78z" fill="#ca005d" id="path30" stroke="#000" stroke-linejoin="round"/>
          <path d="M24 168v-12h90" fill="none" id="path32" stroke="#7d7d7d" stroke-linecap="square" stroke-linejoin="round" stroke-width="3"/>
          <use height="15" id="use34" transform="translate(106.5 154.5)" width="15" xlink:href="#935164dc"/>
          <text font-family="sans-serif" font-size="36" id="text36" text-anchor="middle" width="144" x="72" y="420"/>
</svg>