<svg height="480" viewBox="0 0 144 480" width="144" xmlns="http://www.w3.org/2000/svg"><title>stroomopwaarts</title><path d="M0 168h144v144H0z" fill="#d9ebf7"/><path d="M13.41 230.5v-2.7q1.36.4 2.32.5 1 .1 2.2.1 1.84 0 2.96-.8 1.12-.8 1.12-2 0-.9-.52-1.6-.48-.8-1.84-1.8l-1.88-1.2q-1.36-1-2.08-2-.72-1.2-.68-2.5 0-2.4 1.88-4.1 1.88-1.6 4.64-1.6 1.04 0 1.96.1.92.1 1.96.2l-.24 2.6q-1.16-.2-1.96-.3-.8-.1-1.84-.1-1.6 0-2.6.8t-1 1.9q0 .9.44 1.5.44.7 1.52 1.3l1.92 1.2q1.76 1.1 2.52 2.3.76 1.2.76 2.7 0 2.5-2.08 4.3-2.08 1.7-5.16 1.7-1.36 0-2.32-.1-.96-.1-2.04-.4zM28.44 213.4v-2.3h2.28l.4-4.2 2.84-.4-.48 4.6h4.04l-.24 2.3h-4.04l-1.16 11.5q-.2 2.1.24 2.8.48.7 1.48.7.76 0 1.32-.1.6-.1 1.48-.4v2.5q-1 .4-1.76.5-.72.1-1.92.1-2.04 0-3.04-1.3-.96-1.4-.64-4.6l1.2-11.7h-2zM50.13 211l-.36 2.8H48.61q-1.12 0-2.36 1-1.24 1-2.36 2.9l-1.12 13h-2.84l1.64-19.4 2.84-.4-.36 3.7h.16q1.36-2.4 2.36-3.1 1.04-.7 2.24-.7h.68q.36.1.64.2zM57.77 231q-3.04 0-4.84-1.8-1.76-1.8-1.76-6.1 0-6 2.56-9.2 2.6-3.2 6.08-3.2 3.04 0 4.8 2.1 1.76 2 1.76 6 0 5.8-2.64 9-2.6 3.2-5.96 3.2zm-3.64-8.3q0 3.4 1.08 4.6 1.12 1.3 2.8 1.3 1.96 0 3.68-2.3 1.72-2.3 1.72-7.1 0-3.1-1.04-4.5t-2.92-1.4q-1.92 0-3.64 2.3-1.68 2.4-1.68 7.1zM76.44 231q-3.04 0-4.84-1.8-1.76-1.8-1.76-6.1 0-6 2.56-9.2 2.6-3.2 6.08-3.2 3.04 0 4.8 2.1 1.76 2 1.76 6 0 5.8-2.64 9-2.6 3.2-5.96 3.2zm-3.64-8.3q0 3.4 1.08 4.6 1.12 1.3 2.8 1.3 1.96 0 3.68-2.3 1.72-2.3 1.72-7.1 0-3.1-1.04-4.5t-2.92-1.4q-1.92 0-3.64 2.3-1.68 2.4-1.68 7.1zM88.6 230.7l1.76-19.4 2.84-.4-.28 3h.12q1.72-1.7 3-2.4t2.76-.7q1.6 0 2.5.8.9.8 1.3 2.4h.1q1.7-1.7 3.1-2.5 1.4-.7 2.9-.7 2 0 3.1 1.5 1.2 1.5.8 5l-1.2 13.4h-2.9l1.3-12.9q.2-2.4-.4-3.4-.6-.9-1.5-.9t-2.1.7q-1.2.6-3 2.1l-1.4 14.4h-2.84l1.24-12.9q.2-2.4-.24-3.4-.48-.9-1.52-.9-.92 0-2.2.8-1.28.7-3.12 2.3l-1.28 14.1H88.6zM118 220.5v-2.6h10.2v2.6H118zM12.54 266.2q-3.043 0-4.843-1.8-1.76-1.8-1.76-6.1 0-6 2.56-9.2 2.603-3.2 6.083-3.2 3.04 0 4.8 2.1 1.76 2 1.76 6 0 5.8-2.64 9-2.6 3.2-5.96 3.2zm-3.643-8.3q0 3.4 1.08 4.6 1.123 1.3 2.803 1.3 1.96 0 3.68-2.3 1.72-2.3 1.72-7.1 0-3.1-1.04-4.5t-2.92-1.4q-1.92 0-3.64 2.3-1.683 2.4-1.683 7.1zM28.77 252.2l-1.04 11.4q.52.2 1.04.2h1.08q2.52 0 4.56-2.5 2.08-2.6 2.08-8.3 0-2.4-.72-3.4-.72-.9-1.76-.9-.96 0-2.4.9t-2.84 2.6zm-1.92 21.3h-2.84l2.44-27 2.88-.4-.36 3.2h.12q1.56-1.8 2.92-2.6 1.4-.7 2.88-.7 2.04 0 3.28 1.5 1.28 1.6 1.28 5.3 0 6.7-3 10.1-2.96 3.3-6.64 3.3h-1.24q-.52-.1-1.04-.3l-.68 7.6zM45.73 265.9l-3.04-19.6h3.04l2.16 17h.16l.92-1.9q1.08-2.3 2.24-5.4 1.16-3.1 1.92-5.8l-.56-3.9h2.92l2.24 17h.16l.92-1.9q1.64-3.4 2.56-7 .96-3.6 1.48-8.1h2.96q-.6 4.7-1.76 8.4-1.12 3.7-3.12 7.4l-2 3.8h-3.36L53.89 254h-.1q-.56 2.2-1.32 4.4-.76 2.1-1.72 4l-1.68 3.5h-3.36zM78.33 259.7l1-11.1q-.52-.1-1.2-.2h-1.32q-2.24 0-4.2 2.7-1.92 2.8-1.92 8.1 0 2.5.68 3.5.72.9 1.72.9 1.04 0 2.4-.9 1.4-1 2.84-3zm1.68-13.4l2.4-.4-1.8 20h-2.76l.32-3.2h-.12q-1.32 1.8-2.8 2.7-1.48.8-3.12.8-1.96 0-3.2-1.5-1.2-1.5-1.2-5.3 0-6.5 2.84-10 2.88-3.4 6.48-3.4h1.6q.72.1 1.36.3zM96.69 259.7l1-11.1q-.52-.1-1.2-.2h-1.32q-2.24 0-4.2 2.7-1.92 2.8-1.92 8.1 0 2.5.68 3.5.72.9 1.72.9 1.04 0 2.4-.9 1.4-1 2.84-3zm1.68-13.4l2.43-.4-1.83 20h-2.76l.32-3.2h-.12q-1.32 1.8-2.8 2.7-1.48.8-3.12.8-1.96 0-3.2-1.5-1.2-1.5-1.2-5.3 0-6.5 2.84-10 2.88-3.4 6.48-3.4h1.6q.72.1 1.36.3zM114.9 246.2l-.4 2.8h-1.1q-1.1 0-2.4 1-1.2 1-2.3 2.9l-1.2 13h-2.8l1.6-19.4 2.9-.4-.4 3.7h.2q1.3-2.4 2.3-3.1 1.1-.7 2.3-.7h.7l.6.2zM116 248.6v-2.3h2.3l.4-4.2 2.8-.4-.4 4.6h4l-.2 2.3h-4.1l-1.1 11.5q-.2 2.1.2 2.8.5.7 1.5.7.7 0 1.3-.1.6-.1 1.5-.4v2.5q-1 .4-1.8.5-.7.1-1.9.1-2 0-3-1.3-1-1.4-.7-4.6l1.2-11.7h-2zM126 265.7V263q1.4.4 2.3.5 1 .1 2.2.1 1.9 0 3-.8t1.1-2q0-.9-.5-1.6-.5-.8-1.8-1.8l-1.9-1.2q-1.4-1-2.1-2-.7-1.2-.7-2.5 0-2.4 1.9-4.1 1.9-1.6 4.6-1.6 1.1 0 2 .1.9.1 2 .2l-.3 2.6q-1.1-.2-1.9-.3-.8-.1-1.9-.1-1.6 0-2.6.8t-1 1.9q0 .9.5 1.5.4.7 1.5 1.3l1.9 1.2q1.8 1.1 2.5 2.3.8 1.2.8 2.7 0 2.5-2.1 4.3-2.1 1.7-5.2 1.7-1.3 0-2.3-.1-.9-.1-2-.4z" fill="#007bc7" font-family="RijksoverheidSansWebText" font-style="italic" font-weight="400" letter-spacing="0" style="line-height:88%;-inkscape-font-specification:'RijksoverheidSansWebText Italic';text-align:center" text-anchor="middle" word-spacing="0"/></svg>