<svg data-type="waaier-rechts" height="480" version="1.1" viewBox="0 0 120 480" width="120" xmlns="http://www.w3.org/2000/svg" xmlns:cc="http://creativecommons.org/ns#" xmlns:dc="http://purl.org/dc/elements/1.1/" xmlns:rdf="http://www.w3.org/1999/02/22-rdf-syntax-ns#" xmlns:svg="http://www.w3.org/2000/svg" xmlns:xlink="http://www.w3.org/1999/xlink">
          <metadata id="metadata62">
                    <rdf:RDF>
                              <cc:Work rdf:about="">
                                        <dc:format>image/svg+xml</dc:format>
                                        <dc:type rdf:resource="http://purl.org/dc/dcmitype/StillImage"/>
                                        <dc:title>waaier</dc:title>
                              </cc:Work>
                    </rdf:RDF>
          </metadata>
          <defs id="defs3">
                    <symbol id="dc332689" viewBox="0 0 15 15">
                              <circle cx="7.5" cy="7.5" id="circle6" r="6" stroke="#474747" stroke-miterlimit="10" stroke-width="3"/>
                    </symbol>
          </defs>
          <title id="title8">waaier</title>
          <path d="m 95.64,312.4 c 0,39.8 -32.77,72 -73.2,72 l 0,-72 z m -73.24,1.6 l -6.1,0 l 0,72 l 6.1,0 z m 0,-218 l -6.1,0 l 0,72 l 6.1,0 z m 73.24,71.9 c 0,-39.8 -32.75,-72.05 -73.2,-72.05 l 0,72.05 z m 24.36,0.1 l -120,0 l 0,144 l 120,0 z" id="path10" style="fill:#d9ebf7"/>
          <path d="m 92.22,310.3 c 0,-32.7 -23.49,-59.9 -54.51,-65.7" id="path12" style="fill:none;stroke:#ffffff;stroke-width:7;stroke-linecap:square"/>
          <path d="m 23.23,386.1 c 40.85,0 73.96,-33.1 73.96,-74" id="path14" style="fill:none;stroke:#7d7d7d;stroke-width:3.082;stroke-linecap:square"/>
          <path d="m 24.73,238.4" id="path16" style="fill:none;stroke:#ffffff;stroke-width:5;stroke-linecap:square"/>
          <path d="m 120,168 l -21.3,0 m 21.3,144 l -21.3,0 m -80.7,0 l -18,0 m 18,-144 l -18,0" id="path18" stroke-miterlimit="10" style="fill:none;stroke:#9fceea;stroke-width:3;stroke-miterlimit:10"/>
          <path d="m 24.73,242.7" id="path20" style="fill:none;stroke:#ffffff;stroke-width:5;stroke-linecap:square"/>
          <path d="m 18,167.8 l 0,-73.56 l 6,0" id="path22" stroke-miterlimit="10" style="fill:none;stroke:#7d7d7d;stroke-width:2.993;stroke-linecap:square;stroke-miterlimit:10"/>
          <path d="m 24,168 l 70,0 m -70,0 l 60.6,35 m -60.6,-35 l 35,60.6" id="path24" stroke-miterlimit="10" style="fill:none;stroke:#ffffff;stroke-width:5;stroke-miterlimit:10"/>
          <path d="m 92.22,169.5 c 0,32.7 -23.59,60 -54.71,65.7" id="path26" style="fill:none;stroke:#ffffff;stroke-width:7;stroke-linecap:square"/>
          <path d="m 24,168 l 60.6,35 m -60.6,-35 l 35,60.6" id="path28" stroke-miterlimit="10" style="fill:none;stroke:#94710a;stroke-width:3;stroke-miterlimit:10"/>
          <path d="m 92.22,169.5 c 0,32.5 -23.3,59.7 -54.14,65.6" id="path30" style="fill:none;stroke:#000000;stroke-width:3.5;stroke-linecap:square"/>
          <path d="m 24.73,238.4" id="path32" style="fill:none;stroke:#000000;stroke-width:2.821;stroke-linecap:square"/>
          <path d="m 24,168 l 70,0" id="path34" stroke-miterlimit="10" style="fill:none;stroke:#94710a;stroke-width:3;stroke-miterlimit:10"/>
          <path d="m 30,167.5 l -12,0 l 14,72 l 12,0 z" id="path36" style="fill:#ffb612;stroke:#000000;stroke-linecap:round;stroke-linejoin:round"/>
          <use height="15" id="use38" transform="matrix(-1,0,0,1,31.5,160.5)" width="15" x="0" xlink:href="#dc332689" y="0"/>
          <path d="m 97.19,168.1 a 73.96,73.96 0 0 0 -73.96,-73.96" id="path40" style="fill:none;stroke:#7d7d7d;stroke-width:3.082;stroke-linecap:square"/>
          <path d="m 18,312 l 0,74 l 6,0" id="path42" stroke-miterlimit="10" style="fill:none;stroke:#7d7d7d;stroke-width:3;stroke-linecap:square;stroke-miterlimit:10"/>
          <path d="m 24,312 l 70,0 m -70,0 l 60.6,-35 m -60.6,35 l 35,-60.6" id="path44" stroke-miterlimit="10" style="fill:none;stroke:#ffffff;stroke-width:5;stroke-miterlimit:10"/>
          <path d="m 24,312 l 60.6,-35 m -60.6,35 l 35,-60.6" id="path46" stroke-miterlimit="10" style="fill:none;stroke:#94710a;stroke-width:3;stroke-miterlimit:10"/>
          <path d="m 24.73,242.7" id="path48" style="fill:none;stroke:#000000;stroke-width:2.821;stroke-linecap:square"/>
          <path d="m 92.22,310.3 c 0,-32.7 -23.55,-60 -54.64,-65.7" id="path50" style="fill:none;stroke:#000000;stroke-width:3.5;stroke-linecap:square"/>
          <path d="m 24,312 l 70,0" id="path52" stroke-miterlimit="10" style="fill:none;stroke:#94710a;stroke-width:3;stroke-miterlimit:10"/>
          <path d="m 44,240.5 l -12,0 l -14,72 l 12,0 z" id="path54" style="fill:#ffb612;stroke:#000000;stroke-linecap:round;stroke-linejoin:round"/>
          <use height="15" id="use56" transform="matrix(-1,0,0,-1,31.5,319.5)" width="15" x="0" xlink:href="#dc332689" y="0"/>
          <text font-family="sans-serif" font-size="36" id="text58" text-anchor="middle" width="120" x="60" y="420"/>
</svg>