<svg xmlns="http://www.w3.org/2000/svg" width="64" height="32" viewBox="0 0 64 32"><title>ABC</title><path d="M12.18,9.19l3.63,12.46H13L12.27,19H8.06l-.68,2.68H4.81L8.46,9.19ZM11.76,17l-1.54-5.78h-.13L8.55,17Z"/><path d="M22,11l4.58,4.56L22,20.17l-1.29-1.29L23,16.54v0H16.21V14.68H23v0l-2.32-2.32Z"/><path d="M44.11,11l4.58,4.56-4.58,4.58-1.29-1.29,2.32-2.34v0H38.36V14.68h6.78v0l-2.32-2.32Z"/><path d="M32,21.65H28.11V9.19h3.47a6,6,0,0,1,3.57.84,2.58,2.58,0,0,1,1.11,2.15,3.07,3.07,0,0,1-.56,1.9,3,3,0,0,1-1.4,1v0a3.35,3.35,0,0,1,1.82,1,2.56,2.56,0,0,1,.67,1.8,3.36,3.36,0,0,1-1.21,2.76A5.59,5.59,0,0,1,32,21.65Zm-.48-10.51h-1v3.25h.87A2.89,2.89,0,0,0,33.11,14a1.51,1.51,0,0,0,.57-1.32,1.36,1.36,0,0,0-.48-1.14A2.8,2.8,0,0,0,31.51,11.14Zm-.17,5.07h-.8v3.48h1.35a2.72,2.72,0,0,0,1.68-.46,1.57,1.57,0,0,0,.6-1.33,1.43,1.43,0,0,0-.65-1.24A4,4,0,0,0,31.34,16.22Z"/><path d="M59.05,19.47v2a12.25,12.25,0,0,1-1.32.25,13.84,13.84,0,0,1-1.45.06,6.56,6.56,0,0,1-4.37-1.49,5.54,5.54,0,0,1-1.77-4.49A6.43,6.43,0,0,1,52,10.75a6.6,6.6,0,0,1,4.55-1.69,12.26,12.26,0,0,1,1.25.06q.55.06,1.19.19l-.17,2.09a10.06,10.06,0,0,0-1.2-.16q-.48,0-1.16,0a3.67,3.67,0,0,0-2.67,1.09,4.4,4.4,0,0,0-1.11,3.28,4,4,0,0,0,1.14,3.13,3.73,3.73,0,0,0,2.55,1,13.15,13.15,0,0,0,1.34-.06Q58.29,19.6,59.05,19.47Z"/></svg>