<svg xmlns="http://www.w3.org/2000/svg" width="64" height="32" viewBox="0 0 64 32"><title>chamber-orientation-WO</title><path d="M9.49,22,6.11,8.86H9l2.48,10.72h.12l2.54-8-.84-2.72h2.8l3.1,10.72h.12L21.75,8.86h2.68L21,22h-3.6l-2.1-7.38h-.1L13,22Z"/><path d="M24.23,17.24v-2H43.07v2Z"/><path d="M44.59,15.54a6.56,6.56,0,0,1,1.93-5.1A6.47,6.47,0,0,1,51,8.68a6.25,6.25,0,0,1,4.33,1.62,6.4,6.4,0,0,1,1.8,5,6.59,6.59,0,0,1-1.91,5.1,6.39,6.39,0,0,1-4.48,1.76,6.31,6.31,0,0,1-4.36-1.62A6.38,6.38,0,0,1,44.59,15.54Zm2.72-.22a4.77,4.77,0,0,0,1.05,3.48,3.46,3.46,0,0,0,2.52,1,3.54,3.54,0,0,0,2.44-1,4.29,4.29,0,0,0,1.11-3.3,4.83,4.83,0,0,0-1-3.49,3.41,3.41,0,0,0-2.51-1,3.53,3.53,0,0,0-2.47,1A4.35,4.35,0,0,0,47.31,15.32Z"/></svg>