<svg id="641ccc47-63df-455b-9d33-a9db617ec620" data-name="Layer 1" xmlns="http://www.w3.org/2000/svg" width="64" height="32" viewBox="0 0 64 32"><title>down-up</title><path d="M13.19,20.14H11.35v-.5a3.84,3.84,0,0,1-2.22.59c-1.65,0-2.53-.9-2.53-2.22,0-1.5,1.1-2.53,3.62-2.53l1.07,0v-.35c0-.82-.45-1.28-1.76-1.28a5.4,5.4,0,0,0-2.24.48L7,12.7a7,7,0,0,1,2.87-.59c2.26,0,3.3,1,3.3,2.85ZM9.71,18.7a3.42,3.42,0,0,0,1.57-.35V16.89l-1,0c-1.2,0-1.68.4-1.68,1S9,18.7,9.71,18.7Z" fill="#231f20"/><path d="M14.5,13.69V12.2h1v-.51c0-1.76.94-2.77,3.2-2.77A4.54,4.54,0,0,1,19.88,9l-.14,1.5a4.85,4.85,0,0,0-.94-.1c-.93,0-1.31.38-1.31,1.22v.53h1.92v1.49h-1.9v6.45h-2V13.69Z" fill="#231f20"/><path d="M36.05,15l-3.49,3.49-.75-.75L34,15.59v0H23.34V14.51H34v0L31.83,12.3l.74-.75Z" fill="#231f20"/><path d="M44.32,20.29c-2.21,0-3.78-1.34-3.78-4a4,4,0,0,1,4-4.27c2.21,0,3.78,1.34,3.78,4A4,4,0,0,1,44.32,20.29Zm.11-6.5c-1,0-1.89.85-1.89,2.48s.75,2.29,1.89,2.29,1.89-.86,1.89-2.48S45.55,13.79,44.43,13.79Z" fill="#231f20"/><path d="M50,12.25l1.9-.08v.61a3.45,3.45,0,0,1,2-.67c2,0,3.27,1.25,3.27,3.78A4.34,4.34,0,0,1,52,20.14V23.2H50ZM55.27,16c0-1.44-.72-2.11-1.86-2.11a3.54,3.54,0,0,0-1.41.26v4.32a4.59,4.59,0,0,0,.9.08C54.34,18.57,55.27,17.79,55.27,16Z" fill="#231f20"/></svg>