<svg xmlns="http://www.w3.org/2000/svg" width="72" height="72" viewBox="0 0 72 72"><title>network-dir-W</title><path d="M6.73,42.09l-3-11.81H6.3l2.23,9.65h.11l2.29-7.2-.76-2.45h2.52l2.79,9.65h.11l2.18-9.65h2.41L17.12,42.09H13.88L12,35.45H11.9l-2,6.64Z" fill="#0042a1"/><line x1="27.05" y1="36" x2="59.64" y2="36" fill="none" stroke="#000" stroke-miterlimit="10" stroke-width="2"/><circle cx="27.26" cy="36" r="3.76" fill="#fff"/><path d="M27.26,40.26A4.26,4.26,0,1,0,23,36a4.26,4.26,0,0,0,4.26,4.26Zm0-7.52A3.26,3.26,0,1,1,24,36a3.26,3.26,0,0,1,3.26-3.26Z"/><polygon points="55.71 41.18 57.91 36 55.71 30.82 68 36 55.71 41.18"/></svg>