<svg xmlns="http://www.w3.org/2000/svg" width="72" height="72" viewBox="0 0 72 72"><title>network-dir-N</title><path d="M37,18.62,33.64,9.08h-.11v9.54H31.46V6.81H35l3.35,9.54h.11V6.81h2.07V18.62Z" fill="#0042a1"/><line x1="36" y1="26.05" x2="36" y2="58.64" fill="none" stroke="#000" stroke-miterlimit="10" stroke-width="2"/><circle cx="36" cy="26.26" r="3.76" fill="#fff"/><path d="M31.74,26.26A4.26,4.26,0,1,0,36,22a4.26,4.26,0,0,0-4.26,4.26Zm7.52,0A3.26,3.26,0,1,1,36,23a3.26,3.26,0,0,1,3.26,3.26Z"/><polygon points="30.82 54.71 36 56.91 41.18 54.71 36 67 30.82 54.71"/></svg>