<svg xmlns="http://www.w3.org/2000/svg" width="72" height="72" viewBox="0 0 72 72"><title>network-dir-O</title><path d="M52.9,35.69a5.9,5.9,0,0,1,1.73-4.59,5.82,5.82,0,0,1,4.05-1.58A5.62,5.62,0,0,1,62.58,31a5.76,5.76,0,0,1,1.62,4.5,5.94,5.94,0,0,1-1.72,4.59,5.76,5.76,0,0,1-4,1.58,5.68,5.68,0,0,1-3.93-1.46A5.74,5.74,0,0,1,52.9,35.69Zm2.45-.2a4.29,4.29,0,0,0,.95,3.13,3.11,3.11,0,0,0,2.27.94,3.19,3.19,0,0,0,2.19-.92,3.86,3.86,0,0,0,1-3,4.35,4.35,0,0,0-.94-3.14,3.07,3.07,0,0,0-2.26-.95,3.18,3.18,0,0,0-2.22.93A3.91,3.91,0,0,0,55.35,35.5Z" fill="#0042a1"/><line x1="11.86" y1="36" x2="44.45" y2="36" fill="none" stroke="#000" stroke-miterlimit="10" stroke-width="2"/><polygon points="15.79 41.18 13.59 36 15.79 30.82 3.5 36 15.79 41.18"/><circle cx="44.24" cy="36" r="3.76" fill="#fff"/><path d="M44.24,40.26A4.26,4.26,0,1,1,48.5,36a4.26,4.26,0,0,1-4.26,4.26Zm0-7.52A3.26,3.26,0,1,0,47.5,36a3.26,3.26,0,0,0-3.26-3.26Z"/></svg>