<svg xmlns="http://www.w3.org/2000/svg" viewBox="0 0 299 768"><title>roos-rechts</title><path d="M43,149V619c129.79,0,235-105.21,235-235S172.79,149,43,149Z" fill="#e5f0f9"/><polygon points="43 640 31.38 612.37 19.75 584.73 43 584.73 66.25 584.73 54.62 612.37 43 640" fill="#cce0f1"/><polygon points="224.02 565.02 196.26 553.7 168.5 542.38 184.94 525.94 201.38 509.5 212.7 537.26 224.02 565.02" fill="#cce0f1"/><polygon points="299 384 271.37 395.62 243.73 407.25 243.73 384 243.73 360.75 271.37 372.38 299 384" fill="#cce0f1"/><polygon points="224.02 202.98 212.7 230.74 201.38 258.5 184.94 242.06 168.5 225.62 196.26 214.3 224.02 202.98" fill="#cce0f1"/><path d="M32.48,537.93v-5.4H54.22v5.15l-15.15,22v.2H54.32v5.4H31.63v-5.15l15.1-22.05v-.2Z" fill="#01689b"/><path d="M201,383.23q0-8.35,4.82-12.75a16.16,16.16,0,0,1,11.26-4.4,15.62,15.62,0,0,1,10.83,4q4.49,4.05,4.49,12.5t-4.77,12.75a16,16,0,0,1-11.21,4.4,15.77,15.77,0,0,1-10.91-4Q201,391.68,201,383.23Zm6.8-.55q0,6.1,2.63,8.7a8.63,8.63,0,0,0,6.29,2.6,8.85,8.85,0,0,0,6.09-2.55q2.78-2.55,2.78-8.25,0-6.1-2.61-8.72a8.51,8.51,0,0,0-6.27-2.62,8.82,8.82,0,0,0-6.17,2.57Q207.82,377,207.82,382.68Z" fill="#01689b"/></svg>