<svg id="a773932b-1af6-4cf1-96ad-c15830b0712f" data-name="Layer 1" xmlns="http://www.w3.org/2000/svg" width="64" height="32" viewBox="0 0 64 32"><title>up-down</title><path d="M10,20.35c-2.21,0-3.78-1.34-3.78-4a4,4,0,0,1,4-4.27c2.21,0,3.78,1.34,3.78,4A4,4,0,0,1,10,20.35Zm.11-6.5c-1,0-1.89.85-1.89,2.48s.75,2.29,1.89,2.29S12,17.76,12,16.14,11.21,13.85,10.09,13.85Z" fill="#231f20"/><path d="M15.71,12.31l1.9-.08v.61a3.45,3.45,0,0,1,2-.67c2,0,3.27,1.25,3.27,3.78A4,4,0,0,1,18.6,20.3a4,4,0,0,1-.93-.1v3.06h-2Zm5.22,3.78c0-1.44-.72-2.11-1.86-2.11a3.54,3.54,0,0,0-1.41.26v4.32a4.58,4.58,0,0,0,.9.08C20,18.64,20.92,17.85,20.92,16.09Z" fill="#231f20"/><path d="M40.13,15.1l-3.49,3.49-.75-.75,2.21-2.18v0H27.42V14.57H38.09v0L35.9,12.36l.74-.75Z" fill="#231f20"/><path d="M51.07,20.21H49.23v-.5A3.84,3.84,0,0,1,47,20.3c-1.65,0-2.53-.9-2.53-2.22,0-1.5,1.1-2.53,3.62-2.53l1.07,0v-.35c0-.82-.45-1.28-1.76-1.28a5.4,5.4,0,0,0-2.24.48l-.26-1.65a7,7,0,0,1,2.87-.59c2.26,0,3.3,1,3.3,2.85Zm-3.47-1.44a3.42,3.42,0,0,0,1.57-.35V17l-1,0c-1.2,0-1.68.4-1.68,1S46.89,18.76,47.59,18.76Z" fill="#231f20"/><path d="M52.38,13.75V12.27h1v-.51C53.4,10,54.35,9,56.6,9a4.54,4.54,0,0,1,1.15.13l-.14,1.5a4.85,4.85,0,0,0-.94-.1c-.93,0-1.31.38-1.31,1.22v.53h1.92v1.49h-1.9v6.45h-2V13.75Z" fill="#231f20"/></svg>