<svg xmlns="http://www.w3.org/2000/svg" width="64" height="32" viewBox="0 0 64 32"><title>CBA</title><path d="M51.7,9.19,48.05,21.65h2.56L51.3,19h4.22l.68,2.68h2.85L55.42,9.19ZM51.8,17l1.54-5.78h.13L55,17Z"/><path d="M41.78,12.32l2.32,2.32v0H37.31V16.5H44.1v0l-2.32,2.34,1.29,1.29,4.58-4.58L43.07,11Z"/><path d="M19.63,12.32,22,14.64v0H15.17V16.5H22v0l-2.32,2.34,1.29,1.29,4.58-4.58L20.92,11Z"/><path d="M34.54,20.66a3.36,3.36,0,0,0,1.21-2.76,2.56,2.56,0,0,0-.67-1.8,3.35,3.35,0,0,0-1.82-1v0a3,3,0,0,0,1.4-1,3.07,3.07,0,0,0,.56-1.9A2.58,2.58,0,0,0,34.11,10a6,6,0,0,0-3.57-.84H27.07V21.65h3.88A5.59,5.59,0,0,0,34.54,20.66Zm-2.39-9.14a1.36,1.36,0,0,1,.48,1.14A1.51,1.51,0,0,1,32.06,14a2.89,2.89,0,0,1-1.69.41H29.5V11.14h1A2.8,2.8,0,0,1,32.15,11.52Zm.33,5.14a1.43,1.43,0,0,1,.65,1.24,1.57,1.57,0,0,1-.6,1.33,2.72,2.72,0,0,1-1.68.46H29.5V16.22h.8A4,4,0,0,1,32.48,16.66Z"/><path d="M12.42,19.66a13.15,13.15,0,0,1-1.34.06,3.73,3.73,0,0,1-2.55-1,4,4,0,0,1-1.14-3.13A4.4,4.4,0,0,1,8.5,12.29a3.67,3.67,0,0,1,2.67-1.09q.68,0,1.16,0a10.06,10.06,0,0,1,1.2.16L13.7,9.3q-.64-.13-1.19-.19a12.26,12.26,0,0,0-1.25-.06A6.6,6.6,0,0,0,6.7,10.75a6.43,6.43,0,0,0-1.9,5.05,5.54,5.54,0,0,0,1.77,4.49A6.56,6.56,0,0,0,11,21.78a13.84,13.84,0,0,0,1.45-.06,12.25,12.25,0,0,0,1.32-.25v-2Q13,19.6,12.42,19.66Z"/></svg>