<svg xmlns="http://www.w3.org/2000/svg" width="380" height="448" viewBox="0 0 380 448"><title>compass-right-south</title><path d="M156,234,293.18,371.18c-75.76,75.76-198.59,75.76-274.36,0Z" fill="#b9c6d5"/><polygon points="155.72 448 144.1 420.37 132.47 392.73 155.72 392.73 178.97 392.73 167.34 420.37 155.72 448" fill="#154573"/><path d="M145.2,355.56v-5.4h21.75v5.15l-15.15,22v.2H167V383h-22.7v-5.15l15.1-22.05v-.2Z" fill="#154573"/><path d="M303.18,86.82c75.76,75.76,75.76,198.6,0,274.36L166,224Z" fill="#eee"/><path d="M280.6,224.68q0-8.35,4.82-12.75a16.17,16.17,0,0,1,11.26-4.4,15.62,15.62,0,0,1,10.83,4q4.49,4.05,4.49,12.5t-4.77,12.75a16,16,0,0,1-11.21,4.4,15.77,15.77,0,0,1-10.91-4.05Q280.6,233.13,280.6,224.68Zm6.8-.55q0,6.1,2.63,8.7a8.64,8.64,0,0,0,6.29,2.6,8.85,8.85,0,0,0,6.09-2.55q2.78-2.55,2.78-8.25,0-6.1-2.61-8.73a8.51,8.51,0,0,0-6.27-2.62,8.82,8.82,0,0,0-6.17,2.58Q287.4,218.43,287.4,224.13Z" fill="#dcdcdc"/><polygon points="380 224 352.37 235.62 324.73 247.25 324.73 224 324.73 200.75 352.37 212.38 380 224" fill="#dcdcdc"/></svg>