<svg xmlns="http://www.w3.org/2000/svg" width="380" height="448" viewBox="0 0 380 448"><title>compass-left-west</title><path d="M361.18,76.82,224,214,86.82,76.82C162.59,1.06,285.42,1.06,361.18,76.82Z" fill="#f5f5f5"/><polygon points="224 0 235.62 27.63 247.25 55.27 224 55.27 200.75 55.27 212.38 27.63 224 0" fill="#dcdcdc"/><path d="M226.7,99l-9.25-26.5h-.3V99H211.4V66.16h9.9l9.3,26.5h.3V66.16h5.75V99Z" fill="#dcdcdc"/><path d="M214,224,76.82,361.18c-75.76-75.76-75.76-198.6,0-274.36Z" fill="#b9c6d5"/><polygon points="0 224 27.63 212.38 55.27 200.75 55.27 224 55.27 247.25 27.63 235.62 0 224" fill="#154573"/><path d="M76.25,240.78,67.8,208H75l6.2,26.8h.3l6.35-20L85.8,208h7l7.75,26.8h.3L106.9,208h6.7l-8.5,32.8h-9l-5.25-18.45H90.6L85,240.78Z" fill="#154573"/></svg>