<svg xmlns="http://www.w3.org/2000/svg" width="72" height="72" viewBox="0 0 72 72"><title>network-dir-Z</title><path d="M32.21,56.71V54.76H40v1.85l-5.45,7.94v.07h5.49v1.94H31.91V64.72l5.44-7.94v-.07Z" fill="#0042a1"/><line x1="36" y1="15.36" x2="36" y2="47.95" fill="none" stroke="#000" stroke-miterlimit="10" stroke-width="2"/><polygon points="30.82 19.29 36 17.09 41.18 19.29 36 7 30.82 19.29"/><circle cx="36" cy="47.74" r="3.76" fill="#fff"/><path d="M31.74,47.74A4.26,4.26,0,1,1,36,52a4.26,4.26,0,0,1-4.26-4.26Zm7.52,0A3.26,3.26,0,1,0,36,51a3.26,3.26,0,0,0,3.26-3.26Z"/></svg>