<svg xmlns="http://www.w3.org/2000/svg" viewBox="0 0 299 768"><title>roos-links</title><path d="M256,149C126.21,149,21,254.21,21,384S126.21,619,256,619Z" fill="#e5f0f9"/><polygon points="256 128 267.62 155.63 279.25 183.27 256 183.27 232.75 183.27 244.38 155.63 256 128" fill="#cce0f1"/><polygon points="74.98 202.98 102.74 214.3 130.5 225.62 114.06 242.06 97.62 258.5 86.3 230.74 74.98 202.98" fill="#cce0f1"/><polygon points="0 384 27.63 372.38 55.27 360.75 55.27 384 55.27 407.25 27.63 395.62 0 384" fill="#cce0f1"/><polygon points="74.98 565.02 86.3 537.26 97.62 509.5 114.06 525.94 130.5 542.38 102.74 553.7 74.98 565.02" fill="#cce0f1"/><path d="M258.7,235.33l-9.25-26.5h-.3v26.5H243.4v-32.8h9.9l9.3,26.5h.3v-26.5h5.75v32.8Z" fill="#01689b"/><path d="M72.67,399.33l-8.45-32.8h7.25l6.2,26.8H78l6.35-20-2.1-6.8h7L97,393.33h.3l6.05-26.8H110l-8.5,32.8h-9l-5.25-18.45H87l-5.55,18.45Z" fill="#01689b"/></svg>