<svg id="1e797c4f-7c18-4af5-8475-e3eed75c770a" data-name="Layer 1" xmlns="http://www.w3.org/2000/svg" width="72" height="480" viewBox="0 0 72 480">
  <title>afsluitingsschot</title>
  <path d="M0,168V312H24v12H48V312H72V168H48V156H24v12Z" fill="#d9ebf7"/>
  <path d="M12,168H0m72,0H60m0,144H72" fill="none" stroke="#9fceea" stroke-miterlimit="10" stroke-width="3"/>
  <path d="M12,312H24v12H48V312H60" fill="none" stroke="#7d7d7d" stroke-miterlimit="10" stroke-width="3"/>
  <path d="M0,312H12" fill="none" stroke="#9fceea" stroke-miterlimit="10" stroke-width="3"/>
  <path d="M12,168H24V156H48v12H60" fill="none" stroke="#7d7d7d" stroke-miterlimit="10" stroke-width="3"/>
  <path d="M35.9,338.5a9.7,9.7,0,0,0-9.7,9.8v3.3H25v16H47v-16H45.7v-3.3a9.7,9.7,0,0,0-9.6-9.8Zm0,2.4h.2a7.3,7.3,0,0,1,7.2,7.4v3.3H28.6v-3.3A7.3,7.3,0,0,1,35.9,340.9Zm.1,12.9a3.3,3.3,0,0,1,1.6,6v3.7a1.6,1.6,0,1,1-3.2,0v-3.7a3.2,3.2,0,0,1-1.6-2.8,3.2,3.2,0,0,1,3.2-3.2Z" fill="#ca005d"/>
  <path d="M28,320.7H44v-16H28Zm0-29.2H44v-16H28Zm0-29H44v-16H28Zm0-29.1H44v-16H28Zm0-29.1H44v-16H28Zm0-29.1H43.9v-16H28.1Z" fill="#ca005d"/>
  <g style="isolation: isolate">
    <path d="M6.9,420V401.3h3.9v7.1h7.3v-7.1H22V420H18.1v-8.4H10.8V420Z" fill="#ca005d"/>
    <path d="M28.3,401.3,30.7,412l.6,3,.5-2.9,2.1-10.8H38L40.3,412l.5,3,.6-2.9,2.5-10.8h4L42.6,420H38.9l-2.3-10.9-.6-3.7-.7,3.7L33,420H29.4l-5.3-18.7Z" fill="#ca005d"/>
    <path d="M50.3,401.3h3.9V409l7.2-7.7h5L58.8,409l8,11h-5L56,411.8l-1.8,1.9V420H50.3Z" fill="#ca005d"/>
  </g>
</svg>
