<svg id="84a7dea5-fc27-46e5-87e4-9fbceede76f0" data-name="Layer 1" xmlns="http://www.w3.org/2000/svg" width="72" height="484.5" viewBox="0 0 72 484.5">
  <title>afsluitingsschot-verbreed-kolkdeel</title>
  <path d="M24,108v12H0V360H24v11H48V360H72V120H48V108Z" fill="#d9ebf7"/>
  <path d="M12,120H0m72,0H60" fill="none" stroke="#9fceea" stroke-miterlimit="10" stroke-width="3"/>
  <path d="M60,360H72" fill="none" stroke="#9fceea" stroke-miterlimit="10" stroke-width="3"/>
  <path d="M12,360H24v12H48V360H60" fill="none" stroke="#7d7d7d" stroke-miterlimit="10" stroke-width="3"/>
  <path d="M0,360H12" fill="none" stroke="#9fceea" stroke-miterlimit="10" stroke-width="3"/>
  <path d="M12,120H24V108H48v12H60" fill="none" stroke="#7d7d7d" stroke-miterlimit="10" stroke-width="3"/>
  <path d="M35.9,383.7a9.7,9.7,0,0,0-9.7,9.8v3.3H25v16H47v-16H45.7v-3.3a9.7,9.7,0,0,0-9.6-9.8Zm0,2.4h.2a7.3,7.3,0,0,1,7.2,7.4v3.3H28.6v-3.3A7.3,7.3,0,0,1,35.9,386.1Z" fill="#ca005d"/>
  <path d="M28,307.6H44v-16H28Zm0,29.8H44v-16H28Zm0,29.8H44v-16H28Zm0-238.5H43.9v-16H28.1Zm0,29.8H44v-16H28Zm0,29.8H44v-16H28Zm0,29.8H44v-16H28Zm0,29.8H44v-16H28Zm0,29.9H44v-16H28Z" fill="#ca005d"/>
</svg>
