<svg data-name="Layer 1" xmlns="http://www.w3.org/2000/svg" width="72" height="480" viewBox="0 0 72 480">
    <title>
        afsluitingsschot
    </title>
    <path d="M0 168v144h24v12h24v-12h24V168H48v-12H24v12z" fill="#d9ebf7"/>
    <path d="M12 168H0m72 0H60m0 144h12" fill="none" stroke="#9fceea" stroke-miterlimit="10" stroke-width="3"/>
    <path d="M12 312h12v12h24v-12h12" fill="none" stroke="#7d7d7d" stroke-miterlimit="10" stroke-width="3"/>
    <path d="M0 312h12" fill="none" stroke="#9fceea" stroke-miterlimit="10" stroke-width="3"/>
    <path d="M12 168h12v-12h24v12h12" fill="none" stroke="#7d7d7d" stroke-miterlimit="10" stroke-width="3"/>
    <path d="M35.9 338.5a9.7 9.7 0 0 0-9.7 9.8v3.3H25v16h22v-16h-1.3v-3.3a9.7 9.7 0 0 0-9.6-9.8zm0 2.4h.2a7.3 7.3 0 0 1 7.2 7.4v3.3H28.6v-3.3a7.3 7.3 0 0 1 7.3-7.4zm.1 12.9a3.3 3.3 0 0 1 1.6 6v3.7a1.6 1.6 0 1 1-3.2 0v-3.7a3.2 3.2 0 0 1-1.6-2.8 3.2 3.2 0 0 1 3.2-3.2zM28 320.7h16v-16H28zm0-29.2h16v-16H28zm0-29h16v-16H28zm0-29.1h16v-16H28zm0-29.1h16v-16H28zm0-29.1h15.9v-16H28.1z" fill="#ca005d"/>
    <g style="isolation:isolate" fill="#ca005d">
        <path d="M6.9 420v-18.7h3.9v7.1h7.3v-7.1H22V420h-3.9v-8.4h-7.3v8.4zM28.3 401.3l2.4 10.7.6 3 .5-2.9 2.1-10.8H38l2.3 10.7.5 3 .6-2.9 2.5-10.8h4L42.6 420h-3.7l-2.3-10.9-.6-3.7-.7 3.7L33 420h-3.6l-5.3-18.7zM50.3 401.3h3.9v7.7l7.2-7.7h5l-7.6 7.7 8 11h-5l-5.8-8.2-1.8 1.9v6.3h-3.9z"/>
    </g>
</svg>
