<svg id="40db3439-083e-4e59-a6c7-6a5332cbb4b2" data-name="Layer 1" xmlns="http://www.w3.org/2000/svg" width="96" height="24" viewBox="0 0 96 24">
  <title>afvaart-omhoog</title>
  <g>
    <path d="M28.2,7.1,27.3,18H25.8V16.2h0a4,4,0,0,1-3.2,2c-1.5,0-2.4-1-2.4-3.7,0-4.8,2.4-7.3,5-7.3h1.6ZM26.6,8.6H25.2c-1.6,0-3.3,2-3.3,5.9,0,1.7.5,2.4,1.3,2.4s1.8-.7,2.8-2.2Z" fill="#6f1113"/>
    <path d="M35.3,7.4V8.6H33L31.8,22.1H30.3L31.5,8.6h-1V7.4h1.1V6.2a3.5,3.5,0,0,1,3.6-3.4H37l-.2,1.3H35.2a1.9,1.9,0,0,0-1.9,2V7.4Z" fill="#6f1113"/>
    <path d="M35.6,7.4h1.7l1.4,9.2h.1l.6-1.2a27.4,27.4,0,0,0,2.3-8h1.6a28.6,28.6,0,0,1-2.8,8.4L39.4,18H37.5Z" fill="#6f1113"/>
    <path d="M52.2,7.1,51.2,18H49.7l.2-1.8h-.1a3.9,3.9,0,0,1-3.2,2c-1.4,0-2.4-1-2.4-3.7,0-4.8,2.4-7.3,5.1-7.3h1.6ZM50.5,8.6H49.1c-1.6,0-3.3,2-3.3,5.9,0,1.7.6,2.4,1.3,2.4s1.8-.7,2.9-2.2Z" fill="#6f1113"/>
    <path d="M62.1,7.1,61.1,18H59.7V16.2h0a4,4,0,0,1-3.3,2c-1.4,0-2.3-1-2.3-3.7,0-4.8,2.4-7.3,5-7.3h1.6ZM60.5,8.6H59.1c-1.6,0-3.3,2-3.3,5.9,0,1.7.5,2.4,1.3,2.4s1.8-.7,2.8-2.2Z" fill="#6f1113"/>
    <path d="M69.6,8.8H69c-.8,0-1.8.8-2.6,2.1L65.8,18H64.3l.8-10.6,1.6-.2-.2,2h.1c1-1.7,1.6-2,2.5-2h.7Z" fill="#6f1113"/>
    <path d="M70.4,7.4h1.3l.2-2.3,1.5-.3-.3,2.6h2.2V8.6H73l-.6,6.2c-.2,1.5.2,2,.9,2a4,4,0,0,0,1.5-.3v1.3a4.2,4.2,0,0,1-2,.4c-1.4,0-2.2-.9-2-3.3l.7-6.3H70.4Z" fill="#6f1113"/>
  </g>
  <g>
    <polygon points="84.5 24 86.1 5.6 87 5.6 88.5 24 84.5 24" fill="#6f1113"/>
    <polygon points="86.5 0 89.8 8 86.5 6.1 83.3 8 86.5 0" fill="#6f1113"/>
  </g>
</svg>
