<svg data-name="Layer 1" xmlns="http://www.w3.org/2000/svg" width="96" height="24" viewBox="0 0 96 24">
    <title>
        afvaart-omlaag
    </title>
    <g fill="#6f1113">
        <path d="M28.2 7.1L27.3 18h-1.5v-1.8a4 4 0 0 1-3.2 2c-1.5 0-2.4-1-2.4-3.7 0-4.8 2.4-7.3 5-7.3h1.6zm-1.6 1.5h-1.4c-1.6 0-3.3 2-3.3 5.9 0 1.7.5 2.4 1.3 2.4s1.8-.7 2.8-2.2zM35.3 7.4v1.2H33l-1.2 13.5h-1.5l1.2-13.5h-1V7.4h1.1V6.2a3.5 3.5 0 0 1 3.6-3.4H37l-.2 1.3h-1.6a1.9 1.9 0 0 0-1.9 2v1.3z"/>
        <path d="M35.6 7.4h1.7l1.4 9.2h.1l.6-1.2a27.4 27.4 0 0 0 2.3-8h1.6a28.6 28.6 0 0 1-2.8 8.4L39.4 18h-1.9zM52.2 7.1l-1 10.9h-1.5l.2-1.8h-.1a3.9 3.9 0 0 1-3.2 2c-1.4 0-2.4-1-2.4-3.7 0-4.8 2.4-7.3 5.1-7.3h1.6zm-1.7 1.5h-1.4c-1.6 0-3.3 2-3.3 5.9 0 1.7.6 2.4 1.3 2.4s1.8-.7 2.9-2.2zM62.1 7.1l-1 10.9h-1.4v-1.8a4 4 0 0 1-3.3 2c-1.4 0-2.3-1-2.3-3.7 0-4.8 2.4-7.3 5-7.3h1.6zm-1.6 1.5h-1.4c-1.6 0-3.3 2-3.3 5.9 0 1.7.5 2.4 1.3 2.4s1.8-.7 2.8-2.2zM69.6 8.8H69c-.8 0-1.8.8-2.6 2.1l-.6 7.1h-1.5l.8-10.6 1.6-.2-.2 2h.1c1-1.7 1.6-2 2.5-2h.7zM70.4 7.4h1.3l.2-2.3 1.5-.3-.3 2.6h2.2v1.2H73l-.6 6.2c-.2 1.5.2 2 .9 2a4 4 0 0 0 1.5-.3v1.3a4.2 4.2 0 0 1-2 .4c-1.4 0-2.2-.9-2-3.3l.7-6.3h-1.1z"/>
    </g>
    <g fill="#6f1113">
        <path d="M88.5 0L87 18.4h-.9L84.5 0h4z"/>
        <path d="M86.5 24l-3.2-8 3.2 1.9 3.3-1.9-3.3 8z"/>
    </g>
</svg>
