<svg id="651aca06-6e4a-449c-89c0-d716ffb7ebd4" data-name="Layer 1" xmlns="http://www.w3.org/2000/svg" width="72" height="480" viewBox="0 0 72 480">
  <title>betonning-rood-rechts</title>
  <g>
    <path d="M24.9,42.5c2.2,0,2.2-1.3,4.4-1.3s2.2,1.3,4.3,1.3,2.2-1.3,4.4-1.3,2.2,1.3,4.4,1.3,2-.7,3-1l.9-15.8L26.9,24,24.7,42.5Z" fill="#d32d27"/>
    <path d="M20.7,41.6c2.2,0,2.2,1.2,4.4,1.2s2.2-1.2,4.4-1.2,2.1,1.2,4.3,1.2,2.2-1.2,4.4-1.2,2.2,1.2,4.3,1.2,2.2-1.2,4.4-1.2,2.2,1.2,4.4,1.2" fill="none" stroke="#7ecdef" stroke-miterlimit="10"/>
  </g>
  <g>
    <path d="M24.9,456.5c2.2,0,2.2-1.3,4.4-1.3s2.2,1.3,4.3,1.3,2.2-1.3,4.4-1.3,2.2,1.3,4.4,1.3,2-.8,3.2-1.1l.4-5.3-9.4-11.2-11.2,9.4-.8,8.2Z" fill="#398740"/>
    <path d="M20.7,455.6c2.2,0,2.2,1.2,4.4,1.2s2.2-1.2,4.4-1.2,2.1,1.2,4.3,1.2,2.2-1.2,4.4-1.2,2.2,1.2,4.3,1.2,2.2-1.2,4.4-1.2,2.2,1.2,4.4,1.2" fill="none" stroke="#7ecdef" stroke-miterlimit="10"/>
  </g>
</svg>
