<svg id="ab49c34c-f390-40af-9d29-fd06ae887d23" data-name="Layer 1" xmlns="http://www.w3.org/2000/svg" width="72" height="480" viewBox="0 0 72 480">
  <title>betonning-rood-links</title>
  <g>
    <path d="M24.9,456.5c2.2,0,2.2-1.3,4.4-1.3s2.2,1.3,4.3,1.3,2.2-1.3,4.4-1.3,2.2,1.3,4.4,1.3,2-.7,3-1l.9-15.8L26.9,438l-2.2,18.5Z" fill="#d32d27"/>
    <path d="M20.7,455.6c2.2,0,2.2,1.2,4.4,1.2s2.2-1.2,4.4-1.2,2.1,1.2,4.3,1.2,2.2-1.2,4.4-1.2,2.2,1.2,4.3,1.2,2.2-1.2,4.4-1.2,2.2,1.2,4.4,1.2" fill="none" stroke="#7ecdef" stroke-miterlimit="10"/>
  </g>
  <g>
    <path d="M24.9,41.7c2.2,0,2.2-1.3,4.4-1.3s2.2,1.3,4.3,1.3,2.2-1.3,4.4-1.3,2.2,1.3,4.4,1.3,2-.8,3.2-1.1l.4-5.3L36.6,24,25.4,33.5l-.8,8.2Z" fill="#398740"/>
    <path d="M20.7,40.8c2.2,0,2.2,1.2,4.4,1.2s2.2-1.2,4.4-1.2S31.6,42,33.8,42s2.2-1.2,4.4-1.2S40.4,42,42.5,42s2.2-1.2,4.4-1.2S49.1,42,51.3,42" fill="none" stroke="#7ecdef" stroke-miterlimit="10"/>
  </g>
</svg>
