<svg id="91399bd1-76a4-42d6-8d80-13e326d70cef" data-name="Layer 1" xmlns="http://www.w3.org/2000/svg" width="148" height="24" viewBox="0 0 148 24">
  <title>binnen</title>
  <g>
    <path d="M18.2,18.5l-1.4.3L18.3,3.3l1.5-.2-.6,6.3h.1A4.8,4.8,0,0,1,20.9,8a2.9,2.9,0,0,1,1.6-.4,2.5,2.5,0,0,1,1.8.8,4.6,4.6,0,0,1,.7,2.9c0,2.5-.5,4.3-1.6,5.6a4.9,4.9,0,0,1-3.7,1.8h-.8Zm.9-7.5-.6,6.3h1.3A3.4,3.4,0,0,0,22.3,16a7.8,7.8,0,0,0,1.1-4.6A3.7,3.7,0,0,0,23,9.6a1.1,1.1,0,0,0-1-.5,2.1,2.1,0,0,0-1.3.5A9.4,9.4,0,0,0,19.1,11Z" fill="#6f1113"/>
    <path d="M30.5,18.7a3.3,3.3,0,0,1-2.6-1,4.6,4.6,0,0,1-1-3.4,8.2,8.2,0,0,1,1.4-5,4.3,4.3,0,0,1,3.4-1.8,3.2,3.2,0,0,1,2.6,1.2,5,5,0,0,1,1,3.3,7.2,7.2,0,0,1-1.5,4.9A4,4,0,0,1,30.5,18.7Zm-2-4.6a4.1,4.1,0,0,0,.6,2.6,2.2,2.2,0,0,0,1.6.7,2.7,2.7,0,0,0,2-1.3,6.6,6.6,0,0,0,.9-3.9,5.2,5.2,0,0,0-.5-2.5A2,2,0,0,0,31.5,9a2.3,2.3,0,0,0-2,1.3A5.8,5.8,0,0,0,28.5,14.1Z" fill="#6f1113"/>
    <path d="M38.8,18.5,36.9,7.8h1.7L40,17.1h.1l.6-1.2a30,30,0,0,0,1.4-3.6,34.2,34.2,0,0,0,1-4.5h1.6a44.6,44.6,0,0,1-1.1,4.6c-.5,1.3-1.1,2.6-1.7,3.9l-1.2,2.2Z" fill="#6f1113"/>
    <path d="M45.5,14.7A8.3,8.3,0,0,1,47,9.3a4.3,4.3,0,0,1,3.1-1.7,3.3,3.3,0,0,1,2.1.6,2.5,2.5,0,0,1,.7,1.9,3.5,3.5,0,0,1-1.6,3,7.2,7.2,0,0,1-4.2,1.1,4,4,0,0,0,.6,2.5,2.1,2.1,0,0,0,1.6.6l1.5-.2,1.4-.6V18l-1.6.5a4.4,4.4,0,0,1-1.7.2,3.3,3.3,0,0,1-2.5-.9A4.6,4.6,0,0,1,45.5,14.7Zm5.8-4.4a1.1,1.1,0,0,0-.4-1,1.1,1.1,0,0,0-1-.4,2.4,2.4,0,0,0-1.6,1A5.9,5.9,0,0,0,47.2,13a5.1,5.1,0,0,0,3-.8A2.4,2.4,0,0,0,51.3,10.3Z" fill="#6f1113"/>
    <path d="M60.1,18.5l.7-7.1a3.9,3.9,0,0,0-.2-1.8,1.1,1.1,0,0,0-.9-.5,2.4,2.4,0,0,0-1.2.4l-1.8,1.3L56,18.5H54.4l1-10.6L57,7.7l-.2,1.6h.1A5.9,5.9,0,0,1,58.6,8a2.8,2.8,0,0,1,1.5-.4,1.9,1.9,0,0,1,1.8.8,3.8,3.8,0,0,1,.4,2.8l-.7,7.3Z" fill="#6f1113"/>
    <path d="M73.9,3.8l1.2.5L67.5,22.7l-1.2-.5Z" fill="#6f1113"/>
    <path d="M80.3,18.5l-1.3.3L80.4,3.3,82,3.1l-.6,6.3h.1A4.8,4.8,0,0,1,83.1,8a2.8,2.8,0,0,1,1.5-.4,2.6,2.6,0,0,1,1.9.8,5.4,5.4,0,0,1,.7,2.9,8.3,8.3,0,0,1-1.7,5.6,4.5,4.5,0,0,1-3.6,1.8h-.8Zm1-7.5-.6,6.3h1.2A3.1,3.1,0,0,0,84.4,16c.8-.9,1.1-2.5,1.1-4.6a3.9,3.9,0,0,0-.3-1.8,1.1,1.1,0,0,0-1-.5,2,2,0,0,0-1.3.5A6.7,6.7,0,0,0,81.3,11Z" fill="#6f1113"/>
    <path d="M91.7,7.7l-1,10.8H89.1l1-10.6ZM90.2,4.4a1,1,0,0,1,.3-.8,1.1,1.1,0,0,1,.8-.3l.7.2a1.4,1.4,0,0,1,.2.7.9.9,0,0,1-.3.7,1.1,1.1,0,0,1-.8.3c-.3,0-.5,0-.6-.2A.6.6,0,0,1,90.2,4.4Z" fill="#6f1113"/>
    <path d="M99.5,18.5l.7-7.1a3.9,3.9,0,0,0-.2-1.8,1.1,1.1,0,0,0-.9-.5,2.4,2.4,0,0,0-1.2.4l-1.8,1.3-.7,7.7H93.8l1-10.6,1.6-.2-.2,1.6h.1A5.9,5.9,0,0,1,98,8a2.8,2.8,0,0,1,1.5-.4,1.9,1.9,0,0,1,1.8.8,3.8,3.8,0,0,1,.4,2.8l-.7,7.3Z" fill="#6f1113"/>
    <path d="M109.7,18.5l.7-7.1a2.9,2.9,0,0,0-.2-1.8,1.1,1.1,0,0,0-.9-.5,2.4,2.4,0,0,0-1.2.4l-1.8,1.3-.7,7.7h-1.5L105,7.9l1.6-.2-.2,1.6h.1A5.9,5.9,0,0,1,108.2,8a3.4,3.4,0,0,1,1.6-.4,1.9,1.9,0,0,1,1.7.8,4.2,4.2,0,0,1,.5,2.8l-.7,7.3Z" fill="#6f1113"/>
    <path d="M114.1,14.7a8.3,8.3,0,0,1,1.5-5.4,4.1,4.1,0,0,1,3.1-1.7,3.3,3.3,0,0,1,2.1.6,2.5,2.5,0,0,1,.7,1.9,3.5,3.5,0,0,1-1.6,3,7.2,7.2,0,0,1-4.2,1.1,4,4,0,0,0,.6,2.5,2.1,2.1,0,0,0,1.6.6l1.5-.2a3.8,3.8,0,0,0,1.3-.6V18l-1.5.5a4.7,4.7,0,0,1-1.7.2,3.3,3.3,0,0,1-2.5-.9A4.6,4.6,0,0,1,114.1,14.7Zm5.8-4.4a1.1,1.1,0,0,0-.4-1,1.1,1.1,0,0,0-1-.4,2.4,2.4,0,0,0-1.6,1,5.9,5.9,0,0,0-1.1,3.1,5.1,5.1,0,0,0,3-.8A2.4,2.4,0,0,0,119.9,10.3Z" fill="#6f1113"/>
    <path d="M128.7,18.5l.7-7.1a3.9,3.9,0,0,0-.2-1.8,1.1,1.1,0,0,0-.9-.5,2.4,2.4,0,0,0-1.2.4,8.9,8.9,0,0,0-1.8,1.3l-.7,7.7H123l1-10.6,1.5-.2V9.3h.1A5.9,5.9,0,0,1,127.2,8a2.8,2.8,0,0,1,1.5-.4,1.9,1.9,0,0,1,1.8.8,3.8,3.8,0,0,1,.4,2.8l-.7,7.3Z" fill="#6f1113"/>
  </g>
</svg>
