<svg data-name="Layer 1" xmlns="http://www.w3.org/2000/svg" width="96" height="24" viewBox="0 0 96 24">
    <title>
        binnen
    </title>
    <g fill="#6f1113">
        <path d="M22.7 18.6l-1.3.2 1.4-15.4 1.6-.2-.6 6.3A7.1 7.1 0 0 1 25.4 8a4.7 4.7 0 0 1 1.6-.4 2 2 0 0 1 1.8.9 4.4 4.4 0 0 1 .7 2.9c0 2.5-.5 4.3-1.6 5.5a4.7 4.7 0 0 1-3.6 1.9h-1.6zm.9-7.5l-.5 6.2h1.2a3.4 3.4 0 0 0 2.5-1.4 8 8 0 0 0 1.1-4.6 2.6 2.6 0 0 0-.4-1.8 1.1 1.1 0 0 0-1-.6 3.6 3.6 0 0 0-1.3.5 10.6 10.6 0 0 0-1.6 1.7zM34 7.7l-1 10.9h-1.5l.9-10.7zm-1.4-3.3a1.1 1.1 0 0 1 .3-.8 1 1 0 0 1 .8-.3.7.7 0 0 1 .6.3c.2.1.2.3.2.6a1.1 1.1 0 0 1-.3.8 1 1 0 0 1-.8.3l-.6-.2a1.4 1.4 0 0 1-.2-.7zM41.8 18.6l.7-7.1a2.9 2.9 0 0 0-.2-1.8.8.8 0 0 0-.8-.5 2.4 2.4 0 0 0-1.3.4l-1.8 1.3-.7 7.7h-1.5l.9-10.7 1.6-.2v1.7A5.5 5.5 0 0 1 40.4 8a4.2 4.2 0 0 1 1.5-.4 2.1 2.1 0 0 1 1.8.9 4 4 0 0 1 .4 2.7l-.7 7.4zM52.1 18.6l.6-7.1a3.1 3.1 0 0 0-.1-1.8 1 1 0 0 0-.9-.5 2.7 2.7 0 0 0-1.3.4 8.6 8.6 0 0 0-1.7 1.3l-.7 7.7h-1.6l1-10.7 1.5-.2v1.7A8.9 8.9 0 0 1 50.6 8a4.2 4.2 0 0 1 1.5-.4 2 2 0 0 1 1.8.9 4 4 0 0 1 .4 2.7l-.7 7.4zM56.5 14.8a8.9 8.9 0 0 1 1.4-5.4 4.1 4.1 0 0 1 3.2-1.8 3 3 0 0 1 2 .7 2.2 2.2 0 0 1 .8 1.8 3.5 3.5 0 0 1-1.6 3 7 7 0 0 1-4.2 1.2 4.3 4.3 0 0 0 .5 2.4 2.1 2.1 0 0 0 1.7.7l1.4-.2 1.4-.6V18a4.7 4.7 0 0 1-1.5.6l-1.8.2a2.8 2.8 0 0 1-2.4-1 4.1 4.1 0 0 1-.9-3zm5.7-4.5a1.5 1.5 0 0 0-.3-1 1.7 1.7 0 0 0-1-.3 2.2 2.2 0 0 0-1.7 1 6 6 0 0 0-1 3.1 5.1 5.1 0 0 0 3-.8 2.5 2.5 0 0 0 1-2zM71 18.6l.7-7.1a2.9 2.9 0 0 0-.2-1.8.9.9 0 0 0-.9-.5 2.4 2.4 0 0 0-1.2.4l-1.8 1.3-.7 7.7h-1.5l.9-10.7 1.6-.2-.2 1.7h.1A6.6 6.6 0 0 1 69.5 8a5.3 5.3 0 0 1 1.6-.4 1.9 1.9 0 0 1 1.7.9c.5.5.6 1.4.5 2.7l-.7 7.4z"/>
    </g>
</svg>
