<svg id="90c853d0-c62a-419a-9b0b-b133af2d7117" data-name="Layer 1" xmlns="http://www.w3.org/2000/svg" width="148" height="48" viewBox="0 0 148 48">
  <title>buiten</title>
  <g>
    <path d="M10.6,24l-1.3.3L10.7,8.8l1.5-.2-.5,6.3h0a4.8,4.8,0,0,1,1.6-1.4,2.9,2.9,0,0,1,1.6-.4,2.5,2.5,0,0,1,1.8.8,4.6,4.6,0,0,1,.7,2.9c0,2.5-.5,4.3-1.6,5.6a4.9,4.9,0,0,1-3.7,1.8h-.8Zm.9-7.5L11,22.8h1.2a3.4,3.4,0,0,0,2.5-1.4,8,8,0,0,0,1.1-4.6,3.4,3.4,0,0,0-.4-1.8,1.1,1.1,0,0,0-1-.5,2.1,2.1,0,0,0-1.3.5A9.4,9.4,0,0,0,11.5,16.5Z" fill="#6f1113"/>
    <path d="M19.2,20.2a8.3,8.3,0,0,1,1.5-5.4,4.1,4.1,0,0,1,3.1-1.7,2.8,2.8,0,0,1,2,.6,2.5,2.5,0,0,1,.8,1.8A3.8,3.8,0,0,1,25,18.6a7.2,7.2,0,0,1-4.2,1.1,4,4,0,0,0,.6,2.5,2,2,0,0,0,1.6.6l1.4-.2a3.5,3.5,0,0,0,1.4-.6v1.4a4.7,4.7,0,0,1-1.5.6,5,5,0,0,1-1.8.2,3.1,3.1,0,0,1-2.4-.9A4.6,4.6,0,0,1,19.2,20.2Zm5.7-4.5a1.2,1.2,0,0,0-.3-.9,1.2,1.2,0,0,0-1-.4,2.4,2.4,0,0,0-1.6,1,5.2,5.2,0,0,0-1.1,3.1,5.1,5.1,0,0,0,3-.8A2.3,2.3,0,0,0,24.9,15.7Z" fill="#6f1113"/>
    <path d="M33.7,24l.7-7.1a2.9,2.9,0,0,0-.2-1.8.8.8,0,0,0-.8-.5,2.4,2.4,0,0,0-1.3.4,8.6,8.6,0,0,0-1.7,1.3L29.7,24H28.1l1-10.7,1.5-.2v1.7h0a6.2,6.2,0,0,1,1.8-1.3,2.8,2.8,0,0,1,1.5-.4,1.9,1.9,0,0,1,1.8.8,4.3,4.3,0,0,1,.4,2.8L35.3,24Z" fill="#6f1113"/>
    <path d="M38.2,20.2c0-2.4.4-4.2,1.4-5.4a4.3,4.3,0,0,1,3.1-1.7,3.3,3.3,0,0,1,2.1.6,2.4,2.4,0,0,1,.7,1.8A3.7,3.7,0,0,1,44,18.6a7.8,7.8,0,0,1-4.3,1.1,4,4,0,0,0,.6,2.5,2.1,2.1,0,0,0,1.6.6l1.5-.2a4.2,4.2,0,0,0,1.4-.6v1.4a4.7,4.7,0,0,1-1.5.6,5,5,0,0,1-1.8.2,3.3,3.3,0,0,1-2.5-.9A5.2,5.2,0,0,1,38.2,20.2Zm5.7-4.5a1.2,1.2,0,0,0-.3-.9,1.3,1.3,0,0,0-1-.4,2.6,2.6,0,0,0-1.7,1,6,6,0,0,0-1,3.1,5,5,0,0,0,2.9-.8A2.2,2.2,0,0,0,43.9,15.7Z" fill="#6f1113"/>
    <path d="M55.5,8.6,54,24H52.5l.2-1.7h-.1a6.4,6.4,0,0,1-1.5,1.4,2.6,2.6,0,0,1-1.7.5,2.5,2.5,0,0,1-1.8-.8,5.5,5.5,0,0,1-.6-2.9A8.8,8.8,0,0,1,48.5,15a4.7,4.7,0,0,1,3.6-1.9h1.4l.4-4.4Zm-2.7,12,.6-6.1H52a2.8,2.8,0,0,0-2.3,1.5,7.1,7.1,0,0,0-1.1,4.5,2.6,2.6,0,0,0,.4,1.8,1,1,0,0,0,.9.6,2.2,2.2,0,0,0,1.3-.6A6,6,0,0,0,52.8,20.6Z" fill="#6f1113"/>
    <path d="M57,20.2a8.3,8.3,0,0,1,1.5-5.4,4.1,4.1,0,0,1,3.1-1.7,3.3,3.3,0,0,1,2.1.6,2.9,2.9,0,0,1,.7,1.8,3.6,3.6,0,0,1-1.6,3.1,7.2,7.2,0,0,1-4.2,1.1,4,4,0,0,0,.6,2.5,2.1,2.1,0,0,0,1.6.6l1.4-.2a3.5,3.5,0,0,0,1.4-.6v1.4a6.3,6.3,0,0,1-3.2.8,3.3,3.3,0,0,1-2.5-.9A4.6,4.6,0,0,1,57,20.2Zm5.8-4.5a1.3,1.3,0,0,0-.4-.9,1.2,1.2,0,0,0-1-.4,2.4,2.4,0,0,0-1.6,1,5.9,5.9,0,0,0-1.1,3.1,5.1,5.1,0,0,0,3-.8A2.4,2.4,0,0,0,62.8,15.7Z" fill="#6f1113"/>
    <path d="M71.6,24l.6-7.1a3.1,3.1,0,0,0-.1-1.8,1,1,0,0,0-.9-.5,2.7,2.7,0,0,0-1.3.4,8.6,8.6,0,0,0-1.7,1.3L67.5,24H65.9l1-10.7,1.5-.2v1.7h0a7.8,7.8,0,0,1,1.8-1.3,2.8,2.8,0,0,1,1.5-.4,1.9,1.9,0,0,1,1.8.8,4.3,4.3,0,0,1,.4,2.8L73.1,24Z" fill="#6f1113"/>
    <path d="M85.4,9.3l1.2.5L79,28.2l-1.2-.5Z" fill="#6f1113"/>
    <path d="M91.8,24l-1.3.3L91.9,8.8l1.6-.2-.6,6.3H93a4,4,0,0,1,1.6-1.4,2.8,2.8,0,0,1,1.5-.4,2.2,2.2,0,0,1,1.8.8,4.6,4.6,0,0,1,.7,2.9c0,2.5-.5,4.3-1.6,5.6a4.7,4.7,0,0,1-3.6,1.8h-.8Zm1-7.5-.6,6.3h1.2a3.3,3.3,0,0,0,2.5-1.4A8,8,0,0,0,97,16.9a2.6,2.6,0,0,0-.4-1.8c-.2-.4-.5-.5-1-.5a1.9,1.9,0,0,0-1.2.5A5.2,5.2,0,0,0,92.8,16.5Z" fill="#6f1113"/>
    <path d="M103.3,13.1l-.7,7.3a3.2,3.2,0,0,0,.1,1.8,1.1,1.1,0,0,0,1,.5l1.2-.3,1.7-1.3.7-7.8,1.5-.2L107.9,24h-1.5l.2-1.6h-.1a6.6,6.6,0,0,1-1.7,1.4,3.2,3.2,0,0,1-1.6.4,2.2,2.2,0,0,1-1.8-.8,3.9,3.9,0,0,1-.4-2.8l.7-7.3Z" fill="#6f1113"/>
    <path d="M113.4,13.1,112.5,24h-1.6l1-10.7ZM112,9.9a1,1,0,0,1,.3-.8,1.1,1.1,0,0,1,.8-.3c.3,0,.5,0,.6.2a.9.9,0,0,1,.3.7,1.1,1.1,0,0,1-.3.7,1.1,1.1,0,0,1-.8.3c-.3,0-.5,0-.6-.2A.7.7,0,0,1,112,9.9Z" fill="#6f1113"/>
    <path d="M115.6,14.5V13.3h1.3l.2-2.4,1.5-.2-.2,2.6h2.2v1.2h-2.3l-.6,6.3a3.6,3.6,0,0,0,.1,1.6,1.2,1.2,0,0,0,.8.4h.8l.8-.2v1.4l-1,.2h-1a1.9,1.9,0,0,1-1.7-.7,3.8,3.8,0,0,1-.4-2.6l.7-6.4Z" fill="#6f1113"/>
    <path d="M121.7,20.2a8.3,8.3,0,0,1,1.5-5.4,4.1,4.1,0,0,1,3.1-1.7,3.3,3.3,0,0,1,2.1.6,2.9,2.9,0,0,1,.7,1.8,3.6,3.6,0,0,1-1.6,3.1,7.2,7.2,0,0,1-4.2,1.1,4,4,0,0,0,.6,2.5,2.1,2.1,0,0,0,1.6.6l1.4-.2a3.5,3.5,0,0,0,1.4-.6v1.4l-1.5.6a4.7,4.7,0,0,1-1.7.2,3.3,3.3,0,0,1-2.5-.9A4.6,4.6,0,0,1,121.7,20.2Zm5.8-4.5a1.3,1.3,0,0,0-.4-.9,1.2,1.2,0,0,0-1-.4,2.4,2.4,0,0,0-1.6,1,5.9,5.9,0,0,0-1.1,3.1,5.1,5.1,0,0,0,3-.8A2.4,2.4,0,0,0,127.5,15.7Z" fill="#6f1113"/>
    <path d="M136.3,24l.6-7.1a3.1,3.1,0,0,0-.1-1.8,1,1,0,0,0-.9-.5,2.7,2.7,0,0,0-1.3.4,8.6,8.6,0,0,0-1.7,1.3l-.7,7.7h-1.6l1-10.7,1.5-.2v1.7h0a7.8,7.8,0,0,1,1.8-1.3,2.8,2.8,0,0,1,1.5-.4,1.9,1.9,0,0,1,1.8.8,4.3,4.3,0,0,1,.4,2.8l-.7,7.3Z" fill="#6f1113"/>
  </g>
</svg>
