<svg id="64472b25-37a3-4812-98a1-2dcb5ef4167f" data-name="Layer 1" xmlns="http://www.w3.org/2000/svg" width="148" height="24" viewBox="0 0 148 24">
  <title>buiten</title>
  <g>
    <path d="M10.6,18.5l-1.3.3L10.7,3.3l1.5-.2-.5,6.3h0A4.8,4.8,0,0,1,13.3,8a2.9,2.9,0,0,1,1.6-.4,2.5,2.5,0,0,1,1.8.8,4.6,4.6,0,0,1,.7,2.9c0,2.5-.5,4.3-1.6,5.6a4.9,4.9,0,0,1-3.7,1.8h-.8Zm.9-7.5L11,17.3h1.2A3.4,3.4,0,0,0,14.7,16a7.8,7.8,0,0,0,1.1-4.6,3.7,3.7,0,0,0-.4-1.8,1.1,1.1,0,0,0-1-.5,2.1,2.1,0,0,0-1.3.5A9.4,9.4,0,0,0,11.5,11Z" fill="#6f1113"/>
    <path d="M19.2,14.7a8.3,8.3,0,0,1,1.5-5.4,4.1,4.1,0,0,1,3.1-1.7,2.8,2.8,0,0,1,2,.6,2.6,2.6,0,0,1,.8,1.9,3.8,3.8,0,0,1-1.6,3,7.2,7.2,0,0,1-4.2,1.1,4,4,0,0,0,.6,2.5,2,2,0,0,0,1.6.6l1.4-.2a3.5,3.5,0,0,0,1.4-.6V18l-1.5.5a5,5,0,0,1-1.8.2,3.1,3.1,0,0,1-2.4-.9A4.6,4.6,0,0,1,19.2,14.7Zm5.7-4.4a1.3,1.3,0,0,0-.3-1,1.2,1.2,0,0,0-1-.4,2.8,2.8,0,0,0-1.7,1,6,6,0,0,0-1,3.1,5.1,5.1,0,0,0,3-.8A2.3,2.3,0,0,0,24.9,10.3Z" fill="#6f1113"/>
    <path d="M33.7,18.5l.7-7.1a2.9,2.9,0,0,0-.2-1.8,1,1,0,0,0-.8-.5,2.4,2.4,0,0,0-1.3.4,8.6,8.6,0,0,0-1.7,1.3l-.8,7.7H28.1l1-10.6,1.5-.2V9.3h0A6.2,6.2,0,0,1,32.3,8a2.8,2.8,0,0,1,1.5-.4,1.9,1.9,0,0,1,1.8.8,4.3,4.3,0,0,1,.4,2.8l-.7,7.3Z" fill="#6f1113"/>
    <path d="M38.2,14.7c0-2.4.4-4.2,1.4-5.4a4.3,4.3,0,0,1,3.1-1.7,3.3,3.3,0,0,1,2.1.6,2.5,2.5,0,0,1,.7,1.9,3.7,3.7,0,0,1-1.5,3,7.8,7.8,0,0,1-4.3,1.1,4,4,0,0,0,.6,2.5,2.1,2.1,0,0,0,1.6.6l1.5-.2a4.2,4.2,0,0,0,1.4-.6V18l-1.5.5a5,5,0,0,1-1.8.2,3.3,3.3,0,0,1-2.5-.9A5.2,5.2,0,0,1,38.2,14.7Zm5.7-4.4a1.3,1.3,0,0,0-.3-1,1.3,1.3,0,0,0-1-.4,2.6,2.6,0,0,0-1.7,1,6,6,0,0,0-1,3.1,5,5,0,0,0,2.9-.8A2.2,2.2,0,0,0,43.9,10.3Z" fill="#6f1113"/>
    <path d="M55.5,3.1,54,18.5H52.5l.2-1.7h-.1a6.4,6.4,0,0,1-1.5,1.4,2.6,2.6,0,0,1-1.7.5,2.5,2.5,0,0,1-1.8-.8A5.5,5.5,0,0,1,47,15a8.8,8.8,0,0,1,1.5-5.5,4.7,4.7,0,0,1,3.6-1.9h1.4l.4-4.4Zm-2.7,12L53.4,9H52a2.8,2.8,0,0,0-2.3,1.5,7.1,7.1,0,0,0-1.1,4.5,3.2,3.2,0,0,0,.4,1.9,1.1,1.1,0,0,0,.9.5,2.7,2.7,0,0,0,1.3-.5A6.6,6.6,0,0,0,52.8,15.1Z" fill="#6f1113"/>
    <path d="M57,14.7a8.3,8.3,0,0,1,1.5-5.4,4.1,4.1,0,0,1,3.1-1.7,3.3,3.3,0,0,1,2.1.6,2.9,2.9,0,0,1,.7,1.9,3.5,3.5,0,0,1-1.6,3,7.2,7.2,0,0,1-4.2,1.1,4,4,0,0,0,.6,2.5,2.1,2.1,0,0,0,1.6.6l1.4-.2a3.5,3.5,0,0,0,1.4-.6V18l-1.5.5a4.7,4.7,0,0,1-1.7.2,3.3,3.3,0,0,1-2.5-.9A4.6,4.6,0,0,1,57,14.7Zm5.8-4.4a1.3,1.3,0,0,0-.4-1,1.2,1.2,0,0,0-1-.4,2.4,2.4,0,0,0-1.6,1A5.9,5.9,0,0,0,58.7,13a5.1,5.1,0,0,0,3-.8A2.4,2.4,0,0,0,62.8,10.3Z" fill="#6f1113"/>
    <path d="M71.6,18.5l.6-7.1a3.1,3.1,0,0,0-.1-1.8c-.3-.3-.5-.5-.9-.5a2.7,2.7,0,0,0-1.3.4,8.6,8.6,0,0,0-1.7,1.3l-.7,7.7H65.9l1-10.6,1.5-.2V9.3h0A7.8,7.8,0,0,1,70.1,8a2.8,2.8,0,0,1,1.5-.4,1.9,1.9,0,0,1,1.8.8,4.3,4.3,0,0,1,.4,2.8l-.7,7.3Z" fill="#6f1113"/>
    <path d="M85.4,3.8l1.2.5L79,22.7l-1.2-.5Z" fill="#6f1113"/>
    <path d="M91.8,18.5l-1.3.3L91.9,3.3l1.6-.2-.6,6.3H93A4,4,0,0,1,94.6,8a2.8,2.8,0,0,1,1.5-.4,2.2,2.2,0,0,1,1.8.8,4.6,4.6,0,0,1,.7,2.9c0,2.5-.5,4.3-1.6,5.6a4.7,4.7,0,0,1-3.6,1.8h-.8Zm1-7.5-.6,6.3h1.2A3.3,3.3,0,0,0,95.9,16,7.8,7.8,0,0,0,97,11.4a2.8,2.8,0,0,0-.4-1.8c-.2-.4-.5-.5-1-.5a1.9,1.9,0,0,0-1.2.5A5.2,5.2,0,0,0,92.8,11Z" fill="#6f1113"/>
    <path d="M103.3,7.7l-.7,7.2a3.1,3.1,0,0,0,.1,1.8,1.1,1.1,0,0,0,1,.5l1.2-.3,1.7-1.3.7-7.7,1.5-.2-.9,10.8h-1.5l.2-1.6h-.1a6.6,6.6,0,0,1-1.7,1.4,3.2,3.2,0,0,1-1.6.4,2.2,2.2,0,0,1-1.8-.8,3.9,3.9,0,0,1-.4-2.8l.7-7.2Z" fill="#6f1113"/>
    <path d="M113.4,7.7l-.9,10.8h-1.6l1-10.6ZM112,4.4a1,1,0,0,1,.3-.8,1.1,1.1,0,0,1,.8-.3.8.8,0,0,1,.6.2.9.9,0,0,1,.3.7.9.9,0,0,1-.3.7,1.1,1.1,0,0,1-.8.3c-.3,0-.5,0-.6-.2A.6.6,0,0,1,112,4.4Z" fill="#6f1113"/>
    <path d="M115.6,9V7.8h1.3l.2-2.3,1.5-.3-.2,2.6h2.2V9h-2.3l-.6,6.3a3.6,3.6,0,0,0,.1,1.6.9.9,0,0,0,.8.4h.8l.8-.2v1.4l-1,.3h-1a1.9,1.9,0,0,1-1.7-.7,3.8,3.8,0,0,1-.4-2.6l.7-6.4Z" fill="#6f1113"/>
    <path d="M121.7,14.7a8.3,8.3,0,0,1,1.5-5.4,4.1,4.1,0,0,1,3.1-1.7,3.3,3.3,0,0,1,2.1.6,2.9,2.9,0,0,1,.7,1.9,3.5,3.5,0,0,1-1.6,3,7.2,7.2,0,0,1-4.2,1.1,4,4,0,0,0,.6,2.5,2.1,2.1,0,0,0,1.6.6l1.4-.2a3.5,3.5,0,0,0,1.4-.6V18l-1.5.5a4.7,4.7,0,0,1-1.7.2,3.3,3.3,0,0,1-2.5-.9A4.6,4.6,0,0,1,121.7,14.7Zm5.8-4.4a1.3,1.3,0,0,0-.4-1,1.2,1.2,0,0,0-1-.4,2.4,2.4,0,0,0-1.6,1,5.9,5.9,0,0,0-1.1,3.1,5.1,5.1,0,0,0,3-.8A2.4,2.4,0,0,0,127.5,10.3Z" fill="#6f1113"/>
    <path d="M136.3,18.5l.6-7.1a3.1,3.1,0,0,0-.1-1.8c-.3-.3-.5-.5-.9-.5a2.7,2.7,0,0,0-1.3.4,8.6,8.6,0,0,0-1.7,1.3l-.7,7.7h-1.6l1-10.6,1.5-.2V9.3h0A7.8,7.8,0,0,1,134.8,8a2.8,2.8,0,0,1,1.5-.4,1.9,1.9,0,0,1,1.8.8,4.3,4.3,0,0,1,.4,2.8l-.7,7.3Z" fill="#6f1113"/>
  </g>
</svg>
