<svg data-name="Layer 1" xmlns="http://www.w3.org/2000/svg" width="96" height="24" viewBox="0 0 96 24">
    <title>
        buiten
    </title>
    <g fill="#6f1113">
        <path d="M24.5 18.7l-1.3.2 1.4-15.4 1.6-.2-.6 6.3h.1a7.1 7.1 0 0 1 1.6-1.5 4.2 4.2 0 0 1 1.5-.4 2.3 2.3 0 0 1 1.9.9 5.4 5.4 0 0 1 .7 2.9 8.4 8.4 0 0 1-1.6 5.5 4.7 4.7 0 0 1-3.7 1.9h-1.6zm1-7.5l-.6 6.2.6.2h.6a3.1 3.1 0 0 0 2.5-1.4c.8-1 1.1-2.5 1.1-4.6a3.6 3.6 0 0 0-.3-1.8 1.2 1.2 0 0 0-1-.6 2.7 2.7 0 0 0-1.3.5 7.3 7.3 0 0 0-1.6 1.5zM36 7.8l-.7 7.2a3.4 3.4 0 0 0 .2 1.9 1.1 1.1 0 0 0 .9.5 2.4 2.4 0 0 0 1.2-.4 6.7 6.7 0 0 0 1.7-1.2L40 8l1.6-.2-.9 10.9h-1.6l.2-1.6h-.1a9.6 9.6 0 0 1-1.7 1.4 2.9 2.9 0 0 1-1.6.4 2.3 2.3 0 0 1-1.8-.8 4.5 4.5 0 0 1-.4-2.8l.7-7.3zM46.2 7.8l-1 10.9h-1.6l1-10.7zm-1.5-3.3a1.1 1.1 0 0 1 .3-.8 1.1 1.1 0 0 1 .8-.3.6.6 0 0 1 .6.3.6.6 0 0 1 .3.6 1.1 1.1 0 0 1-.3.8 1.1 1.1 0 0 1-.8.3.8.8 0 0 1-.6-.2.9.9 0 0 1-.3-.7zM48.3 9.2V7.9h1.3l.2-2.3 1.6-.2-.3 2.5h2.2v1.3H51l-.7 6.3a2.4 2.4 0 0 0 .2 1.6.9.9 0 0 0 .8.4h.7l.8-.2v1.4l-1 .2h-1a2 2 0 0 1-1.7-.8 3.6 3.6 0 0 1-.3-2.5l.6-6.4zM54.4 14.9a8.3 8.3 0 0 1 1.5-5.4A4.1 4.1 0 0 1 59 7.7a3.3 3.3 0 0 1 2.1.7 2.1 2.1 0 0 1 .7 1.8 3.3 3.3 0 0 1-1.6 3 6.6 6.6 0 0 1-4.2 1.2 3.5 3.5 0 0 0 .6 2.4 1.9 1.9 0 0 0 1.6.7l1.5-.2 1.4-.6v1.4l-1.6.6-1.7.2a3 3 0 0 1-2.5-1 4.1 4.1 0 0 1-.9-3zm5.8-4.5a1.3 1.3 0 0 0-.4-1 1.3 1.3 0 0 0-1-.3 2.1 2.1 0 0 0-1.6 1 5.9 5.9 0 0 0-1.1 3.1 5.1 5.1 0 0 0 3-.8 2.6 2.6 0 0 0 1.1-2zM69 18.7l.7-7.1a3.9 3.9 0 0 0-.2-1.8.9.9 0 0 0-.9-.5 2.4 2.4 0 0 0-1.2.4L65.6 11l-.7 7.7h-1.6l1-10.7 1.6-.2-.2 1.7h.1a6.6 6.6 0 0 1 1.7-1.4 4.2 4.2 0 0 1 1.5-.4 2 2 0 0 1 1.8.9 3.5 3.5 0 0 1 .4 2.7l-.7 7.4z"/>
    </g>
</svg>
