<svg id="f5d91b03-d7f7-4074-bf7a-77ea14b107a6" data-name="Layer 1" xmlns="http://www.w3.org/2000/svg" width="96" height="24" viewBox="0 0 96 24">
  <title>netwerk-links</title>
  <g>
    <line x1="56.2" y1="19" x2="42.2" y2="19" fill="none" stroke="#999" stroke-miterlimit="10" stroke-width="1.5"/>
    <g>
      <circle cx="56.1" cy="19" r="1.7" fill="#fff"/>
      <path d="M56.1,17.1a1.9,1.9,0,0,0,0,3.8,1.9,1.9,0,0,0,0-3.8Zm0,3.4A1.5,1.5,0,1,1,57.6,19a1.5,1.5,0,0,1-1.5,1.5Z" fill="#999"/>
    </g>
    <polygon points="38 19 44 16.6 42.6 19 44 21.4 38 19" fill="#999"/>
  </g>
  <g>
    <path d="M5.2,5.5V4.8h.7V3.6l.9-.2L6.7,4.8H7.9v.7H6.7L6.3,9c0,.4,0,.7.1.8s.2.2.4.2h.9v.7l-.6.2H6.6a1,1,0,0,1-.9-.4A1.9,1.9,0,0,1,5.5,9l.3-3.5Z" fill="#a7a9ac"/>
    <path d="M10.6,10.8a2,2,0,0,1-1.4-.5,2.5,2.5,0,0,1-.6-1.9,4.1,4.1,0,0,1,.8-2.7,2.1,2.1,0,0,1,1.8-1,1.7,1.7,0,0,1,1.4.6,2.4,2.4,0,0,1,.6,1.8,4.1,4.1,0,0,1-.8,2.7A2.1,2.1,0,0,1,10.6,10.8ZM9.5,8.3a2.4,2.4,0,0,0,.3,1.4,1.5,1.5,0,0,0,.9.4c.4,0,.7-.3,1.1-.7a4.1,4.1,0,0,0,.5-2.1A2.4,2.4,0,0,0,12,5.9a1,1,0,0,0-.9-.4c-.4,0-.7.2-1.1.7A4.1,4.1,0,0,0,9.5,8.3Z" fill="#a7a9ac"/>
    <path d="M14.9,13H14l.8-8.1h.8v.9h.1l.8-.7a1.6,1.6,0,0,1,.9-.3,1.4,1.4,0,0,1,1,.5,2.8,2.8,0,0,1,.4,1.6,4.5,4.5,0,0,1-.9,3,2.6,2.6,0,0,1-2,1h-.7Zm.6-6.4L15.2,10h.6a1.9,1.9,0,0,0,1.4-.8,4,4,0,0,0,.6-2.5,2.2,2.2,0,0,0-.2-1L17,5.5l-.7.3A3,3,0,0,0,15.5,6.6Z" fill="#a7a9ac"/>
    <path d="M21.7,10.8a2.5,2.5,0,0,1-1.5-.5,3.1,3.1,0,0,1-.5-1.9,4.1,4.1,0,0,1,.8-2.7,2.1,2.1,0,0,1,1.8-1,1.7,1.7,0,0,1,1.4.6,2.4,2.4,0,0,1,.6,1.8,4.1,4.1,0,0,1-.8,2.7A2.1,2.1,0,0,1,21.7,10.8ZM20.6,8.3a2.4,2.4,0,0,0,.3,1.4,1.5,1.5,0,0,0,.9.4c.4,0,.7-.3,1.1-.7a4.1,4.1,0,0,0,.5-2.1,2.4,2.4,0,0,0-.3-1.4,1,1,0,0,0-.9-.4c-.4,0-.7.2-1.1.7A4.1,4.1,0,0,0,20.6,8.3Z" fill="#a7a9ac"/>
    <path d="M27,2.3l-.8,8.4h-.9l.8-8.3Z" fill="#a7a9ac"/>
    <path d="M29.9,10.8a2.3,2.3,0,0,1-1.5-.5,3.1,3.1,0,0,1-.5-1.9,3.6,3.6,0,0,1,.8-2.7,2.1,2.1,0,0,1,1.8-1,1.7,1.7,0,0,1,1.4.6,2.4,2.4,0,0,1,.5,1.8,4.1,4.1,0,0,1-.7,2.7A2.4,2.4,0,0,1,29.9,10.8ZM28.8,8.3a2.4,2.4,0,0,0,.3,1.4,1.2,1.2,0,0,0,.8.4A1.5,1.5,0,0,0,31,9.4a3.3,3.3,0,0,0,.5-2.1,2.4,2.4,0,0,0-.3-1.4.9.9,0,0,0-.8-.4,1.3,1.3,0,0,0-1.1.7A3.3,3.3,0,0,0,28.8,8.3Z" fill="#a7a9ac"/>
    <path d="M37.1,4.8h.8l-.6,6.1a2.1,2.1,0,0,1-.8,1.7A2,2,0,0,1,35,13H33.3V12l.8.2h.8a1.4,1.4,0,0,0,1.1-.4,1.6,1.6,0,0,0,.5-1.1V9.7h0l-.9.9-.9.2a1.3,1.3,0,0,1-1-.4,3.5,3.5,0,0,1-.3-1.6,4.5,4.5,0,0,1,.8-3,2.6,2.6,0,0,1,2-1.1h.8Zm-.5,4.1.3-3.4h-.7c-.5,0-.9.3-1.3.9a3.8,3.8,0,0,0-.6,2.4,1.3,1.3,0,0,0,.3,1,.5.5,0,0,0,.5.3l.7-.3A6,6,0,0,0,36.6,8.9Z" fill="#a7a9ac"/>
    <path d="M40.4,4.8l-.5,5.9H39l.5-5.8ZM39.6,3a.5.5,0,0,1,.2-.4c.1-.2.2-.2.4-.2h.4c0,.1.1.2.1.4a.8.8,0,0,1-.2.4l-.4.2c-.1,0-.3-.1-.3-.2S39.6,3.1,39.6,3Z" fill="#a7a9ac"/>
    <path d="M41.1,10.7V9.8l.7.2h.6c.4,0,.7,0,.9-.2a.9.9,0,0,0,.3-.6.7.7,0,0,0-.1-.5c-.1-.2-.3-.3-.6-.5l-.5-.4-.7-.6a1.9,1.9,0,0,1-.2-.8,1.7,1.7,0,0,1,.6-1.2,2.2,2.2,0,0,1,1.4-.5h1.2v.8H43.6l-.8.2a.9.9,0,0,0-.3.6.9.9,0,0,0,.1.5l.5.4.5.3a1.9,1.9,0,0,1,.8.7,1.1,1.1,0,0,1,.2.8,1.8,1.8,0,0,1-.6,1.3,2.5,2.5,0,0,1-1.5.5H41.1Z" fill="#a7a9ac"/>
    <path d="M49.2,4.8v.8h-.9a1.3,1.3,0,0,0-1.2.7,4.1,4.1,0,0,0-.5,2.5,2.2,2.2,0,0,0,.2,1,1.2,1.2,0,0,0,.8.4h.6l.7-.2v.7l-.7.2h-.7a1.7,1.7,0,0,1-1.4-.5,2.2,2.2,0,0,1-.4-1.6,4.7,4.7,0,0,1,.8-3,2.4,2.4,0,0,1,1.8-1h1Z" fill="#a7a9ac"/>
    <path d="M52.7,10.7l.4-3.9c0-.5,0-.8-.2-1s-.2-.2-.4-.2a1.1,1.1,0,0,0-.7.2,4.6,4.6,0,0,0-1,.7l-.4,4.2h-.8l.8-8.3h.8l-.3,3.4h0a2.6,2.6,0,0,1,1-.7,1.3,1.3,0,0,1,.8-.3,1.2,1.2,0,0,1,1,.5,2.2,2.2,0,0,1,.2,1.5l-.4,4Z" fill="#a7a9ac"/>
    <path d="M60.4,10.7l.4-3.9a2.5,2.5,0,0,0-.1-1c-.1-.2-.3-.2-.5-.2a1.1,1.1,0,0,0-.7.2,2.8,2.8,0,0,0-.9.7l-.4,4.2h-.9l.6-5.8h.8v.9h.1a3.2,3.2,0,0,1,.9-.8l.8-.2a1.1,1.1,0,0,1,1,.5,2.2,2.2,0,0,1,.2,1.5l-.3,4Z" fill="#a7a9ac"/>
    <path d="M62.8,8.6a4.6,4.6,0,0,1,.8-2.9,2.4,2.4,0,0,1,1.7-1,1.2,1.2,0,0,1,1.1.4,1.2,1.2,0,0,1,.4,1A1.7,1.7,0,0,1,66,7.7a3.3,3.3,0,0,1-2.3.7A2.1,2.1,0,0,0,64,9.7a1.2,1.2,0,0,0,.9.3h.8l.7-.3v.8a1.9,1.9,0,0,1-.8.3h-1a1.9,1.9,0,0,1-1.3-.5A2.5,2.5,0,0,1,62.8,8.6ZM66,6.2a.8.8,0,0,0-.2-.5c-.2-.2-.3-.2-.6-.2a1.4,1.4,0,0,0-.9.5,3.4,3.4,0,0,0-.6,1.7,3.9,3.9,0,0,0,1.7-.4A1.4,1.4,0,0,0,66,6.2Z" fill="#a7a9ac"/>
    <path d="M67.7,5.5V4.8h.7V3.6l.8-.2V4.8h1.2v.7H69.1L68.8,9c-.1.4-.1.7,0,.8s.3.2.5.2h.8v.7l-.5.2H69a1,1,0,0,1-.9-.4A1.9,1.9,0,0,1,67.9,9l.4-3.5Z" fill="#a7a9ac"/>
    <path d="M71.9,10.7,71,4.8h.9l.6,5.1h.1l.3-.6a9.1,9.1,0,0,0,.6-1.6A7,7,0,0,0,74.1,6l-.2-1.2h.9l.7,5.1h0l.3-.6a11.9,11.9,0,0,0,.8-2A18.7,18.7,0,0,0,77,4.8h.9a13.7,13.7,0,0,1-.5,2.5,10.9,10.9,0,0,1-.9,2.3l-.6,1.1H74.8l-.5-3.6h0a5,5,0,0,1-.4,1.3,5,5,0,0,1-.5,1.3l-.5,1Z" fill="#a7a9ac"/>
    <path d="M78.5,8.6a4,4,0,0,1,.8-2.9,2.4,2.4,0,0,1,1.7-1,1.4,1.4,0,0,1,1.1.4,1.2,1.2,0,0,1,.4,1,1.8,1.8,0,0,1-.9,1.6,3.2,3.2,0,0,1-2.3.7,2.1,2.1,0,0,0,.3,1.3,1.4,1.4,0,0,0,.9.3h.8c.3,0,.5-.2.8-.3v.8l-.8.3h-1a2.2,2.2,0,0,1-1.4-.5A2.5,2.5,0,0,1,78.5,8.6Zm3.1-2.4a.8.8,0,0,0-.2-.5c-.1-.2-.3-.2-.5-.2A1.4,1.4,0,0,0,80,6a3.4,3.4,0,0,0-.6,1.7A3.4,3.4,0,0,0,81,7.3,1.4,1.4,0,0,0,81.6,6.2Z" fill="#a7a9ac"/>
    <path d="M86.4,4.8v.9h-.4l-.7.3-.7.9-.3,3.9h-.9l.5-5.8h.9V5.9h0l.7-1,.7-.2h.4Z" fill="#a7a9ac"/>
    <path d="M87.8,8.6l-.2,2.1h-.9l.8-8.3h.9l-.3,3.1h0l.7-.5.8-.2a1.5,1.5,0,0,1,1,.4A1.2,1.2,0,0,1,91,6.2a1.9,1.9,0,0,1-.4,1.2,2.8,2.8,0,0,1-1.1.8l.8,1.3.4.6.5.6H90.1l-.4-.5-.3-.4-.7-1.3Zm.1-.7h.4a1.7,1.7,0,0,0,1.3-.5,1.2,1.2,0,0,0,.5-1,1.4,1.4,0,0,0-.2-.6l-.5-.2-.7.2a1.8,1.8,0,0,0-.7.5Z" fill="#a7a9ac"/>
  </g>
</svg>
