<svg id="03e78921-0948-4a48-8c4d-47d3eb634f6d" data-name="Layer 1" xmlns="http://www.w3.org/2000/svg" width="36" height="36" viewBox="0 0 36 36">
  <title>o</title>
  <path d="M7.4,18.2c0-3.8,1.1-6.6,3.3-8.6a10.7,10.7,0,0,1,7.6-3,10.4,10.4,0,0,1,7.3,2.8q3,2.7,3,8.4c0,3.8-1.1,6.6-3.2,8.6a10.9,10.9,0,0,1-7.6,3,10.1,10.1,0,0,1-7.3-2.8C8.4,24.8,7.4,22,7.4,18.2Zm4.6-.4c0,2.8.6,4.7,1.8,5.9a5.7,5.7,0,0,0,8.3,0c1.3-1.1,1.9-3,1.9-5.5s-.6-4.7-1.8-5.9A5.4,5.4,0,0,0,18,10.5a6,6,0,0,0-4.1,1.7C12.6,13.4,12,15.3,12,17.8Z" fill="#c6b8cf"/>
</svg>
