<svg id="Layer_1" data-name="Layer 1" xmlns="http://www.w3.org/2000/svg" width="24" height="24" viewBox="0 0 24 24">
  <title>o</title>
  <path d="M4.9,12.1A7.4,7.4,0,0,1,7.1,6.4a7.3,7.3,0,0,1,5.1-2A6.8,6.8,0,0,1,17,6.2c1.4,1.3,2.1,3.1,2.1,5.7a7.4,7.4,0,0,1-2.2,5.7,7.2,7.2,0,0,1-5,2A7.1,7.1,0,0,1,7,17.8C5.6,16.5,4.9,14.7,4.9,12.1ZM8,11.9a5.4,5.4,0,0,0,1.2,3.9A3.8,3.8,0,0,0,12,17a4.1,4.1,0,0,0,2.8-1.2A4.8,4.8,0,0,0,16,12.1a5.4,5.4,0,0,0-1.2-3.9A3.6,3.6,0,0,0,12,7,4.1,4.1,0,0,0,9.2,8.2,4.8,4.8,0,0,0,8,11.9Z" fill="#154273"/>
</svg>
