<svg data-name="Layer 1" xmlns="http://www.w3.org/2000/svg" width="96" height="24" viewBox="0 0 96 24">
    <title>
        opvaart-omlaag
    </title>
    <g fill="#6f1113">
        <path d="M18.2 13.8c0-4.3 2.2-6.7 4.7-6.7s3.6 1.5 3.6 4.4-2.2 6.7-4.7 6.7-3.6-1.3-3.6-4.4zm3.7 3c1.5 0 3-1.6 3-5.1s-.8-3.2-2.2-3.2-2.9 1.7-2.9 5.1.9 3.2 2.1 3.2zM28 22.1l1.4-14.7 1.5-.2-.2 1.8h.1a4.1 4.1 0 0 1 3.1-1.8c1.5 0 2.5 1 2.5 3.7 0 4.9-2.5 7.3-5.2 7.3L30 18l-.4 4.1zm2.1-5.4l1.1.2c1.8 0 3.6-1.8 3.6-5.9 0-1.8-.6-2.4-1.3-2.4a4.8 4.8 0 0 0-2.9 1.9zM38.1 7.4h1.6l1.4 9.2h.1l.6-1.2a27.4 27.4 0 0 0 2.3-8h1.6a25.9 25.9 0 0 1-2.7 8.4L41.8 18h-1.9zM54.6 7.1l-1 10.9h-1.5l.2-1.8h-.1a3.7 3.7 0 0 1-3.2 2c-1.4 0-2.4-1-2.4-3.7 0-4.8 2.5-7.3 5.1-7.3h1.6zm-1.7 1.5h-1.4c-1.6 0-3.3 2-3.3 5.9 0 1.7.6 2.4 1.3 2.4s1.8-.7 2.9-2.2zM64.5 7.1L63.6 18h-1.5v-1.8a3.9 3.9 0 0 1-3.2 2c-1.4 0-2.4-1-2.4-3.7 0-4.8 2.4-7.3 5-7.3h1.6zm-1.6 1.5h-1.4c-1.6 0-3.3 2-3.3 5.9 0 1.7.6 2.4 1.3 2.4s1.8-.7 2.8-2.2zM72 8.8h-.6c-.8 0-1.8.8-2.6 2.1l-.6 7.1h-1.5l.9-10.6 1.5-.2-.2 2h.1c1-1.7 1.6-2 2.5-2h.7zM72.8 7.4h1.3l.2-2.3 1.5-.3-.2 2.6h2.2l-.2 1.2h-2.2l-.6 6.2c-.1 1.5.2 2 .9 2a5 5 0 0 0 1.6-.3v1.3a4.8 4.8 0 0 1-2 .4c-1.5 0-2.3-.9-2-3.3l.6-6.3h-1.1z"/>
    </g>
    <g fill="#6f1113">
        <path d="M88.5 0L87 18.4h-.9L84.5 0h4z"/>
        <path d="M86.5 24l-3.2-8 3.2 1.9 3.3-1.9-3.3 8z"/>
    </g>
</svg>
