<svg id="6e9b8cfc-129d-43eb-8df5-332242169ac2" data-name="Layer 1" xmlns="http://www.w3.org/2000/svg" width="96" height="24" viewBox="0 0 96 24">
  <title>opvaart-omlaag</title>
  <g>
    <path d="M18.2,13.8c0-4.3,2.2-6.7,4.7-6.7s3.6,1.5,3.6,4.4-2.2,6.7-4.7,6.7S18.2,16.9,18.2,13.8Zm3.7,3c1.5,0,3-1.6,3-5.1s-.8-3.2-2.2-3.2-2.9,1.7-2.9,5.1S20.7,16.8,21.9,16.8Z" fill="#6f1113"/>
    <path d="M28,22.1,29.4,7.4l1.5-.2L30.7,9h.1a4.1,4.1,0,0,1,3.1-1.8c1.5,0,2.5,1,2.5,3.7,0,4.9-2.5,7.3-5.2,7.3L30,18l-.4,4.1Zm2.1-5.4,1.1.2c1.8,0,3.6-1.8,3.6-5.9,0-1.8-.6-2.4-1.3-2.4a4.8,4.8,0,0,0-2.9,1.9Z" fill="#6f1113"/>
    <path d="M38.1,7.4h1.6l1.4,9.2h.1l.6-1.2a27.4,27.4,0,0,0,2.3-8h1.6A25.9,25.9,0,0,1,43,15.8L41.8,18H39.9Z" fill="#6f1113"/>
    <path d="M54.6,7.1,53.6,18H52.1l.2-1.8h-.1a3.7,3.7,0,0,1-3.2,2c-1.4,0-2.4-1-2.4-3.7,0-4.8,2.5-7.3,5.1-7.3h1.6ZM52.9,8.6H51.5c-1.6,0-3.3,2-3.3,5.9,0,1.7.6,2.4,1.3,2.4s1.8-.7,2.9-2.2Z" fill="#6f1113"/>
    <path d="M64.5,7.1,63.6,18H62.1V16.2h0a3.9,3.9,0,0,1-3.2,2c-1.4,0-2.4-1-2.4-3.7,0-4.8,2.4-7.3,5-7.3h1.6ZM62.9,8.6H61.5c-1.6,0-3.3,2-3.3,5.9,0,1.7.6,2.4,1.3,2.4s1.8-.7,2.8-2.2Z" fill="#6f1113"/>
    <path d="M72,8.8h-.6c-.8,0-1.8.8-2.6,2.1L68.2,18H66.7l.9-10.6,1.5-.2-.2,2H69c1-1.7,1.6-2,2.5-2h.7Z" fill="#6f1113"/>
    <path d="M72.8,7.4h1.3l.2-2.3,1.5-.3-.2,2.6h2.2l-.2,1.2H75.4l-.6,6.2c-.1,1.5.2,2,.9,2a5,5,0,0,0,1.6-.3v1.3a4.8,4.8,0,0,1-2,.4c-1.5,0-2.3-.9-2-3.3l.6-6.3H72.8Z" fill="#6f1113"/>
  </g>
  <g>
    <polygon points="88.5 0 87 18.4 86.1 18.4 84.5 0 88.5 0" fill="#6f1113"/>
    <polygon points="86.5 24 83.3 16 86.5 17.9 89.8 16 86.5 24" fill="#6f1113"/>
  </g>
</svg>
