<svg id="16567a62-66a4-4c2e-af6f-cddf17d3ca92" data-name="Layer 1" xmlns="http://www.w3.org/2000/svg" width="144" height="480" viewBox="0 0 144 480">
  <title>puntdeur-dubbelkerend-pin-rechts-hwk</title>
  <path d="M24,312h96v12H30.6Zm0-144h96V156H30.6Zm120,0H0V312H144Z" fill="#d9ebf7"/>
  <path d="M120,312h24m0-144H120M0,312H24m0-144H0" fill="none" stroke="#9fceea" stroke-miterlimit="10" stroke-width="3"/>
  <path d="M120,312H24v12h96Z" fill="#d9ebf7"/>
  <path d="M37.7,160.6l24,80-24,80" fill="none" stroke="#fff" stroke-linecap="round" stroke-linejoin="round" stroke-width="9"/>
  <path d="M35.9,159.5l24,80.6-24,80.5" fill="none" stroke="#ca005d" stroke-linecap="round" stroke-linejoin="round" stroke-width="5"/>
  <path d="M35,318l21.8-70.7a9,9,0,1,0-2.1-12.5A8.7,8.7,0,0,0,53,240H49L25,318Zm27-81a3,3,0,1,1-3,3" fill="#ffb612" stroke="#000" stroke-miterlimit="10"/>
  <path d="M30,324v-6H24v-6" fill="none" stroke="#9fceea" stroke-linecap="square" stroke-linejoin="round" stroke-width="3"/>
  <path d="M120,312v12H30" fill="none" stroke="#7d7d7d" stroke-linecap="square" stroke-linejoin="round" stroke-width="3"/>
  <circle cx="30" cy="318" r="6" stroke="#474747" stroke-miterlimit="10" stroke-width="3"/>
  <path d="M35,162l21.8,70.7c7.7-5.5,17.5,3.1,13.2,11.5s-17.1,5.2-17-4.2H49L25,162Zm27,81a3,3,0,1,0-3-3A3,3,0,0,0,62,243Z" fill="#ffb612" stroke="#000" stroke-miterlimit="10"/>
  <path d="M30,156v6H24v6" fill="none" stroke="#9fceea" stroke-linecap="square" stroke-linejoin="round" stroke-width="3"/>
  <path d="M120,168V156H30" fill="none" stroke="#7d7d7d" stroke-linecap="square" stroke-linejoin="round" stroke-width="3"/>
  <circle cx="30" cy="162" r="6" stroke="#474747" stroke-miterlimit="10" stroke-width="3"/>
</svg>
