<svg id="374c6372-7e76-42e7-ab5d-969eb2f5f32e" data-name="Layer 1" xmlns="http://www.w3.org/2000/svg" width="144" height="480" viewBox="0 0 144 480">
  <title>puntdeur-rechts-hwk</title>
  <path d="M24,312h96v12H30Zm96-142.8V156H30l-6,13.2Z" fill="#d9ebf7"/>
  <path d="M0,168H144V312H0Z" fill="#d9ebf7"/>
  <path d="M24,312H0M0,168H24M144,312H120m0-144h24" fill="none" stroke="#9fceea" stroke-miterlimit="10" stroke-width="3"/>
  <path d="M120,312H24v12h96Z" fill="#d9ebf7"/>
  <path d="M37.8,160.6l24,80-24,80" fill="none" stroke="#fff" stroke-linecap="round" stroke-linejoin="round" stroke-width="9"/>
  <path d="M36,159.5l24,80.6L36,320.6" fill="none" stroke="#ca005d" stroke-linecap="round" stroke-linejoin="round" stroke-width="5"/>
  <path d="M25,318l24-78H59L35,318Z" fill="#ffb612" stroke="#000" stroke-linejoin="round"/>
  <path d="M30,324v-6H24v-6" fill="none" stroke="#9fceea" stroke-linecap="square" stroke-linejoin="round" stroke-width="3"/>
  <path d="M25,162l24,78H59L35,162Z" fill="#ffb612" stroke="#000" stroke-linejoin="round"/>
  <path d="M30,156v6H24v6" fill="none" stroke="#9fceea" stroke-linecap="square" stroke-linejoin="round" stroke-width="3"/>
  <path d="M120,312v12H30m90-156V156H30" fill="none" stroke="#7d7d7d" stroke-linecap="square" stroke-linejoin="round" stroke-width="3"/>
  <circle cx="30" cy="162" r="6" stroke="#474747" stroke-miterlimit="10" stroke-width="3"/>
  <circle cx="30" cy="318.1" r="6" stroke="#474747" stroke-miterlimit="10" stroke-width="3"/>
  <g id="62eff8ed-b298-453f-a39b-42af17792cef" data-name="hwk">
    <text transform="translate(41 22.4)" font-size="26" fill="#ca005d" font-family="Helvetica-Bold, Helvetica" font-weight="700" style="isolation: isolate">HWK</text>
  </g>
</svg>
