<svg id="568c22ad-e5a1-400b-a5a3-a758d9be13ce" data-name="Layer 1" xmlns="http://www.w3.org/2000/svg" width="144" height="480" viewBox="0 0 144 480">
  <title>puntdeur-dubbelkerend-pin-links-hwk</title>
  <path d="M0,168H144V312H0Z" fill="#d9ebf7"/>
  <path d="M24,312H0M0,168H24M144,312H120m0-144h24" fill="none" stroke="#9fceea" stroke-miterlimit="10" stroke-width="3"/>
  <path d="M24,312h96v12H24Z" fill="#d9ebf7"/>
  <path d="M120,312H24v12h89.4Z" fill="#d9ebf7"/>
  <path d="M114,324v-6h6v-6" fill="none" stroke="#9fceea" stroke-linecap="square" stroke-linejoin="round" stroke-width="3"/>
  <path d="M120,168H24V156h89.4Z" fill="#d9ebf7"/>
  <path d="M114,156v6h6v6" fill="none" stroke="#9fceea" stroke-linecap="square" stroke-linejoin="round" stroke-width="3"/>
  <path d="M104.8,160.6l-24,80,24,80" fill="none" stroke="#fff" stroke-linecap="round" stroke-linejoin="round" stroke-width="9"/>
  <path d="M106.6,320.6l-24-80.5,24-80.6" fill="none" stroke="#ca005d" stroke-linecap="round" stroke-linejoin="round" stroke-width="5"/>
  <path d="M24,312v12h90M24,168V156h90" fill="none" stroke="#7d7d7d" stroke-linecap="square" stroke-linejoin="round" stroke-width="3"/>
  <path d="M109,318,87.2,247.3a9,9,0,1,1,2.1-12.5A8.7,8.7,0,0,1,91,240h4l24,78ZM82,237a3,3,0,1,0,3,3A2.9,2.9,0,0,0,82,237Z" fill="#ffb612" stroke="#000" stroke-miterlimit="10"/>
  <circle cx="114" cy="318" r="6" stroke="#474747" stroke-miterlimit="10" stroke-width="3"/>
  <path d="M109,162,87.2,232.7a9,9,0,1,0,2.1,12.5A8.7,8.7,0,0,0,91,240h4l24-78ZM82,243a3,3,0,1,1,3-3A2.9,2.9,0,0,1,82,243Z" fill="#ffb612" stroke="#000" stroke-miterlimit="10"/>
  <circle cx="114" cy="162" r="6" stroke="#474747" stroke-miterlimit="10" stroke-width="3"/>
  <g id="e6a64610-d2b5-4c89-8b84-01c3006886a0" data-name="hwk">
    <text transform="translate(41 22.4)" font-size="26" fill="#ca005d" font-family="Helvetica-Bold, Helvetica" font-weight="700" style="isolation: isolate">HWK</text>
  </g>
</svg>
