<svg data-name="Layer 1" xmlns="http://www.w3.org/2000/svg" width="168" height="480" viewBox="0 0 168 480">
    <title>
        puntdeur-dubbelkerend-enkelvoudig-rechts-hwk
    </title>
    <g style="isolation:isolate" fill="#ca005d">
        <path d="M54.9 420v-18.7h3.9v7.1h7.3v-7.1H70V420h-3.9v-8.4h-7.3v8.4zM76.3 401.3l2.4 10.7.6 3 .5-2.9 2.1-10.8H86l2.3 10.7.5 3 .6-2.9 2.5-10.8h4L90.6 420h-3.7l-2.3-10.9-.6-3.7-.7 3.7L81 420h-3.6l-5.3-18.7zM98.3 401.3h3.9v7.7l7.2-7.7h5l-7.6 7.7 8 11h-5l-5.8-8.2-1.8 1.9v6.3h-3.9z"/>
    </g>
    <path d="M168 168H0v144h168z" fill="#d9ebf7"/>
    <path d="M144 312h24m0-144h-24M0 312h48m0-144H0" fill="none" stroke="#9fceea" stroke-miterlimit="10" stroke-width="3"/>
    <path d="M144 312H48v12h96zM48 168h96v-12H54z" fill="#d9ebf7"/>
    <path d="M54 156v6h-6v6" fill="none" stroke="#9fceea" stroke-linecap="square" stroke-linejoin="round" stroke-width="3"/>
    <path d="M48 312h96v12H54z" fill="#d9ebf7"/>
    <path d="M49 318l24-78h10l-24 78z" fill="#ffb612" stroke="#000" stroke-miterlimit="10"/>
    <path d="M54 324v-6h-6v-6" fill="none" stroke="#9fceea" stroke-linecap="square" stroke-linejoin="round" stroke-width="3"/>
    <path d="M18 318l45-30" fill="#fff"/>
    <path d="M18 318l45-30" fill="none" stroke="#fff" stroke-miterlimit="10" stroke-width="4"/>
    <circle cx="63.1" cy="288.1" r="3.3" transform="rotate(-33.5 64.12 290.626)" fill="#fff"/>
    <path d="M18 318l45-30" fill="none" stroke="#154573" stroke-miterlimit="10" stroke-width="2"/>
    <circle cx="18.1" cy="318.1" r="2.3" transform="rotate(-33.7 18.13 318.011)" fill="#154573"/>
    <path d="M48 168h96v-12H54z" fill="#d9ebf7"/>
    <path d="M87.2 242.6l-24 78m24-82l-24-78" fill="none" stroke="#fff" stroke-linecap="round" stroke-width="9"/>
    <path d="M85.4 242.6l-24 78m24-83.1l-24-78" fill="none" stroke="#ca005d" stroke-linecap="round" stroke-width="5"/>
    <path d="M144 312v12H54" fill="none" stroke="#7d7d7d" stroke-linecap="square" stroke-linejoin="round" stroke-width="3"/>
    <circle cx="54" cy="318" r="6" stroke="#474747" stroke-miterlimit="10" stroke-width="3"/>
    <circle cx="63.1" cy="288.1" r="2.3" transform="rotate(-33.7 63.083 288.01)" fill="#154573"/>
    <path d="M49 162l24 78h10l-24-78z" fill="#ffb612" stroke="#000" stroke-miterlimit="10"/>
    <path d="M144 168v-12H54" fill="none" stroke="#7d7d7d" stroke-linecap="square" stroke-linejoin="round" stroke-width="3"/>
    <path d="M54 156v6h-6v6" fill="none" stroke="#9fceea" stroke-linecap="square" stroke-linejoin="round" stroke-width="3"/>
    <circle cx="54" cy="162" r="6" stroke="#474747" stroke-miterlimit="10" stroke-width="3"/>
    <path d="M18 162l45 30" fill="#fff"/>
    <path d="M18 162l45 30" fill="none" stroke="#fff" stroke-miterlimit="10" stroke-width="4"/>
    <circle cx="63" cy="192" r="3.3" fill="#fff"/>
    <path d="M18 162l45 30" fill="none" stroke="#154573" stroke-miterlimit="10" stroke-width="2"/>
    <circle cx="18" cy="162" r="2.3" fill="#154573"/>
    <circle cx="63" cy="192" r="2.3" fill="#154573"/>
</svg>
