<svg data-name="Layer 1" xmlns="http://www.w3.org/2000/svg" width="144" height="480" viewBox="0 0 144 480">
    <title>
        puntdeur-dubbelkerend-pin-rechts-hwk
    </title>
    <path d="M24 312h96v12H30.6zm0-144h96v-12H30.6zm120 0H0v144h144z" fill="#d9ebf7"/>
    <path d="M120 312h24m0-144h-24M0 312h24m0-144H0" fill="none" stroke="#9fceea" stroke-miterlimit="10" stroke-width="3"/>
    <path d="M120 312H24v12h96z" fill="#d9ebf7"/>
    <path d="M37.7 160.6l24 80-24 80" fill="none" stroke="#fff" stroke-linecap="round" stroke-linejoin="round" stroke-width="9"/>
    <path d="M35.9 159.5l24 80.6-24 80.5" fill="none" stroke="#ca005d" stroke-linecap="round" stroke-linejoin="round" stroke-width="5"/>
    <path d="M35 318l21.8-70.7a9 9 0 1 0-2.1-12.5A8.7 8.7 0 0 0 53 240h-4l-24 78zm27-81a3 3 0 1 1-3 3" fill="#ffb612" stroke="#000" stroke-miterlimit="10"/>
    <path d="M30 324v-6h-6v-6" fill="none" stroke="#9fceea" stroke-linecap="square" stroke-linejoin="round" stroke-width="3"/>
    <path d="M120 312v12H30" fill="none" stroke="#7d7d7d" stroke-linecap="square" stroke-linejoin="round" stroke-width="3"/>
    <circle cx="30" cy="318" r="6" stroke="#474747" stroke-miterlimit="10" stroke-width="3"/>
    <path d="M35 162l21.8 70.7c7.7-5.5 17.5 3.1 13.2 11.5s-17.1 5.2-17-4.2h-4l-24-78zm27 81a3 3 0 1 0-3-3 3 3 0 0 0 3 3z" fill="#ffb612" stroke="#000" stroke-miterlimit="10"/>
    <path d="M30 156v6h-6v6" fill="none" stroke="#9fceea" stroke-linecap="square" stroke-linejoin="round" stroke-width="3"/>
    <path d="M120 168v-12H30" fill="none" stroke="#7d7d7d" stroke-linecap="square" stroke-linejoin="round" stroke-width="3"/>
    <circle cx="30" cy="162" r="6" stroke="#474747" stroke-miterlimit="10" stroke-width="3"/>
    <g style="isolation:isolate" fill="#ca005d">
        <path d="M42.9 420v-18.7h3.9v7.1h7.3v-7.1H58V420h-3.9v-8.4h-7.3v8.4zM64.3 401.3l2.4 10.7.6 3 .5-2.9 2.1-10.8H74l2.3 10.7.5 3 .6-2.9 2.5-10.8h4L78.6 420h-3.7l-2.3-10.9-.6-3.7-.7 3.7L69 420h-3.6l-5.3-18.7zM86.3 401.3h3.9v7.7l7.2-7.7h5l-7.6 7.7 8 11h-5l-5.8-8.2-1.8 1.9v6.3h-3.9z"/>
    </g>
</svg>
