<svg id="e8a3b4e0-9589-4806-ad8f-9ecd993ad74e" data-name="Layer 1" xmlns="http://www.w3.org/2000/svg" width="216" height="480" viewBox="0 0 216 480">
  <title>segmentdeur-rechtskerend</title>
  <g>
    <polygon points="192 168 192 156 24 156 24 168 0 168 0 312 24 312 24 324 192 324 192 312 216 312 216 168 192 168" fill="#d9ebf7"/>
    <path d="M0,168H24m192,0H192" fill="none" stroke="#9fceea" stroke-miterlimit="10" stroke-width="3"/>
    <path d="M0,312H24m192,0H192" fill="none" stroke="#9fceea" stroke-miterlimit="10" stroke-width="3"/>
    <path d="M61.5,179.5c-1.9,0-3.5.9-3.5,2v117c0,1.1,1.6,2,3.5,2s3.5-.9,3.5-2v-117C65,180.4,63.4,179.5,61.5,179.5Z"/>
    <polygon points="66 282 39 318 39 162 66 198 66 282" fill="#535353" stroke="#000" stroke-linejoin="round"/>
    <path d="M27,162H39V318H27Z" fill="#ffb612" stroke="#000" stroke-linecap="round" stroke-linejoin="round"/>
    <rect x="45" y="156" width="27" height="168" fill="#d9ebf7" opacity="0.7"/>
    <path d="M192,312v12H24V312" fill="none" stroke="#7d7d7d" stroke-linecap="square" stroke-miterlimit="10" stroke-width="3"/>
    <path d="M192,168V156H24v12" fill="none" stroke="#7d7d7d" stroke-linecap="square" stroke-miterlimit="10" stroke-width="3"/>
    <line x1="44.5" y1="169" x2="44.5" y2="311" fill="none" stroke="#007bc7" stroke-linecap="round" stroke-miterlimit="10"/>
  </g>
</svg>
