<svg id="172f7a85-5021-456c-9439-1b9111a903b1" data-name="Layer 1" xmlns="http://www.w3.org/2000/svg" width="216" height="480" viewBox="0 0 216 480">
  <title>segmentdeur-mee</title>
  <g>
    <polygon points="0 168 0 156 168 156 168 168 192 168 192 312 168 312 168 324 0 324 0 312 -24 312 -24 168 0 168" fill="#d9ebf7"/>
    <path d="M192,168H168m-192,0H0" fill="none" stroke="#9fceea" stroke-miterlimit="10" stroke-width="3"/>
    <path d="M192,312H168m-192,0H0" fill="none" stroke="#9fceea" stroke-miterlimit="10" stroke-width="3"/>
    <path d="M130.5,179.5c1.9,0,3.5.9,3.5,2v117c0,1.1-1.6,2-3.5,2s-3.5-.9-3.5-2v-117C127,180.4,128.6,179.5,130.5,179.5Z"/>
    <polygon points="126 282 153 318 153 162 126 198 126 282" fill="#535353" stroke="#000" stroke-linejoin="round"/>
    <path d="M165,162H153V318h12Z" fill="#ffb612" stroke="#000" stroke-linecap="round" stroke-linejoin="round"/>
    <rect x="120" y="156" width="27" height="168" fill="#d9ebf7" opacity="0.7"/>
    <path d="M0,312v12H168V312" fill="none" stroke="#7d7d7d" stroke-linecap="square" stroke-miterlimit="10" stroke-width="3"/>
    <path d="M0,168V156H168v12" fill="none" stroke="#7d7d7d" stroke-linecap="square" stroke-miterlimit="10" stroke-width="3"/>
    <line x1="147.5" y1="169" x2="147.5" y2="311" fill="none" stroke="#007bc7" stroke-linecap="round" stroke-miterlimit="10"/>
  </g>
</svg>
