<svg id="87e0c9b2-553b-435d-8665-dcaebd7e16f3" data-name="Layer 1" xmlns="http://www.w3.org/2000/svg" width="120" height="480" viewBox="0 0 120 480">
  <title>stopstreep-links</title>
  <path d="M92.5,139.5h-17l1.3,14.2H91.2l1.3-14.2" fill="#e17000"/>
  <path d="M91.2,153.7H76.8L77.9,165H90.1l1.1-11.3" fill="#fff4dc"/>
  <path d="M90.1,165H77.9l.7,7.7H89.4l.7-7.7" fill="#e17000"/>
  <path d="M89.4,172.7H78.6l.6,6.7h9.6l.6-6.7" fill="#fff4dc"/>
  <path d="M75.5,340.4h17l-1.3-14.2H76.8l-1.3,14.2" fill="#e17000"/>
  <path d="M76.8,326.2H91.2l-1.1-11.3H77.9l-1.1,11.3" fill="#fff4dc"/>
  <path d="M77.9,314.9H90.1l-.7-7.7H78.6l-.7,7.7" fill="#e17000"/>
  <path d="M78.6,307.2H89.4l-.6-6.7H79.2l-.6,6.7" fill="#fff4dc"/>
  <path d="M0,168H120V312H0Z" fill="#d9ebf7"/>
  <path d="M92.5,340.4h-17l3.7-39.9h9.6Zm-17-200.9h17l-3.7,39.9H79.2Z" fill="none" stroke="#999" stroke-miterlimit="10"/>
  <path d="M84,168V312" stroke="#9fceea" stroke-miterlimit="6" stroke-width="2" stroke-dasharray="8 4"/>
  <path d="M0,168H120M0,312H120" fill="none" stroke="#9fceea" stroke-miterlimit="10" stroke-width="3"/>
  <path d="M19,168,0,187v9.9L28.9,168Zm24,0L0,211v9.9L52.9,168Zm24,0L0,235v9.9L72,173v-5Zm5,19.1L0,259v9.9l2.5-2.4L72,197v-9.9Zm0,24L0,283v9.9L72,221v-9.9Zm0,24-2.5,2.4L0,307v5H5l67-67v-9.9Zm-.2,23.5-53,52.9.5.5h9L72,268.3v-9.5Zm0,24L42.4,312h9.9L72,292.3v-9.5Z" fill="#e17000"/>
</svg>
