<svg data-name="Layer 1" xmlns="http://www.w3.org/2000/svg" width="168" height="24" viewBox="0 0 168 24">
    <title>
        stroomopwaarts
    </title>
    <path d="M159.2 0c0 1.6-1.9 1.6-1.9 3.2s1.9 1.6 1.9 3.2-1.9 1.5-1.9 3.1 1.9 1.6 1.9 3.2-1.9 1.6-1.9 3.2 1.9 1.6 1.9 3.2M159.2 19.1v1.7" fill="none" stroke="#59a9db" stroke-miterlimit="10" stroke-width="1.5"/>
    <path fill="#59a9db" d="M156.9 20.1l2.3 3.9 2.2-3.9h-4.5z"/>
    <g fill="#59a9db">
        <path d="M17.4 18.6v-1.5l1.3.3h1.2a2.9 2.9 0 0 0 1.7-.4 1.4 1.4 0 0 0 .6-1.2 2.9 2.9 0 0 0-.2-.9 5.7 5.7 0 0 0-1.1-1l-1.1-.7a2.9 2.9 0 0 1-1.1-1.1 2.3 2.3 0 0 1-.4-1.4 2.9 2.9 0 0 1 1-2.3 4.2 4.2 0 0 1 2.7-.9h1.1l1.1.2-.2 1.4h-2.1a2.4 2.4 0 0 0-1.5.4 1.6 1.6 0 0 0-.5 1.1 2.9 2.9 0 0 0 .2.9 3.5 3.5 0 0 0 .9.7l1.1.7a4.4 4.4 0 0 1 1.4 1.1 2.4 2.4 0 0 1 .4 1.5 3.1 3.1 0 0 1-1.2 2.4 3.9 3.9 0 0 1-2.9 1h-1.3zM25.9 8.9V7.7h1.2l.3-2.4L29 5l-.3 2.7H31l-.2 1.2h-2.2l-.7 6.5a2.4 2.4 0 0 0 .2 1.6c.1.3.4.4.8.4h.7l.9-.3v1.5l-1 .2h-1.1a1.9 1.9 0 0 1-1.7-.8 3.7 3.7 0 0 1-.4-2.6l.7-6.5zM38.1 7.6l-.2 1.6h-.7a2.2 2.2 0 0 0-1.3.6 5.9 5.9 0 0 0-1.3 1.7l-.7 7.3h-1.6l1-11 1.6-.2-.2 2.1A5.3 5.3 0 0 1 36.1 8a1.9 1.9 0 0 1 1.2-.4h.8zM42.4 18.9a3.6 3.6 0 0 1-2.7-1 4.9 4.9 0 0 1-1-3.5 8.1 8.1 0 0 1 1.5-5.2 4.2 4.2 0 0 1 3.4-1.8 3.4 3.4 0 0 1 2.7 1.2 5.3 5.3 0 0 1 1 3.4 8.1 8.1 0 0 1-1.5 5.1 4.3 4.3 0 0 1-3.4 1.8zm-2-4.7a4.1 4.1 0 0 0 .6 2.6 1.9 1.9 0 0 0 1.6.7 2.5 2.5 0 0 0 2-1.3 6.2 6.2 0 0 0 1-4 4 4 0 0 0-.6-2.5 1.7 1.7 0 0 0-1.6-.8 2.6 2.6 0 0 0-2.1 1.3 7.2 7.2 0 0 0-.9 4zM53 18.9a3.7 3.7 0 0 1-2.8-1 5.4 5.4 0 0 1-1-3.5 8.1 8.1 0 0 1 1.5-5.2 4.3 4.3 0 0 1 3.4-1.8 3.2 3.2 0 0 1 2.7 1.2 4.8 4.8 0 0 1 1 3.4 8.1 8.1 0 0 1-1.5 5.1 4.1 4.1 0 0 1-3.3 1.8zm-2.1-4.7a4.1 4.1 0 0 0 .6 2.6 2 2 0 0 0 1.6.7 2.8 2.8 0 0 0 2.1-1.3 6.9 6.9 0 0 0 1-4 4 4 0 0 0-.6-2.5 1.9 1.9 0 0 0-1.7-.8 2.5 2.5 0 0 0-2 1.3 6.4 6.4 0 0 0-1 4zM59.8 18.7l1-11 1.6-.2v1.7A7.7 7.7 0 0 1 64 7.9a2.9 2.9 0 0 1 1.6-.4 2 2 0 0 1 1.4.4 2.1 2.1 0 0 1 .7 1.4h.1a5.5 5.5 0 0 1 1.8-1.4 2.9 2.9 0 0 1 1.6-.4 1.9 1.9 0 0 1 1.7.8c.5.6.6 1.5.5 2.9l-.7 7.5h-1.6l.7-7.3a3.4 3.4 0 0 0-.2-1.9 1.1 1.1 0 0 0-.9-.5 2.4 2.4 0 0 0-1.2.4 6.6 6.6 0 0 0-1.6 1.2l-.8 8.1h-1.6l.7-7.3a4.7 4.7 0 0 0-.2-1.9 1 1 0 0 0-.8-.5 2.4 2.4 0 0 0-1.3.4 8.6 8.6 0 0 0-1.7 1.3l-.8 8zM79.5 18.9a3.7 3.7 0 0 1-2.8-1 5.4 5.4 0 0 1-1-3.5 8.1 8.1 0 0 1 1.5-5.2 4.3 4.3 0 0 1 3.4-1.8 3.4 3.4 0 0 1 2.7 1.2 4.8 4.8 0 0 1 1 3.4 8.1 8.1 0 0 1-1.5 5.1 4.3 4.3 0 0 1-3.3 1.8zm-2.1-4.7a4.1 4.1 0 0 0 .6 2.6 2 2 0 0 0 1.6.7 2.8 2.8 0 0 0 2.1-1.3 7 7 0 0 0 .9-4 4 4 0 0 0-.6-2.5 1.6 1.6 0 0 0-1.6-.8 2.5 2.5 0 0 0-2 1.3 6.4 6.4 0 0 0-1 4zM87.5 23h-1.6l1.4-15.3 1.6-.2-.2 1.8h.1a7 7 0 0 1 1.7-1.4 2.9 2.9 0 0 1 1.6-.4 2.1 2.1 0 0 1 1.8.8 4.7 4.7 0 0 1 .7 3c0 2.5-.5 4.4-1.6 5.7a5 5 0 0 1-3.8 1.9h-.7l-.6-.2zm1.1-12l-.6 6.4h1.2a3.1 3.1 0 0 0 2.6-1.4 7.4 7.4 0 0 0 1.2-4.6 4.1 4.1 0 0 0-.4-1.9 1.4 1.4 0 0 0-1-.5 3.4 3.4 0 0 0-1.4.5 7.3 7.3 0 0 0-1.6 1.5zM98.2 18.7l-1.7-11h1.7l1.2 9.5h.1l.5-1.1c.4-.8.8-1.8 1.3-3a20.7 20.7 0 0 0 1-3.3l-.3-2.1h1.7l1.2 9.5h.1l.6-1.1a16.4 16.4 0 0 0 1.4-3.9 26 26 0 0 0 .8-4.5h1.7a29.8 29.8 0 0 1-1 4.7 18.3 18.3 0 0 1-1.8 4.1l-1.1 2.2h-1.9l-.9-6.7h-.1a23.3 23.3 0 0 1-.7 2.5 21.4 21.4 0 0 1-1 2.2l-.9 2zM117.5 7.6l1.4-.2-1 11.3h-1.6l.2-1.8h-.1a5.3 5.3 0 0 1-1.5 1.5 4.1 4.1 0 0 1-1.8.5 2.3 2.3 0 0 1-1.8-.9 4.4 4.4 0 0 1-.7-2.9c0-2.5.5-4.4 1.6-5.7a4.7 4.7 0 0 1 3.7-1.9h1.6zm-.9 7.6l.6-6.3h-1.5a2.9 2.9 0 0 0-2.3 1.6 7.1 7.1 0 0 0-1.1 4.5 3.3 3.3 0 0 0 .4 2 1.2 1.2 0 0 0 .9.5 3 3 0 0 0 1.4-.5 8.9 8.9 0 0 0 1.6-1.8zM127.9 7.6l1.4-.2-1.1 11.3h-1.5l.2-1.8h-.1a4.5 4.5 0 0 1-1.6 1.5 3.4 3.4 0 0 1-1.7.5 2 2 0 0 1-1.8-.9 4.4 4.4 0 0 1-.7-2.9c0-2.5.5-4.4 1.6-5.7a4.7 4.7 0 0 1 3.6-1.9h1.7zm-.9 7.6l.5-6.3h-1.4a3.1 3.1 0 0 0-2.4 1.6 7.8 7.8 0 0 0-1.1 4.5 4.3 4.3 0 0 0 .4 2 1.4 1.4 0 0 0 1 .5 3.4 3.4 0 0 0 1.4-.5 8.9 8.9 0 0 0 1.6-1.8zM137.2 7.6l-.2 1.6h-.6a2.2 2.2 0 0 0-1.4.6 8.4 8.4 0 0 0-1.3 1.7l-.6 7.3h-1.6l.9-11 1.6-.2-.2 2.1h.1a4.3 4.3 0 0 1 1.3-1.7 2 2 0 0 1 1.3-.4h.7zM137.9 8.9V7.7h1.3l.2-2.4L141 5l-.3 2.7h2.3v1.2h-2.3l-.7 6.5a3.2 3.2 0 0 0 .2 1.6.8.8 0 0 0 .8.4h.8l.8-.3v1.5l-1 .2h-1.1a2 2 0 0 1-1.7-.8 3.7 3.7 0 0 1-.4-2.6l.7-6.6zM143.5 18.6v-1.5l1.3.3h1.3a2.5 2.5 0 0 0 1.6-.4 1.3 1.3 0 0 0 .7-1.2 1.6 1.6 0 0 0-.3-.9 3.7 3.7 0 0 0-1.1-1l-1-.7a4.3 4.3 0 0 1-1.2-1.1 2.3 2.3 0 0 1-.4-1.4 3 3 0 0 1 1.1-2.3 3.9 3.9 0 0 1 2.6-.9h1.1l1.1.2v1.4H148a2 2 0 0 0-1.4.4 1.4 1.4 0 0 0-.6 1.1 1.6 1.6 0 0 0 .3.9 1.9 1.9 0 0 0 .8.7l1.1.7a3.6 3.6 0 0 1 1.4 1.3 2.5 2.5 0 0 1 .5 1.5 3.1 3.1 0 0 1-1.2 2.4 4.3 4.3 0 0 1-2.9 1h-1.3z"/>
    </g>
</svg>
