<svg data-name="Layer 1" xmlns="http://www.w3.org/2000/svg" width="168" height="24" viewBox="0 0 168 24">
    <title>
        stroomafwaarts
    </title>
    <path d="M157.3 24c0-1.6 1.9-1.6 1.9-3.2s-1.9-1.6-1.9-3.2 1.9-1.5 1.9-3.1-1.9-1.6-1.9-3.2 1.9-1.6 1.9-3.2-1.9-1.6-1.9-3.2M157.3 4.9V3.2" fill="none" stroke="#59a9db" stroke-miterlimit="10" stroke-width="1.5"/>
    <path fill="#59a9db" d="M159.5 3.9L157.3 0 155 3.9h4.5z"/>
    <g fill="#59a9db">
        <path d="M19.7 18.6v-1.5l1.3.3h1.3a2.5 2.5 0 0 0 1.6-.4 1.3 1.3 0 0 0 .7-1.2 1.6 1.6 0 0 0-.3-.9 3.7 3.7 0 0 0-1.1-1l-1-.7a4.3 4.3 0 0 1-1.2-1.1 2.3 2.3 0 0 1-.4-1.4 3 3 0 0 1 1.1-2.3 3.9 3.9 0 0 1 2.6-.9h1.1l1.1.2v1.4h-2.3a2 2 0 0 0-1.4.4 1.4 1.4 0 0 0-.6 1.1 1.6 1.6 0 0 0 .3.9 1.9 1.9 0 0 0 .8.7l1.1.7a3.6 3.6 0 0 1 1.4 1.1 2.4 2.4 0 0 1 .4 1.5 3 3 0 0 1-1.1 2.4 4.3 4.3 0 0 1-2.9 1h-1.3zM28.2 8.9V7.7h1.3l.2-2.4 1.6-.3-.3 2.7h2.3v1.2h-2.4l-.7 6.5a3.2 3.2 0 0 0 .2 1.6.8.8 0 0 0 .8.4h.8l.8-.3v1.5l-1 .2h-1.1A2 2 0 0 1 29 18a3.7 3.7 0 0 1-.4-2.6l.7-6.6zM40.4 7.6l-.2 1.6h-.6a2.2 2.2 0 0 0-1.4.6 8.4 8.4 0 0 0-1.3 1.7l-.6 7.3h-1.6l.9-11 1.6-.2-.2 2h.1a4.3 4.3 0 0 1 1.3-1.7 2 2 0 0 1 1.3-.4h.7zM44.8 18.9a3.7 3.7 0 0 1-2.8-1 5.4 5.4 0 0 1-1-3.5 8.1 8.1 0 0 1 1.5-5.2 4.3 4.3 0 0 1 3.4-1.8 3.2 3.2 0 0 1 2.7 1.2 4.8 4.8 0 0 1 1 3.4 8.1 8.1 0 0 1-1.5 5.1 4.3 4.3 0 0 1-3.3 1.8zm-2.1-4.7a4.1 4.1 0 0 0 .6 2.6 2 2 0 0 0 1.6.7 2.8 2.8 0 0 0 2.1-1.3 7 7 0 0 0 .9-4 4.9 4.9 0 0 0-.5-2.5 1.9 1.9 0 0 0-1.7-.8 2.5 2.5 0 0 0-2 1.3 6.4 6.4 0 0 0-1 4zM55.3 18.9a3.6 3.6 0 0 1-2.7-1 4.9 4.9 0 0 1-1-3.5A8.7 8.7 0 0 1 53 9.2a4.4 4.4 0 0 1 3.5-1.8 3.4 3.4 0 0 1 2.7 1.2 5.3 5.3 0 0 1 1 3.4 8.1 8.1 0 0 1-1.5 5.1 4.3 4.3 0 0 1-3.4 1.8zm-2.1-4.7a4 4 0 0 0 .7 2.6 1.8 1.8 0 0 0 1.5.7 2.5 2.5 0 0 0 2.1-1.3 6.2 6.2 0 0 0 1-4 4 4 0 0 0-.6-2.5 1.7 1.7 0 0 0-1.6-.8 2.5 2.5 0 0 0-2.1 1.3 7.1 7.1 0 0 0-1 4zM62.2 18.7l1-11 1.6-.2-.2 1.7h.1a5.9 5.9 0 0 1 1.7-1.3 2.6 2.6 0 0 1 1.5-.4 2.4 2.4 0 0 1 1.5.4 3.7 3.7 0 0 1 .7 1.4 8.9 8.9 0 0 1 1.8-1.4 3.2 3.2 0 0 1 1.6-.4 1.9 1.9 0 0 1 1.8.8 4.1 4.1 0 0 1 .4 2.9l-.7 7.5h-1.6l.7-7.3a3.4 3.4 0 0 0-.2-1.9 1 1 0 0 0-.8-.5 1.9 1.9 0 0 0-1.2.4 6.7 6.7 0 0 0-1.7 1.2l-.8 8.1h-1.6l.7-7.3a5.2 5.2 0 0 0-.1-1.9 1.1 1.1 0 0 0-.9-.5 1.9 1.9 0 0 0-1.2.4l-1.8 1.3-.7 8zM84.9 7.6l1.4-.2-1 11.3h-1.6l.2-1.8h-.1a5.3 5.3 0 0 1-1.5 1.5 4.1 4.1 0 0 1-1.8.5 2.3 2.3 0 0 1-1.8-.9 4.4 4.4 0 0 1-.7-2.9 9.2 9.2 0 0 1 1.6-5.7 4.7 4.7 0 0 1 3.7-1.9h1.6zm-.9 7.6l.6-6.3h-1.5a2.9 2.9 0 0 0-2.3 1.6 7.8 7.8 0 0 0-1.1 4.5 3.3 3.3 0 0 0 .4 2 1.2 1.2 0 0 0 .9.5 3 3 0 0 0 1.4-.5 6.6 6.6 0 0 0 1.6-1.8zM91.4 7.7h2.3v1.2h-2.4L90 23h-1.6l1.3-14.1h-1.1V7.7h1.2V6.4A4.2 4.2 0 0 1 91 3.8a4 4 0 0 1 2.5-.9h1.8l-.2 1.4h-1.6a2.1 2.1 0 0 0-1.3.5 2.6 2.6 0 0 0-.7 1.6z"/>
        <path d="M95.8 18.7l-1.7-11h1.7l1.2 9.5h.1l.6-1.1a23.3 23.3 0 0 0 1.2-3 21.3 21.3 0 0 0 1.1-3.3l-.3-2.1h1.6l1.3 9.5h.1l.5-1.1a22.6 22.6 0 0 0 1.5-3.9 41.2 41.2 0 0 0 .8-4.5h1.7a48 48 0 0 1-1 4.7 18.3 18.3 0 0 1-1.8 4.1l-1.1 2.2h-1.9l-1-6.7a24.1 24.1 0 0 1-.8 2.5 20.4 20.4 0 0 1-.9 2.2l-1 2zM115.2 7.6l1.4-.2-1.1 11.3H114l.2-1.8h-.1a4.5 4.5 0 0 1-1.6 1.5 3.4 3.4 0 0 1-1.7.5 2 2 0 0 1-1.8-.9 4.4 4.4 0 0 1-.7-2.9c0-2.5.5-4.4 1.6-5.7a4.7 4.7 0 0 1 3.6-1.9h1.7zm-.9 7.6l.5-6.3h-1.4a3.1 3.1 0 0 0-2.4 1.6 7.8 7.8 0 0 0-1.1 4.5 4.3 4.3 0 0 0 .4 2 1.4 1.4 0 0 0 1 .5 3.4 3.4 0 0 0 1.4-.5 8.9 8.9 0 0 0 1.6-1.8zM125.6 7.6l1.3-.2-1 11.3h-1.6l.2-1.8a5.5 5.5 0 0 1-1.6 1.5 4.1 4.1 0 0 1-1.8.5 2.3 2.3 0 0 1-1.8-.9 5.1 5.1 0 0 1-.7-2.9 9.2 9.2 0 0 1 1.6-5.7 4.7 4.7 0 0 1 3.7-1.9h1.7zm-1 7.6l.6-6.3h-1.4a2.9 2.9 0 0 0-2.4 1.6 7.8 7.8 0 0 0-1.1 4.5 3.3 3.3 0 0 0 .4 2 1.4 1.4 0 0 0 1 .5 2.7 2.7 0 0 0 1.3-.5 6.6 6.6 0 0 0 1.6-1.8zM134.9 7.6l-.2 1.6h-.7a2.2 2.2 0 0 0-1.3.6 5.9 5.9 0 0 0-1.3 1.7l-.7 7.3h-1.6l1-11 1.6-.2-.2 2.1a5.3 5.3 0 0 1 1.4-1.7 1.9 1.9 0 0 1 1.2-.4h.8zM135.5 8.9V7.7h1.3l.3-2.4 1.6-.3-.3 2.7h2.3l-.2 1.2h-2.2l-.7 6.5a3.6 3.6 0 0 0 .1 1.6 1 1 0 0 0 .9.4h.7l.9-.3v1.5l-1 .2h-1.1a1.9 1.9 0 0 1-1.7-.8 3.7 3.7 0 0 1-.4-2.6l.7-6.6zM141.2 18.6v-1.5l1.3.3h1.2a2.9 2.9 0 0 0 1.7-.4 1.4 1.4 0 0 0 .6-1.2 2.9 2.9 0 0 0-.2-.9 5.7 5.7 0 0 0-1.1-1l-1.1-.7a2.9 2.9 0 0 1-1.1-1.1 2.3 2.3 0 0 1-.4-1.4 2.7 2.7 0 0 1 1.1-2.3 3.7 3.7 0 0 1 2.6-.9h1.1l1.1.2-.2 1.4h-2.1a2.4 2.4 0 0 0-1.5.4 1.6 1.6 0 0 0-.5 1.1 2.9 2.9 0 0 0 .2.9 3.5 3.5 0 0 0 .9.7l1.1.7a4.4 4.4 0 0 1 1.4 1.3 2.4 2.4 0 0 1 .4 1.5 3.1 3.1 0 0 1-1.2 2.4 3.9 3.9 0 0 1-2.9 1h-1.3z"/>
    </g>
</svg>
