<svg id="7b820a52-1c7e-4f86-b620-625b90ea3394" data-name="Layer 1" xmlns="http://www.w3.org/2000/svg" width="168" height="48" viewBox="0 0 168 48">
  <title>stroomrichting</title>
  <g>
    <path d="M126,40.5c-5.6,0-5.6-6.7-11.1-6.7s-5.6,6.7-11.1,6.7-5.6-6.7-11.2-6.7-5.5,6.7-11.1,6.7-5.6-6.7-11.1-6.7-5.6,6.7-11.2,6.7" fill="none" stroke="#59a9db" stroke-miterlimit="10" stroke-width="1.5"/>
    <g>
      <line x1="59.2" y1="40.5" x2="48.5" y2="40.5" fill="none" stroke="#59a9db" stroke-miterlimit="10" stroke-width="1.5"/>
      <polygon points="49.8 36 42 40.5 49.8 45 49.8 36" fill="#59a9db"/>
    </g>
  </g>
  <g>
    <path d="M24.8,25.4V23.9l1.4.3h1.2a3.1,3.1,0,0,0,1.7-.4,1.4,1.4,0,0,0,.6-1.1,1.7,1.7,0,0,0-.3-1,4.6,4.6,0,0,0-1-1L27.3,20a4.3,4.3,0,0,1-1.2-1.1,3.3,3.3,0,0,1-.4-1.4,3,3,0,0,1,1.1-2.3,3.9,3.9,0,0,1,2.6-.9h1.1l1.1.2v1.4H29.4a2.2,2.2,0,0,0-1.5.4,1.4,1.4,0,0,0-.6,1.1,1.6,1.6,0,0,0,.3.9,1.9,1.9,0,0,0,.8.7l1.1.7a3.6,3.6,0,0,1,1.4,1.3,2.5,2.5,0,0,1,.5,1.5,3.1,3.1,0,0,1-1.2,2.4,4.3,4.3,0,0,1-2.9,1H26Z" fill="#59a9db"/>
    <path d="M33.3,15.7V14.5h1.3l.2-2.4,1.6-.3-.3,2.7h2.3v1.2H36l-.6,6.5a2.5,2.5,0,0,0,.1,1.6.9.9,0,0,0,.8.4h.8l.8-.3v1.5l-1,.2H35.8a2.1,2.1,0,0,1-1.7-.8,3.8,3.8,0,0,1-.3-2.6l.6-6.6Z" fill="#59a9db"/>
    <path d="M45.5,14.4,45.3,16h-.6a2.4,2.4,0,0,0-1.4.6A8.4,8.4,0,0,0,42,18.2l-.6,7.3H39.8l.9-11,1.6-.2-.2,2.1h.1a5.5,5.5,0,0,1,1.3-1.7,2,2,0,0,1,1.3-.4h.7Z" fill="#59a9db"/>
    <path d="M49.9,25.7a3.3,3.3,0,0,1-2.7-1,4.9,4.9,0,0,1-1.1-3.5A8.1,8.1,0,0,1,47.6,16,4.3,4.3,0,0,1,51,14.2a3.2,3.2,0,0,1,2.7,1.2,4.8,4.8,0,0,1,1,3.4,7.8,7.8,0,0,1-1.5,5.1A4.1,4.1,0,0,1,49.9,25.7ZM47.8,21a4.1,4.1,0,0,0,.6,2.6,2.1,2.1,0,0,0,1.6.7A2.8,2.8,0,0,0,52.1,23a6.9,6.9,0,0,0,1-4,4,4,0,0,0-.6-2.5,1.9,1.9,0,0,0-1.7-.8,2.5,2.5,0,0,0-2,1.3A6.4,6.4,0,0,0,47.8,21Z" fill="#59a9db"/>
    <path d="M60.4,25.7a3.6,3.6,0,0,1-2.7-1,4.9,4.9,0,0,1-1-3.5A8.7,8.7,0,0,1,58.1,16a4.5,4.5,0,0,1,3.5-1.8,3.4,3.4,0,0,1,2.7,1.2,5.3,5.3,0,0,1,1,3.4,7.8,7.8,0,0,1-1.5,5.1A4.3,4.3,0,0,1,60.4,25.7Zm-2-4.7a4.1,4.1,0,0,0,.6,2.6,1.9,1.9,0,0,0,1.6.7,2.5,2.5,0,0,0,2-1.3,6.2,6.2,0,0,0,1-4,4,4,0,0,0-.6-2.5,1.7,1.7,0,0,0-1.6-.8A2.6,2.6,0,0,0,59.3,17,7.2,7.2,0,0,0,58.4,21Z" fill="#59a9db"/>
    <path d="M67.3,25.5l1-11,1.6-.2L69.7,16h.1a5.9,5.9,0,0,1,1.7-1.3,2.8,2.8,0,0,1,1.5-.4,2.2,2.2,0,0,1,1.5.4,3.7,3.7,0,0,1,.7,1.4h0A8.9,8.9,0,0,1,77,14.7a3.2,3.2,0,0,1,1.6-.4,1.9,1.9,0,0,1,1.8.8,4.1,4.1,0,0,1,.4,2.9l-.7,7.5H78.5l.7-7.3a2.7,2.7,0,0,0-.2-1.9,1,1,0,0,0-.8-.5,1.9,1.9,0,0,0-1.2.4,6.7,6.7,0,0,0-1.7,1.2l-.8,8.1H72.9l.7-7.3a5.2,5.2,0,0,0-.1-1.9,1.1,1.1,0,0,0-.9-.5,2.1,2.1,0,0,0-1.2.4l-1.8,1.3-.7,8Z" fill="#59a9db"/>
    <path d="M89,14.4,88.8,16h-.6a2.2,2.2,0,0,0-1.4.6,8.4,8.4,0,0,0-1.3,1.7l-.6,7.3H83.3l.9-11,1.6-.2-.2,2.1h.1A4.3,4.3,0,0,1,87,14.7a2,2,0,0,1,1.3-.4H89Z" fill="#59a9db"/>
    <path d="M92.3,14.3l-1,11.2H89.7l1-11ZM90.8,11a1,1,0,0,1,.3-.8,1.2,1.2,0,0,1,.8-.4.9.9,0,0,1,.7.3,1.2,1.2,0,0,1,.2.7.9.9,0,0,1-.3.7,1,1,0,0,1-.8.4.7.7,0,0,1-.6-.3A.6.6,0,0,1,90.8,11Z" fill="#59a9db"/>
    <path d="M101.1,14.4v1.5H99.2A2.9,2.9,0,0,0,97,17.1a8.3,8.3,0,0,0-1,4.5,2.9,2.9,0,0,0,.6,2.1,1.8,1.8,0,0,0,1.5.6h1.1l1.2-.4v1.4l-1.3.4H97.9a3.7,3.7,0,0,1-2.7-.9c-.6-.6-.8-1.6-.8-3.1s.5-4.5,1.5-5.7a4.3,4.3,0,0,1,3.4-1.7h1.8Z" fill="#59a9db"/>
    <path d="M107.7,25.5l.7-7.3a3.4,3.4,0,0,0-.2-1.9,1,1,0,0,0-.8-.5,5.1,5.1,0,0,0-1.4.4l-1.8,1.4-.7,7.9h-1.6l1.4-15.6,1.7-.2-.6,6.3h0a7.8,7.8,0,0,1,1.8-1.3,3.2,3.2,0,0,1,1.6-.4,1.9,1.9,0,0,1,1.8.8A4.1,4.1,0,0,1,110,18l-.7,7.5Z" fill="#59a9db"/>
    <path d="M112.4,15.7V14.5h1.3l.2-2.4,1.6-.3-.2,2.7h2.2v1.2h-2.3l-.6,6.5a2.5,2.5,0,0,0,.1,1.6.9.9,0,0,0,.8.4h.8l.8-.3v1.5l-1,.2h-1.1a2.1,2.1,0,0,1-1.7-.8,3.8,3.8,0,0,1-.3-2.6l.6-6.6Z" fill="#59a9db"/>
    <path d="M121.5,14.3l-1,11.2h-1.7l1-11ZM120,11a1,1,0,0,1,.3-.8,1.2,1.2,0,0,1,.8-.4.9.9,0,0,1,.7.3,1.2,1.2,0,0,1,.2.7.9.9,0,0,1-.3.7,1.2,1.2,0,0,1-.8.4.9.9,0,0,1-.7-.3A.8.8,0,0,1,120,11Z" fill="#59a9db"/>
    <path d="M129.5,25.5l.7-7.3a3.4,3.4,0,0,0-.2-1.9,1.1,1.1,0,0,0-.9-.5l-1.3.4L126,17.6l-.7,7.9h-1.6l1-11,1.6-.2-.2,1.7h.1a5.1,5.1,0,0,1,1.8-1.3,2.8,2.8,0,0,1,1.5-.4,2.2,2.2,0,0,1,1.9.8,4.7,4.7,0,0,1,.4,2.9l-.7,7.5Z" fill="#59a9db"/>
    <path d="M141,14.4l1.4-.2-1,11.4a5.1,5.1,0,0,1-1.5,3.3,5.1,5.1,0,0,1-3,1h-1.6l-1.6-.2V28l1.6.4h1.5a2.8,2.8,0,0,0,2.1-.7,3.2,3.2,0,0,0,.9-2.1l.2-2h-.1a4.5,4.5,0,0,1-1.6,1.5,3.4,3.4,0,0,1-1.7.5,2,2,0,0,1-1.8-.9,4.4,4.4,0,0,1-.7-2.9c0-2.5.5-4.4,1.6-5.7a4.7,4.7,0,0,1,3.6-1.9H141Zm-.9,7.6.5-6.3h-1.4a2.9,2.9,0,0,0-2.3,1.6,7.1,7.1,0,0,0-1.1,4.5,3.3,3.3,0,0,0,.4,2,1.1,1.1,0,0,0,.9.5,3,3,0,0,0,1.4-.5A8.9,8.9,0,0,0,140.1,22Z" fill="#59a9db"/>
  </g>
</svg>
