<svg data-name="Layer 1" xmlns="http://www.w3.org/2000/svg" width="120" height="480" viewBox="0 0 120 480">
    <title>
        weg-over-sluisdeur
    </title>
    <path d="M39 242v166h42V242zm19 23h4v24h-4zm0 48h4v24h-4zm0 48h4v24h-4zM39 72v165h42V72zm19 22.5h4v24h-4zm0 48h4v24h-4zm0 48h4v24h-4z" opacity=".5" style="isolation:isolate"/>
    <path d="M58 214.5h4v-24h-4zm0-48h4v-24h-4zm0-48h4v-24h-4zM58 385h4v-24h-4zm0-48h4v-24h-4zm0-48h4v-24h-4z" fill="#fff" opacity=".5" style="isolation:isolate"/>
</svg>
